<svg xmlns="http://www.w3.org/2000/svg" viewBox="0 0 540 960" width="540" height="960">
<defs><radialGradient id="bg" cx="50%" cy="36%" r="85%"><stop offset="0%" stop-color="#141b3f"/><stop offset="100%" stop-color="#090e24"/></radialGradient></defs>
<rect x="0" y="0" width="540" height="960" rx="38" fill="url(#bg)"/>
<circle cx="421.2" cy="475.1" r="1.6" fill="#dfe7ff" stroke="none" fill-opacity="0.22"/>
<circle cx="129.6" cy="112.2" r="1.7" fill="#dfe7ff" stroke="none" fill-opacity="0.15"/>
<line x1="318.5" y1="585.7" x2="322.3" y2="585.7" w="1.2" color="#dfe7ff" op="0.2845299596765296"/>
<line x1="318.5" y1="585.7" x2="318.5" y2="589.5" w="1.2" color="#dfe7ff" op="0.2845299596765296"/>
<line x1="318.5" y1="585.7" x2="314.6" y2="585.7" w="1.2" color="#dfe7ff" op="0.2845299596765296"/>
<line x1="318.5" y1="585.7" x2="318.5" y2="581.8" w="1.2" color="#dfe7ff" op="0.2845299596765296"/>
<circle cx="153.2" cy="427.6" r="1.6" fill="#dfe7ff" stroke="none" fill-opacity="0.39"/>
<line x1="344.6" y1="845.6" x2="350.6" y2="845.6" w="1.2" color="#dfe7ff" op="0.23195100999730808"/>
<line x1="344.6" y1="845.6" x2="344.6" y2="851.5" w="1.2" color="#dfe7ff" op="0.23195100999730808"/>
<line x1="344.6" y1="845.6" x2="338.7" y2="845.6" w="1.2" color="#dfe7ff" op="0.23195100999730808"/>
<line x1="344.6" y1="845.6" x2="344.6" y2="839.6" w="1.2" color="#dfe7ff" op="0.23195100999730808"/>
<circle cx="356.8" cy="254.2" r="2.0" fill="#dfe7ff" stroke="none" fill-opacity="0.37"/>
<line x1="62.2" y1="242.5" x2="68.3" y2="242.5" w="1.2" color="#dfe7ff" op="0.24641388515983306"/>
<line x1="62.2" y1="242.5" x2="62.2" y2="248.6" w="1.2" color="#dfe7ff" op="0.24641388515983306"/>
<line x1="62.2" y1="242.5" x2="56.2" y2="242.5" w="1.2" color="#dfe7ff" op="0.24641388515983306"/>
<line x1="62.2" y1="242.5" x2="62.2" y2="236.5" w="1.2" color="#dfe7ff" op="0.24641388515983306"/>
<line x1="506.9" y1="188.9" x2="513.8" y2="188.9" w="1.2" color="#dfe7ff" op="0.3864268049382984"/>
<line x1="506.9" y1="188.9" x2="506.9" y2="195.8" w="1.2" color="#dfe7ff" op="0.3864268049382984"/>
<line x1="506.9" y1="188.9" x2="500.0" y2="188.9" w="1.2" color="#dfe7ff" op="0.3864268049382984"/>
<line x1="506.9" y1="188.9" x2="506.9" y2="182.0" w="1.2" color="#dfe7ff" op="0.3864268049382984"/>
<circle cx="251.2" cy="790.1" r="1.3" fill="#dfe7ff" stroke="none" fill-opacity="0.34"/>
<line x1="263.9" y1="822.1" x2="269.4" y2="822.1" w="1.2" color="#dfe7ff" op="0.33071281991726076"/>
<line x1="263.9" y1="822.1" x2="263.9" y2="827.7" w="1.2" color="#dfe7ff" op="0.33071281991726076"/>
<line x1="263.9" y1="822.1" x2="258.3" y2="822.1" w="1.2" color="#dfe7ff" op="0.33071281991726076"/>
<line x1="263.9" y1="822.1" x2="263.9" y2="816.5" w="1.2" color="#dfe7ff" op="0.33071281991726076"/>
<circle cx="205.8" cy="493.1" r="2.4" fill="#dfe7ff" stroke="none" fill-opacity="0.13"/>
<circle cx="459.9" cy="430.7" r="2.5" fill="#dfe7ff" stroke="none" fill-opacity="0.15"/>
<circle cx="49.6" cy="872.6" r="2.5" fill="#dfe7ff" stroke="none" fill-opacity="0.23"/>
<line x1="158.9" y1="99.6" x2="162.2" y2="99.6" w="1.2" color="#dfe7ff" op="0.3100920843267035"/>
<line x1="158.9" y1="99.6" x2="158.9" y2="102.8" w="1.2" color="#dfe7ff" op="0.3100920843267035"/>
<line x1="158.9" y1="99.6" x2="155.7" y2="99.6" w="1.2" color="#dfe7ff" op="0.3100920843267035"/>
<line x1="158.9" y1="99.6" x2="158.9" y2="96.3" w="1.2" color="#dfe7ff" op="0.3100920843267035"/>
<circle cx="77.4" cy="454.3" r="1.2" fill="#dfe7ff" stroke="none" fill-opacity="0.20"/>
<line x1="340.3" y1="143.0" x2="345.1" y2="143.0" w="1.2" color="#dfe7ff" op="0.31155879816440424"/>
<line x1="340.3" y1="143.0" x2="340.3" y2="147.8" w="1.2" color="#dfe7ff" op="0.31155879816440424"/>
<line x1="340.3" y1="143.0" x2="335.5" y2="143.0" w="1.2" color="#dfe7ff" op="0.31155879816440424"/>
<line x1="340.3" y1="143.0" x2="340.3" y2="138.2" w="1.2" color="#dfe7ff" op="0.31155879816440424"/>
<circle cx="456.9" cy="911.5" r="1.9" fill="#dfe7ff" stroke="none" fill-opacity="0.29"/>
<circle cx="391.1" cy="659.3" r="2.2" fill="#dfe7ff" stroke="none" fill-opacity="0.28"/>
<circle cx="379.0" cy="522.0" r="1.9" fill="#dfe7ff" stroke="none" fill-opacity="0.33"/>
<line x1="447.9" y1="127.7" x2="451.7" y2="127.7" w="1.2" color="#dfe7ff" op="0.28098832124419293"/>
<line x1="447.9" y1="127.7" x2="447.9" y2="131.5" w="1.2" color="#dfe7ff" op="0.28098832124419293"/>
<line x1="447.9" y1="127.7" x2="444.1" y2="127.7" w="1.2" color="#dfe7ff" op="0.28098832124419293"/>
<line x1="447.9" y1="127.7" x2="447.9" y2="123.9" w="1.2" color="#dfe7ff" op="0.28098832124419293"/>
<circle cx="488.7" cy="919.7" r="2.4" fill="#dfe7ff" stroke="none" fill-opacity="0.12"/>
<line x1="68.8" y1="93.3" x2="75.6" y2="93.3" w="1.2" color="#dfe7ff" op="0.2585588893783386"/>
<line x1="68.8" y1="93.3" x2="68.8" y2="100.1" w="1.2" color="#dfe7ff" op="0.2585588893783386"/>
<line x1="68.8" y1="93.3" x2="61.9" y2="93.3" w="1.2" color="#dfe7ff" op="0.2585588893783386"/>
<line x1="68.8" y1="93.3" x2="68.8" y2="86.4" w="1.2" color="#dfe7ff" op="0.2585588893783386"/>
<circle cx="77.4" cy="176.8" r="1.9" fill="#dfe7ff" stroke="none" fill-opacity="0.17"/>
<circle cx="145.5" cy="630.1" r="1.9" fill="#dfe7ff" stroke="none" fill-opacity="0.29"/>
<circle cx="164.6" cy="787.5" r="2.5" fill="#dfe7ff" stroke="none" fill-opacity="0.33"/>
<circle cx="334.2" cy="200.3" r="1.6" fill="#dfe7ff" stroke="none" fill-opacity="0.22"/>
<circle cx="219.3" cy="389.9" r="1.2" fill="#dfe7ff" stroke="none" fill-opacity="0.29"/>
<circle cx="436.6" cy="607.8" r="2.4" fill="#dfe7ff" stroke="none" fill-opacity="0.15"/>
<circle cx="317.7" cy="342.6" r="1.6" fill="#dfe7ff" stroke="none" fill-opacity="0.28"/>
<circle cx="308.6" cy="329.2" r="1.9" fill="#dfe7ff" stroke="none" fill-opacity="0.30"/>
<circle cx="172.6" cy="489.7" r="1.6" fill="#dfe7ff" stroke="none" fill-opacity="0.33"/>
<circle cx="401.3" cy="881.1" r="1.1" fill="#dfe7ff" stroke="none" fill-opacity="0.17"/>
<line x1="409.7" y1="372.8" x2="415.6" y2="372.8" w="1.2" color="#dfe7ff" op="0.23996922213335906"/>
<line x1="409.7" y1="372.8" x2="409.7" y2="378.7" w="1.2" color="#dfe7ff" op="0.23996922213335906"/>
<line x1="409.7" y1="372.8" x2="403.8" y2="372.8" w="1.2" color="#dfe7ff" op="0.23996922213335906"/>
<line x1="409.7" y1="372.8" x2="409.7" y2="366.9" w="1.2" color="#dfe7ff" op="0.23996922213335906"/>
<line x1="68.3" y1="795.7" x2="72.4" y2="795.7" w="1.2" color="#dfe7ff" op="0.12683110198925002"/>
<line x1="68.3" y1="795.7" x2="68.3" y2="799.8" w="1.2" color="#dfe7ff" op="0.12683110198925002"/>
<line x1="68.3" y1="795.7" x2="64.2" y2="795.7" w="1.2" color="#dfe7ff" op="0.12683110198925002"/>
<line x1="68.3" y1="795.7" x2="68.3" y2="791.5" w="1.2" color="#dfe7ff" op="0.12683110198925002"/>
<line x1="178.1" y1="378.0" x2="184.1" y2="378.0" w="1.2" color="#dfe7ff" op="0.2602120252974116"/>
<line x1="178.1" y1="378.0" x2="178.1" y2="384.0" w="1.2" color="#dfe7ff" op="0.2602120252974116"/>
<line x1="178.1" y1="378.0" x2="172.1" y2="378.0" w="1.2" color="#dfe7ff" op="0.2602120252974116"/>
<line x1="178.1" y1="378.0" x2="178.1" y2="371.9" w="1.2" color="#dfe7ff" op="0.2602120252974116"/>
<circle cx="204.8" cy="221.5" r="1.4" fill="#dfe7ff" stroke="none" fill-opacity="0.31"/>
<circle cx="62.3" cy="160.7" r="1.0" fill="#dfe7ff" stroke="none" fill-opacity="0.15"/>
<line x1="385.1" y1="479.1" x2="392.0" y2="479.1" w="1.2" color="#dfe7ff" op="0.1787629735394689"/>
<line x1="385.1" y1="479.1" x2="385.1" y2="486.1" w="1.2" color="#dfe7ff" op="0.1787629735394689"/>
<line x1="385.1" y1="479.1" x2="378.1" y2="479.1" w="1.2" color="#dfe7ff" op="0.1787629735394689"/>
<line x1="385.1" y1="479.1" x2="385.1" y2="472.2" w="1.2" color="#dfe7ff" op="0.1787629735394689"/>
<circle cx="407.3" cy="528.3" r="2.1" fill="#dfe7ff" stroke="none" fill-opacity="0.13"/>
<circle cx="89.2" cy="403.9" r="1.7" fill="#dfe7ff" stroke="none" fill-opacity="0.39"/>
<circle cx="48.4" cy="43.8" r="2.3" fill="#dfe7ff" stroke="none" fill-opacity="0.12"/>
<circle cx="415.5" cy="143.2" r="1.8" fill="#dfe7ff" stroke="none" fill-opacity="0.22"/>
<circle cx="334.2" cy="751.2" r="1.5" fill="#dfe7ff" stroke="none" fill-opacity="0.19"/>
<line x1="487.9" y1="659.8" x2="492.6" y2="659.8" w="1.2" color="#dfe7ff" op="0.26760396165708716"/>
<line x1="487.9" y1="659.8" x2="487.9" y2="664.5" w="1.2" color="#dfe7ff" op="0.26760396165708716"/>
<line x1="487.9" y1="659.8" x2="483.2" y2="659.8" w="1.2" color="#dfe7ff" op="0.26760396165708716"/>
<line x1="487.9" y1="659.8" x2="487.9" y2="655.1" w="1.2" color="#dfe7ff" op="0.26760396165708716"/>
<circle cx="34.3" cy="319.7" r="1.8" fill="#dfe7ff" stroke="none" fill-opacity="0.14"/>
<circle cx="160.9" cy="652.9" r="1.3" fill="#dfe7ff" stroke="none" fill-opacity="0.12"/>
<circle cx="231.0" cy="511.1" r="2.0" fill="#dfe7ff" stroke="none" fill-opacity="0.18"/>
<line x1="46.8" y1="711.3" x2="54.0" y2="711.3" w="1.2" color="#dfe7ff" op="0.2068409586695347"/>
<line x1="46.8" y1="711.3" x2="46.8" y2="718.5" w="1.2" color="#dfe7ff" op="0.2068409586695347"/>
<line x1="46.8" y1="711.3" x2="39.5" y2="711.3" w="1.2" color="#dfe7ff" op="0.2068409586695347"/>
<line x1="46.8" y1="711.3" x2="46.8" y2="704.0" w="1.2" color="#dfe7ff" op="0.2068409586695347"/>
<line x1="319.7" y1="49.1" x2="325.7" y2="49.1" w="1.2" color="#dfe7ff" op="0.29197975338270743"/>
<line x1="319.7" y1="49.1" x2="319.7" y2="55.1" w="1.2" color="#dfe7ff" op="0.29197975338270743"/>
<line x1="319.7" y1="49.1" x2="313.8" y2="49.1" w="1.2" color="#dfe7ff" op="0.29197975338270743"/>
<line x1="319.7" y1="49.1" x2="319.7" y2="43.2" w="1.2" color="#dfe7ff" op="0.29197975338270743"/>
<line x1="369.4" y1="607.0" x2="377.5" y2="607.0" w="1.2" color="#dfe7ff" op="0.2985420301916925"/>
<line x1="369.4" y1="607.0" x2="369.4" y2="615.1" w="1.2" color="#dfe7ff" op="0.2985420301916925"/>
<line x1="369.4" y1="607.0" x2="361.2" y2="607.0" w="1.2" color="#dfe7ff" op="0.2985420301916925"/>
<line x1="369.4" y1="607.0" x2="369.4" y2="598.8" w="1.2" color="#dfe7ff" op="0.2985420301916925"/>
<line x1="261.2" y1="455.5" x2="265.3" y2="455.5" w="1.2" color="#dfe7ff" op="0.37742975481118923"/>
<line x1="261.2" y1="455.5" x2="261.2" y2="459.6" w="1.2" color="#dfe7ff" op="0.37742975481118923"/>
<line x1="261.2" y1="455.5" x2="257.0" y2="455.5" w="1.2" color="#dfe7ff" op="0.37742975481118923"/>
<line x1="261.2" y1="455.5" x2="261.2" y2="451.4" w="1.2" color="#dfe7ff" op="0.37742975481118923"/>
<line x1="97.9" y1="429.1" x2="106.7" y2="429.1" w="1.2" color="#dfe7ff" op="0.12063203158199157"/>
<line x1="97.9" y1="429.1" x2="97.9" y2="437.9" w="1.2" color="#dfe7ff" op="0.12063203158199157"/>
<line x1="97.9" y1="429.1" x2="89.1" y2="429.1" w="1.2" color="#dfe7ff" op="0.12063203158199157"/>
<line x1="97.9" y1="429.1" x2="97.9" y2="420.2" w="1.2" color="#dfe7ff" op="0.12063203158199157"/>
<circle cx="342.4" cy="517.2" r="2.0" fill="#dfe7ff" stroke="none" fill-opacity="0.19"/>
<circle cx="49.3" cy="366.4" r="2.4" fill="#dfe7ff" stroke="none" fill-opacity="0.20"/>
<circle cx="80.7" cy="413.5" r="1.3" fill="#dfe7ff" stroke="none" fill-opacity="0.11"/>
<line x1="426.1" y1="189.8" x2="432.9" y2="189.8" w="1.2" color="#dfe7ff" op="0.28944571122127905"/>
<line x1="426.1" y1="189.8" x2="426.1" y2="196.6" w="1.2" color="#dfe7ff" op="0.28944571122127905"/>
<line x1="426.1" y1="189.8" x2="419.3" y2="189.8" w="1.2" color="#dfe7ff" op="0.28944571122127905"/>
<line x1="426.1" y1="189.8" x2="426.1" y2="182.9" w="1.2" color="#dfe7ff" op="0.28944571122127905"/>
<line x1="96.2" y1="39.1" x2="102.0" y2="39.1" w="1.2" color="#dfe7ff" op="0.1300673427594934"/>
<line x1="96.2" y1="39.1" x2="96.2" y2="45.0" w="1.2" color="#dfe7ff" op="0.1300673427594934"/>
<line x1="96.2" y1="39.1" x2="90.3" y2="39.1" w="1.2" color="#dfe7ff" op="0.1300673427594934"/>
<line x1="96.2" y1="39.1" x2="96.2" y2="33.3" w="1.2" color="#dfe7ff" op="0.1300673427594934"/>
<line x1="397.5" y1="207.9" x2="403.3" y2="207.9" w="1.2" color="#dfe7ff" op="0.3035981343715299"/>
<line x1="397.5" y1="207.9" x2="397.5" y2="213.7" w="1.2" color="#dfe7ff" op="0.3035981343715299"/>
<line x1="397.5" y1="207.9" x2="391.7" y2="207.9" w="1.2" color="#dfe7ff" op="0.3035981343715299"/>
<line x1="397.5" y1="207.9" x2="397.5" y2="202.1" w="1.2" color="#dfe7ff" op="0.3035981343715299"/>
<line x1="470.2" y1="232.3" x2="477.0" y2="232.3" w="1.2" color="#dfe7ff" op="0.25876843498731905"/>
<line x1="470.2" y1="232.3" x2="470.2" y2="239.2" w="1.2" color="#dfe7ff" op="0.25876843498731905"/>
<line x1="470.2" y1="232.3" x2="463.3" y2="232.3" w="1.2" color="#dfe7ff" op="0.25876843498731905"/>
<line x1="470.2" y1="232.3" x2="470.2" y2="225.5" w="1.2" color="#dfe7ff" op="0.25876843498731905"/>
<circle cx="150.5" cy="905.3" r="1.9" fill="#dfe7ff" stroke="none" fill-opacity="0.11"/>
<circle cx="326.0" cy="875.3" r="1.3" fill="#dfe7ff" stroke="none" fill-opacity="0.12"/>
<circle cx="308.5" cy="830.7" r="1.4" fill="#dfe7ff" stroke="none" fill-opacity="0.20"/>
<circle cx="200.6" cy="37.7" r="1.4" fill="#dfe7ff" stroke="none" fill-opacity="0.25"/>
<circle cx="427.5" cy="177.5" r="1.8" fill="#dfe7ff" stroke="none" fill-opacity="0.38"/>
<circle cx="270.0" cy="193.2" r="40.0" fill="none" stroke="#dfe7ff" stroke-width="3.4" stroke-linecap="round" stroke-linejoin="round"/>
<ellipse cx="270.0" cy="193.2" rx="68.0" ry="22.0" transform="rotate(20 270.0 193.2)" fill="none" stroke="#dfe7ff" stroke-width="2.4" stroke-linecap="round" stroke-linejoin="round" stroke-opacity="0.85"/>
<circle cx="388.9" cy="242.3" r="40.0" fill="none" stroke="#dfe7ff" stroke-width="3.4" stroke-linecap="round" stroke-linejoin="round"/>
<ellipse cx="388.9" cy="242.3" rx="68.0" ry="22.0" transform="rotate(20 388.9 242.3)" fill="none" stroke="#dfe7ff" stroke-width="2.4" stroke-linecap="round" stroke-linejoin="round" stroke-opacity="0.85"/>
<circle cx="452.2" cy="366.7" r="40.0" fill="none" stroke="#dfe7ff" stroke-width="3.4" stroke-linecap="round" stroke-linejoin="round"/>
<ellipse cx="452.2" cy="366.7" rx="68.0" ry="22.0" transform="rotate(20 452.2 366.7)" fill="none" stroke="#dfe7ff" stroke-width="2.4" stroke-linecap="round" stroke-linejoin="round" stroke-opacity="0.85"/>
<circle cx="430.2" cy="508.2" r="40.0" fill="none" stroke="#dfe7ff" stroke-width="3.4" stroke-linecap="round" stroke-linejoin="round"/>
<ellipse cx="430.2" cy="508.2" rx="68.0" ry="22.0" transform="rotate(20 430.2 508.2)" fill="none" stroke="#dfe7ff" stroke-width="2.4" stroke-linecap="round" stroke-linejoin="round" stroke-opacity="0.85"/>
<circle cx="333.3" cy="600.5" r="40.0" fill="none" stroke="#dfe7ff" stroke-width="3.4" stroke-linecap="round" stroke-linejoin="round"/>
<ellipse cx="333.3" cy="600.5" rx="68.0" ry="22.0" transform="rotate(20 333.3 600.5)" fill="none" stroke="#dfe7ff" stroke-width="2.4" stroke-linecap="round" stroke-linejoin="round" stroke-opacity="0.85"/>
<circle cx="206.7" cy="600.5" r="40.0" fill="none" stroke="#dfe7ff" stroke-width="3.4" stroke-linecap="round" stroke-linejoin="round"/>
<ellipse cx="206.7" cy="600.5" rx="68.0" ry="22.0" transform="rotate(20 206.7 600.5)" fill="none" stroke="#dfe7ff" stroke-width="2.4" stroke-linecap="round" stroke-linejoin="round" stroke-opacity="0.85"/>
<circle cx="109.8" cy="508.2" r="40.0" fill="none" stroke="#dfe7ff" stroke-width="3.4" stroke-linecap="round" stroke-linejoin="round"/>
<ellipse cx="109.8" cy="508.2" rx="68.0" ry="22.0" transform="rotate(20 109.8 508.2)" fill="none" stroke="#dfe7ff" stroke-width="2.4" stroke-linecap="round" stroke-linejoin="round" stroke-opacity="0.85"/>
<circle cx="87.8" cy="366.7" r="40.0" fill="none" stroke="#dfe7ff" stroke-width="3.4" stroke-linecap="round" stroke-linejoin="round"/>
<ellipse cx="87.8" cy="366.7" rx="68.0" ry="22.0" transform="rotate(20 87.8 366.7)" fill="none" stroke="#dfe7ff" stroke-width="2.4" stroke-linecap="round" stroke-linejoin="round" stroke-opacity="0.85"/>
<circle cx="151.1" cy="242.3" r="40.0" fill="none" stroke="#dfe7ff" stroke-width="3.4" stroke-linecap="round" stroke-linejoin="round"/>
<ellipse cx="151.1" cy="242.3" rx="68.0" ry="22.0" transform="rotate(20 151.1 242.3)" fill="none" stroke="#dfe7ff" stroke-width="2.4" stroke-linecap="round" stroke-linejoin="round" stroke-opacity="0.85"/>
<rect x="16" y="16" width="508" height="928" rx="26" fill="none" stroke="#e6c79c" stroke-width="2.4" stroke-linecap="round" stroke-linejoin="round" stroke-opacity="0.90"/>
<rect x="30" y="30" width="480" height="900" rx="18" fill="none" stroke="#dfe7ff" stroke-width="1.5" stroke-linecap="round" stroke-linejoin="round" stroke-opacity="0.26"/>
<path d="M 52.0 41.0 L 54.3 49.7 L 63.0 52.0 L 54.3 54.3 L 52.0 63.0 L 49.7 54.3 L 41.0 52.0 L 49.7 49.7 Z" fill="none" stroke="#e6c79c" stroke-width="1.6" stroke-linecap="round" stroke-linejoin="round" stroke-opacity="0.80"/>
<path d="M 488.0 41.0 L 490.3 49.7 L 499.0 52.0 L 490.3 54.3 L 488.0 63.0 L 485.7 54.3 L 477.0 52.0 L 485.7 49.7 Z" fill="none" stroke="#e6c79c" stroke-width="1.6" stroke-linecap="round" stroke-linejoin="round" stroke-opacity="0.80"/>
<path d="M 52.0 897.0 L 54.3 905.7 L 63.0 908.0 L 54.3 910.3 L 52.0 919.0 L 49.7 910.3 L 41.0 908.0 L 49.7 905.7 Z" fill="none" stroke="#e6c79c" stroke-width="1.6" stroke-linecap="round" stroke-linejoin="round" stroke-opacity="0.80"/>
<path d="M 488.0 897.0 L 490.3 905.7 L 499.0 908.0 L 490.3 910.3 L 488.0 919.0 L 485.7 910.3 L 477.0 908.0 L 485.7 905.7 Z" fill="none" stroke="#e6c79c" stroke-width="1.6" stroke-linecap="round" stroke-linejoin="round" stroke-opacity="0.80"/>
<text x="270" y="894" text-anchor="middle" fill="#e6c79c" font-family="'Avenir Next', system-ui, sans-serif" font-size="24" letter-spacing="5" font-weight="500">NINE OF PENTACLES</text>
</svg>
