<svg xmlns="http://www.w3.org/2000/svg" viewBox="0 0 540 960" width="540" height="960">
<defs><radialGradient id="bg" cx="50%" cy="36%" r="85%"><stop offset="0%" stop-color="#141b3f"/><stop offset="100%" stop-color="#090e24"/></radialGradient></defs>
<rect x="0" y="0" width="540" height="960" rx="38" fill="url(#bg)"/>
<circle cx="277.5" cy="245.3" r="2.6" fill="#dfe7ff" stroke="none" fill-opacity="0.11"/>
<circle cx="328.5" cy="450.1" r="2.1" fill="#dfe7ff" stroke="none" fill-opacity="0.25"/>
<line x1="311.9" y1="122.4" x2="319.2" y2="122.4" fill="none" stroke="#dfe7ff" stroke-width="1.2" stroke-linecap="round" stroke-linejoin="round" stroke-opacity="0.36"/>
<line x1="311.9" y1="122.4" x2="311.9" y2="129.7" fill="none" stroke="#dfe7ff" stroke-width="1.2" stroke-linecap="round" stroke-linejoin="round" stroke-opacity="0.36"/>
<line x1="311.9" y1="122.4" x2="304.5" y2="122.4" fill="none" stroke="#dfe7ff" stroke-width="1.2" stroke-linecap="round" stroke-linejoin="round" stroke-opacity="0.36"/>
<line x1="311.9" y1="122.4" x2="311.9" y2="115.0" fill="none" stroke="#dfe7ff" stroke-width="1.2" stroke-linecap="round" stroke-linejoin="round" stroke-opacity="0.36"/>
<circle cx="149.2" cy="827.6" r="2.2" fill="#dfe7ff" stroke="none" fill-opacity="0.21"/>
<circle cx="147.9" cy="858.4" r="2.0" fill="#dfe7ff" stroke="none" fill-opacity="0.12"/>
<line x1="200.9" y1="410.3" x2="208.7" y2="410.3" fill="none" stroke="#dfe7ff" stroke-width="1.2" stroke-linecap="round" stroke-linejoin="round" stroke-opacity="0.11"/>
<line x1="200.9" y1="410.3" x2="200.9" y2="418.1" fill="none" stroke="#dfe7ff" stroke-width="1.2" stroke-linecap="round" stroke-linejoin="round" stroke-opacity="0.11"/>
<line x1="200.9" y1="410.3" x2="193.1" y2="410.3" fill="none" stroke="#dfe7ff" stroke-width="1.2" stroke-linecap="round" stroke-linejoin="round" stroke-opacity="0.11"/>
<line x1="200.9" y1="410.3" x2="200.9" y2="402.5" fill="none" stroke="#dfe7ff" stroke-width="1.2" stroke-linecap="round" stroke-linejoin="round" stroke-opacity="0.11"/>
<circle cx="446.7" cy="188.5" r="1.2" fill="#dfe7ff" stroke="none" fill-opacity="0.28"/>
<circle cx="128.5" cy="497.9" r="2.2" fill="#dfe7ff" stroke="none" fill-opacity="0.12"/>
<circle cx="388.6" cy="808.9" r="1.3" fill="#dfe7ff" stroke="none" fill-opacity="0.36"/>
<line x1="476.3" y1="564.0" x2="484.2" y2="564.0" fill="none" stroke="#dfe7ff" stroke-width="1.2" stroke-linecap="round" stroke-linejoin="round" stroke-opacity="0.23"/>
<line x1="476.3" y1="564.0" x2="476.3" y2="571.9" fill="none" stroke="#dfe7ff" stroke-width="1.2" stroke-linecap="round" stroke-linejoin="round" stroke-opacity="0.23"/>
<line x1="476.3" y1="564.0" x2="468.3" y2="564.0" fill="none" stroke="#dfe7ff" stroke-width="1.2" stroke-linecap="round" stroke-linejoin="round" stroke-opacity="0.23"/>
<line x1="476.3" y1="564.0" x2="476.3" y2="556.1" fill="none" stroke="#dfe7ff" stroke-width="1.2" stroke-linecap="round" stroke-linejoin="round" stroke-opacity="0.23"/>
<circle cx="504.6" cy="595.4" r="2.2" fill="#dfe7ff" stroke="none" fill-opacity="0.30"/>
<circle cx="168.5" cy="96.3" r="2.0" fill="#dfe7ff" stroke="none" fill-opacity="0.28"/>
<circle cx="75.1" cy="427.8" r="1.5" fill="#dfe7ff" stroke="none" fill-opacity="0.26"/>
<circle cx="296.7" cy="186.2" r="1.1" fill="#dfe7ff" stroke="none" fill-opacity="0.26"/>
<line x1="110.6" y1="536.3" x2="115.0" y2="536.3" fill="none" stroke="#dfe7ff" stroke-width="1.2" stroke-linecap="round" stroke-linejoin="round" stroke-opacity="0.23"/>
<line x1="110.6" y1="536.3" x2="110.6" y2="540.7" fill="none" stroke="#dfe7ff" stroke-width="1.2" stroke-linecap="round" stroke-linejoin="round" stroke-opacity="0.23"/>
<line x1="110.6" y1="536.3" x2="106.1" y2="536.3" fill="none" stroke="#dfe7ff" stroke-width="1.2" stroke-linecap="round" stroke-linejoin="round" stroke-opacity="0.23"/>
<line x1="110.6" y1="536.3" x2="110.6" y2="531.9" fill="none" stroke="#dfe7ff" stroke-width="1.2" stroke-linecap="round" stroke-linejoin="round" stroke-opacity="0.23"/>
<line x1="37.6" y1="555.1" x2="41.4" y2="555.1" fill="none" stroke="#dfe7ff" stroke-width="1.2" stroke-linecap="round" stroke-linejoin="round" stroke-opacity="0.11"/>
<line x1="37.6" y1="555.1" x2="37.6" y2="558.8" fill="none" stroke="#dfe7ff" stroke-width="1.2" stroke-linecap="round" stroke-linejoin="round" stroke-opacity="0.11"/>
<line x1="37.6" y1="555.1" x2="33.9" y2="555.1" fill="none" stroke="#dfe7ff" stroke-width="1.2" stroke-linecap="round" stroke-linejoin="round" stroke-opacity="0.11"/>
<line x1="37.6" y1="555.1" x2="37.6" y2="551.3" fill="none" stroke="#dfe7ff" stroke-width="1.2" stroke-linecap="round" stroke-linejoin="round" stroke-opacity="0.11"/>
<circle cx="262.3" cy="408.0" r="1.2" fill="#dfe7ff" stroke="none" fill-opacity="0.14"/>
<circle cx="147.1" cy="370.1" r="2.1" fill="#dfe7ff" stroke="none" fill-opacity="0.16"/>
<circle cx="338.3" cy="377.9" r="1.4" fill="#dfe7ff" stroke="none" fill-opacity="0.31"/>
<circle cx="115.3" cy="723.3" r="2.1" fill="#dfe7ff" stroke="none" fill-opacity="0.31"/>
<circle cx="212.7" cy="888.3" r="1.2" fill="#dfe7ff" stroke="none" fill-opacity="0.24"/>
<line x1="292.9" y1="237.3" x2="301.5" y2="237.3" fill="none" stroke="#dfe7ff" stroke-width="1.2" stroke-linecap="round" stroke-linejoin="round" stroke-opacity="0.39"/>
<line x1="292.9" y1="237.3" x2="292.9" y2="245.9" fill="none" stroke="#dfe7ff" stroke-width="1.2" stroke-linecap="round" stroke-linejoin="round" stroke-opacity="0.39"/>
<line x1="292.9" y1="237.3" x2="284.3" y2="237.3" fill="none" stroke="#dfe7ff" stroke-width="1.2" stroke-linecap="round" stroke-linejoin="round" stroke-opacity="0.39"/>
<line x1="292.9" y1="237.3" x2="292.9" y2="228.7" fill="none" stroke="#dfe7ff" stroke-width="1.2" stroke-linecap="round" stroke-linejoin="round" stroke-opacity="0.39"/>
<circle cx="103.0" cy="167.3" r="2.3" fill="#dfe7ff" stroke="none" fill-opacity="0.30"/>
<line x1="223.0" y1="810.2" x2="231.0" y2="810.2" fill="none" stroke="#dfe7ff" stroke-width="1.2" stroke-linecap="round" stroke-linejoin="round" stroke-opacity="0.36"/>
<line x1="223.0" y1="810.2" x2="223.0" y2="818.3" fill="none" stroke="#dfe7ff" stroke-width="1.2" stroke-linecap="round" stroke-linejoin="round" stroke-opacity="0.36"/>
<line x1="223.0" y1="810.2" x2="215.0" y2="810.2" fill="none" stroke="#dfe7ff" stroke-width="1.2" stroke-linecap="round" stroke-linejoin="round" stroke-opacity="0.36"/>
<line x1="223.0" y1="810.2" x2="223.0" y2="802.2" fill="none" stroke="#dfe7ff" stroke-width="1.2" stroke-linecap="round" stroke-linejoin="round" stroke-opacity="0.36"/>
<circle cx="467.8" cy="649.0" r="1.5" fill="#dfe7ff" stroke="none" fill-opacity="0.34"/>
<line x1="433.6" y1="896.8" x2="437.5" y2="896.8" fill="none" stroke="#dfe7ff" stroke-width="1.2" stroke-linecap="round" stroke-linejoin="round" stroke-opacity="0.29"/>
<line x1="433.6" y1="896.8" x2="433.6" y2="900.7" fill="none" stroke="#dfe7ff" stroke-width="1.2" stroke-linecap="round" stroke-linejoin="round" stroke-opacity="0.29"/>
<line x1="433.6" y1="896.8" x2="429.6" y2="896.8" fill="none" stroke="#dfe7ff" stroke-width="1.2" stroke-linecap="round" stroke-linejoin="round" stroke-opacity="0.29"/>
<line x1="433.6" y1="896.8" x2="433.6" y2="892.8" fill="none" stroke="#dfe7ff" stroke-width="1.2" stroke-linecap="round" stroke-linejoin="round" stroke-opacity="0.29"/>
<circle cx="228.3" cy="415.7" r="1.1" fill="#dfe7ff" stroke="none" fill-opacity="0.30"/>
<circle cx="169.1" cy="128.7" r="2.6" fill="#dfe7ff" stroke="none" fill-opacity="0.26"/>
<line x1="426.5" y1="166.4" x2="430.9" y2="166.4" fill="none" stroke="#dfe7ff" stroke-width="1.2" stroke-linecap="round" stroke-linejoin="round" stroke-opacity="0.30"/>
<line x1="426.5" y1="166.4" x2="426.5" y2="170.8" fill="none" stroke="#dfe7ff" stroke-width="1.2" stroke-linecap="round" stroke-linejoin="round" stroke-opacity="0.30"/>
<line x1="426.5" y1="166.4" x2="422.1" y2="166.4" fill="none" stroke="#dfe7ff" stroke-width="1.2" stroke-linecap="round" stroke-linejoin="round" stroke-opacity="0.30"/>
<line x1="426.5" y1="166.4" x2="426.5" y2="162.0" fill="none" stroke="#dfe7ff" stroke-width="1.2" stroke-linecap="round" stroke-linejoin="round" stroke-opacity="0.30"/>
<line x1="505.7" y1="316.9" x2="513.7" y2="316.9" fill="none" stroke="#dfe7ff" stroke-width="1.2" stroke-linecap="round" stroke-linejoin="round" stroke-opacity="0.38"/>
<line x1="505.7" y1="316.9" x2="505.7" y2="324.9" fill="none" stroke="#dfe7ff" stroke-width="1.2" stroke-linecap="round" stroke-linejoin="round" stroke-opacity="0.38"/>
<line x1="505.7" y1="316.9" x2="497.7" y2="316.9" fill="none" stroke="#dfe7ff" stroke-width="1.2" stroke-linecap="round" stroke-linejoin="round" stroke-opacity="0.38"/>
<line x1="505.7" y1="316.9" x2="505.7" y2="308.9" fill="none" stroke="#dfe7ff" stroke-width="1.2" stroke-linecap="round" stroke-linejoin="round" stroke-opacity="0.38"/>
<circle cx="107.3" cy="510.3" r="1.1" fill="#dfe7ff" stroke="none" fill-opacity="0.23"/>
<line x1="262.8" y1="899.0" x2="269.7" y2="899.0" fill="none" stroke="#dfe7ff" stroke-width="1.2" stroke-linecap="round" stroke-linejoin="round" stroke-opacity="0.11"/>
<line x1="262.8" y1="899.0" x2="262.8" y2="905.9" fill="none" stroke="#dfe7ff" stroke-width="1.2" stroke-linecap="round" stroke-linejoin="round" stroke-opacity="0.11"/>
<line x1="262.8" y1="899.0" x2="256.0" y2="899.0" fill="none" stroke="#dfe7ff" stroke-width="1.2" stroke-linecap="round" stroke-linejoin="round" stroke-opacity="0.11"/>
<line x1="262.8" y1="899.0" x2="262.8" y2="892.2" fill="none" stroke="#dfe7ff" stroke-width="1.2" stroke-linecap="round" stroke-linejoin="round" stroke-opacity="0.11"/>
<circle cx="232.5" cy="298.4" r="1.2" fill="#dfe7ff" stroke="none" fill-opacity="0.23"/>
<circle cx="228.5" cy="602.0" r="2.3" fill="#dfe7ff" stroke="none" fill-opacity="0.23"/>
<circle cx="470.4" cy="228.1" r="1.2" fill="#dfe7ff" stroke="none" fill-opacity="0.24"/>
<circle cx="173.9" cy="273.6" r="2.2" fill="#dfe7ff" stroke="none" fill-opacity="0.26"/>
<circle cx="198.5" cy="821.7" r="1.7" fill="#dfe7ff" stroke="none" fill-opacity="0.34"/>
<line x1="65.9" y1="133.9" x2="72.9" y2="133.9" fill="none" stroke="#dfe7ff" stroke-width="1.2" stroke-linecap="round" stroke-linejoin="round" stroke-opacity="0.33"/>
<line x1="65.9" y1="133.9" x2="65.9" y2="140.9" fill="none" stroke="#dfe7ff" stroke-width="1.2" stroke-linecap="round" stroke-linejoin="round" stroke-opacity="0.33"/>
<line x1="65.9" y1="133.9" x2="59.0" y2="133.9" fill="none" stroke="#dfe7ff" stroke-width="1.2" stroke-linecap="round" stroke-linejoin="round" stroke-opacity="0.33"/>
<line x1="65.9" y1="133.9" x2="65.9" y2="127.0" fill="none" stroke="#dfe7ff" stroke-width="1.2" stroke-linecap="round" stroke-linejoin="round" stroke-opacity="0.33"/>
<line x1="169.7" y1="300.8" x2="178.2" y2="300.8" fill="none" stroke="#dfe7ff" stroke-width="1.2" stroke-linecap="round" stroke-linejoin="round" stroke-opacity="0.15"/>
<line x1="169.7" y1="300.8" x2="169.7" y2="309.3" fill="none" stroke="#dfe7ff" stroke-width="1.2" stroke-linecap="round" stroke-linejoin="round" stroke-opacity="0.15"/>
<line x1="169.7" y1="300.8" x2="161.3" y2="300.8" fill="none" stroke="#dfe7ff" stroke-width="1.2" stroke-linecap="round" stroke-linejoin="round" stroke-opacity="0.15"/>
<line x1="169.7" y1="300.8" x2="169.7" y2="292.4" fill="none" stroke="#dfe7ff" stroke-width="1.2" stroke-linecap="round" stroke-linejoin="round" stroke-opacity="0.15"/>
<circle cx="464.8" cy="38.7" r="2.5" fill="#dfe7ff" stroke="none" fill-opacity="0.29"/>
<circle cx="289.6" cy="610.0" r="1.1" fill="#dfe7ff" stroke="none" fill-opacity="0.16"/>
<circle cx="169.8" cy="230.2" r="2.0" fill="#dfe7ff" stroke="none" fill-opacity="0.24"/>
<circle cx="503.1" cy="814.9" r="2.2" fill="#dfe7ff" stroke="none" fill-opacity="0.37"/>
<line x1="427.4" y1="309.0" x2="433.2" y2="309.0" fill="none" stroke="#dfe7ff" stroke-width="1.2" stroke-linecap="round" stroke-linejoin="round" stroke-opacity="0.32"/>
<line x1="427.4" y1="309.0" x2="427.4" y2="314.8" fill="none" stroke="#dfe7ff" stroke-width="1.2" stroke-linecap="round" stroke-linejoin="round" stroke-opacity="0.32"/>
<line x1="427.4" y1="309.0" x2="421.7" y2="309.0" fill="none" stroke="#dfe7ff" stroke-width="1.2" stroke-linecap="round" stroke-linejoin="round" stroke-opacity="0.32"/>
<line x1="427.4" y1="309.0" x2="427.4" y2="303.3" fill="none" stroke="#dfe7ff" stroke-width="1.2" stroke-linecap="round" stroke-linejoin="round" stroke-opacity="0.32"/>
<circle cx="459.7" cy="357.9" r="1.2" fill="#dfe7ff" stroke="none" fill-opacity="0.16"/>
<circle cx="112.3" cy="695.3" r="2.4" fill="#dfe7ff" stroke="none" fill-opacity="0.12"/>
<circle cx="83.5" cy="634.6" r="1.9" fill="#dfe7ff" stroke="none" fill-opacity="0.33"/>
<line x1="111.6" y1="82.6" x2="120.6" y2="82.6" fill="none" stroke="#dfe7ff" stroke-width="1.2" stroke-linecap="round" stroke-linejoin="round" stroke-opacity="0.28"/>
<line x1="111.6" y1="82.6" x2="111.6" y2="91.6" fill="none" stroke="#dfe7ff" stroke-width="1.2" stroke-linecap="round" stroke-linejoin="round" stroke-opacity="0.28"/>
<line x1="111.6" y1="82.6" x2="102.6" y2="82.6" fill="none" stroke="#dfe7ff" stroke-width="1.2" stroke-linecap="round" stroke-linejoin="round" stroke-opacity="0.28"/>
<line x1="111.6" y1="82.6" x2="111.6" y2="73.6" fill="none" stroke="#dfe7ff" stroke-width="1.2" stroke-linecap="round" stroke-linejoin="round" stroke-opacity="0.28"/>
<circle cx="156.0" cy="158.7" r="1.0" fill="#dfe7ff" stroke="none" fill-opacity="0.37"/>
<circle cx="136.8" cy="212.5" r="2.3" fill="#dfe7ff" stroke="none" fill-opacity="0.12"/>
<circle cx="362.9" cy="289.0" r="2.0" fill="#dfe7ff" stroke="none" fill-opacity="0.16"/>
<circle cx="384.9" cy="206.1" r="2.1" fill="#dfe7ff" stroke="none" fill-opacity="0.39"/>
<line x1="99.7" y1="485.6" x2="102.9" y2="485.6" fill="none" stroke="#dfe7ff" stroke-width="1.2" stroke-linecap="round" stroke-linejoin="round" stroke-opacity="0.14"/>
<line x1="99.7" y1="485.6" x2="99.7" y2="488.8" fill="none" stroke="#dfe7ff" stroke-width="1.2" stroke-linecap="round" stroke-linejoin="round" stroke-opacity="0.14"/>
<line x1="99.7" y1="485.6" x2="96.5" y2="485.6" fill="none" stroke="#dfe7ff" stroke-width="1.2" stroke-linecap="round" stroke-linejoin="round" stroke-opacity="0.14"/>
<line x1="99.7" y1="485.6" x2="99.7" y2="482.4" fill="none" stroke="#dfe7ff" stroke-width="1.2" stroke-linecap="round" stroke-linejoin="round" stroke-opacity="0.14"/>
<line x1="354.0" y1="140.3" x2="360.2" y2="140.3" fill="none" stroke="#dfe7ff" stroke-width="1.2" stroke-linecap="round" stroke-linejoin="round" stroke-opacity="0.32"/>
<line x1="354.0" y1="140.3" x2="354.0" y2="146.5" fill="none" stroke="#dfe7ff" stroke-width="1.2" stroke-linecap="round" stroke-linejoin="round" stroke-opacity="0.32"/>
<line x1="354.0" y1="140.3" x2="347.8" y2="140.3" fill="none" stroke="#dfe7ff" stroke-width="1.2" stroke-linecap="round" stroke-linejoin="round" stroke-opacity="0.32"/>
<line x1="354.0" y1="140.3" x2="354.0" y2="134.1" fill="none" stroke="#dfe7ff" stroke-width="1.2" stroke-linecap="round" stroke-linejoin="round" stroke-opacity="0.32"/>
<line x1="465.9" y1="311.4" x2="469.7" y2="311.4" fill="none" stroke="#dfe7ff" stroke-width="1.2" stroke-linecap="round" stroke-linejoin="round" stroke-opacity="0.36"/>
<line x1="465.9" y1="311.4" x2="465.9" y2="315.1" fill="none" stroke="#dfe7ff" stroke-width="1.2" stroke-linecap="round" stroke-linejoin="round" stroke-opacity="0.36"/>
<line x1="465.9" y1="311.4" x2="462.2" y2="311.4" fill="none" stroke="#dfe7ff" stroke-width="1.2" stroke-linecap="round" stroke-linejoin="round" stroke-opacity="0.36"/>
<line x1="465.9" y1="311.4" x2="465.9" y2="307.6" fill="none" stroke="#dfe7ff" stroke-width="1.2" stroke-linecap="round" stroke-linejoin="round" stroke-opacity="0.36"/>
<line x1="199.1" y1="749.8" x2="202.3" y2="749.8" fill="none" stroke="#dfe7ff" stroke-width="1.2" stroke-linecap="round" stroke-linejoin="round" stroke-opacity="0.14"/>
<line x1="199.1" y1="749.8" x2="199.1" y2="753.1" fill="none" stroke="#dfe7ff" stroke-width="1.2" stroke-linecap="round" stroke-linejoin="round" stroke-opacity="0.14"/>
<line x1="199.1" y1="749.8" x2="195.9" y2="749.8" fill="none" stroke="#dfe7ff" stroke-width="1.2" stroke-linecap="round" stroke-linejoin="round" stroke-opacity="0.14"/>
<line x1="199.1" y1="749.8" x2="199.1" y2="746.6" fill="none" stroke="#dfe7ff" stroke-width="1.2" stroke-linecap="round" stroke-linejoin="round" stroke-opacity="0.14"/>
<circle cx="30.5" cy="411.6" r="1.6" fill="#dfe7ff" stroke="none" fill-opacity="0.27"/>
<circle cx="224.9" cy="278.3" r="1.1" fill="#dfe7ff" stroke="none" fill-opacity="0.38"/>
<circle cx="166.0" cy="160.9" r="2.1" fill="#dfe7ff" stroke="none" fill-opacity="0.36"/>
<circle cx="65.6" cy="693.0" r="1.1" fill="#dfe7ff" stroke="none" fill-opacity="0.32"/>
<line x1="285.8" y1="194.5" x2="294.8" y2="194.5" fill="none" stroke="#dfe7ff" stroke-width="1.2" stroke-linecap="round" stroke-linejoin="round" stroke-opacity="0.27"/>
<line x1="285.8" y1="194.5" x2="285.8" y2="203.5" fill="none" stroke="#dfe7ff" stroke-width="1.2" stroke-linecap="round" stroke-linejoin="round" stroke-opacity="0.27"/>
<line x1="285.8" y1="194.5" x2="276.8" y2="194.5" fill="none" stroke="#dfe7ff" stroke-width="1.2" stroke-linecap="round" stroke-linejoin="round" stroke-opacity="0.27"/>
<line x1="285.8" y1="194.5" x2="285.8" y2="185.5" fill="none" stroke="#dfe7ff" stroke-width="1.2" stroke-linecap="round" stroke-linejoin="round" stroke-opacity="0.27"/>
<line x1="207.2" y1="187.3" x2="212.6" y2="187.3" fill="none" stroke="#dfe7ff" stroke-width="1.2" stroke-linecap="round" stroke-linejoin="round" stroke-opacity="0.35"/>
<line x1="207.2" y1="187.3" x2="207.2" y2="192.7" fill="none" stroke="#dfe7ff" stroke-width="1.2" stroke-linecap="round" stroke-linejoin="round" stroke-opacity="0.35"/>
<line x1="207.2" y1="187.3" x2="201.9" y2="187.3" fill="none" stroke="#dfe7ff" stroke-width="1.2" stroke-linecap="round" stroke-linejoin="round" stroke-opacity="0.35"/>
<line x1="207.2" y1="187.3" x2="207.2" y2="181.9" fill="none" stroke="#dfe7ff" stroke-width="1.2" stroke-linecap="round" stroke-linejoin="round" stroke-opacity="0.35"/>
<circle cx="385.5" cy="418.2" r="1.4" fill="#dfe7ff" stroke="none" fill-opacity="0.16"/>
<line x1="180.6" y1="350.8" x2="189.2" y2="350.8" fill="none" stroke="#dfe7ff" stroke-width="1.2" stroke-linecap="round" stroke-linejoin="round" stroke-opacity="0.26"/>
<line x1="180.6" y1="350.8" x2="180.6" y2="359.4" fill="none" stroke="#dfe7ff" stroke-width="1.2" stroke-linecap="round" stroke-linejoin="round" stroke-opacity="0.26"/>
<line x1="180.6" y1="350.8" x2="172.0" y2="350.8" fill="none" stroke="#dfe7ff" stroke-width="1.2" stroke-linecap="round" stroke-linejoin="round" stroke-opacity="0.26"/>
<line x1="180.6" y1="350.8" x2="180.6" y2="342.2" fill="none" stroke="#dfe7ff" stroke-width="1.2" stroke-linecap="round" stroke-linejoin="round" stroke-opacity="0.26"/>
<line x1="55.0" y1="553.2" x2="485.0" y2="553.2" fill="none" stroke="#dfe7ff" stroke-width="2.4" stroke-linecap="round" stroke-linejoin="round" stroke-opacity="0.50"/>
<path d="M 120.0 575.2 L 132.5 579.0 L 145.0 582.3 L 157.5 584.4 L 170.0 585.2 L 182.5 584.4 L 195.0 582.3 L 207.5 579.0 L 220.0 575.2 L 232.5 571.4 L 245.0 568.1 L 257.5 566.0 L 270.0 565.2 L 282.5 566.0 L 295.0 568.1 L 307.5 571.4 L 320.0 575.2 L 332.5 579.0 L 345.0 582.3 L 357.5 584.4 L 370.0 585.2 L 382.5 584.4 L 395.0 582.3 L 407.5 579.0 L 420.0 575.2" fill="none" stroke="#dfe7ff" stroke-width="2.4" stroke-linecap="round" stroke-linejoin="round" stroke-opacity="0.40"/>
<path d="M 120.0 593.2 L 132.5 597.0 L 145.0 600.3 L 157.5 602.4 L 170.0 603.2 L 182.5 602.4 L 195.0 600.3 L 207.5 597.0 L 220.0 593.2 L 232.5 589.4 L 245.0 586.1 L 257.5 584.0 L 270.0 583.2 L 282.5 584.0 L 295.0 586.1 L 307.5 589.4 L 320.0 593.2 L 332.5 597.0 L 345.0 600.3 L 357.5 602.4 L 370.0 603.2 L 382.5 602.4 L 395.0 600.3 L 407.5 597.0 L 420.0 593.2" fill="none" stroke="#dfe7ff" stroke-width="2.4" stroke-linecap="round" stroke-linejoin="round" stroke-opacity="0.40"/>
<circle cx="270.0" cy="386.6" r="25.7" fill="none" stroke="#dfe7ff" stroke-width="2.4" stroke-linecap="round" stroke-linejoin="round"/>
<path d="M 208.2 484.4 C 208.2 439.8 230.1 426.5 252.9 424.6 C 264.3 428.4 275.7 428.4 287.1 424.6 C 309.9 426.5 331.8 439.8 331.8 484.4 Z" fill="none" stroke="#dfe7ff" stroke-width="2.4" stroke-linecap="round" stroke-linejoin="round"/>
<path d="M 270.0 436.9 L 274.7 451.2 L 289.0 455.9 L 274.7 460.7 L 270.0 474.9 L 265.3 460.7 L 251.0 455.9 L 265.3 451.2 Z" fill="none" stroke="#dfe7ff" stroke-width="1.5" stroke-linecap="round" stroke-linejoin="round"/>
<path d="M 270.0 284.2 L 279.6 308.6 L 304.0 318.2 L 279.6 327.8 L 270.0 352.2 L 260.4 327.8 L 236.0 318.2 L 260.4 308.6 Z" fill="none" stroke="#dfe7ff" stroke-width="3.4" stroke-linecap="round" stroke-linejoin="round" stroke-opacity="0.95"/>
<path d="M 98.6 417.9 A 46.4 43.5 0 0 0 191.4 417.9 Z" fill="none" stroke="#dfe7ff" stroke-width="3.4" stroke-linecap="round" stroke-linejoin="round"/>
<line x1="145.0" y1="461.4" x2="145.0" y2="487.5" fill="none" stroke="#dfe7ff" stroke-width="2.4" stroke-linecap="round" stroke-linejoin="round"/>
<line x1="118.9" y1="487.5" x2="171.1" y2="487.5" fill="none" stroke="#dfe7ff" stroke-width="2.4" stroke-linecap="round" stroke-linejoin="round"/>
<path d="M 348.6 417.9 A 46.4 43.5 0 0 0 441.4 417.9 Z" fill="none" stroke="#dfe7ff" stroke-width="3.4" stroke-linecap="round" stroke-linejoin="round"/>
<line x1="395.0" y1="461.4" x2="395.0" y2="487.5" fill="none" stroke="#dfe7ff" stroke-width="2.4" stroke-linecap="round" stroke-linejoin="round"/>
<line x1="368.9" y1="487.5" x2="421.1" y2="487.5" fill="none" stroke="#dfe7ff" stroke-width="2.4" stroke-linecap="round" stroke-linejoin="round"/>
<path d="M 145.0 417.9 Q 270.0 360.2 395.0 417.9" fill="none" stroke="#dfe7ff" stroke-width="2.4" stroke-linecap="round" stroke-linejoin="round" stroke-opacity="0.90"/>
<path d="M 207.5 397.3 C 215.5 406.1 213.1 413.3 207.5 413.3 C 201.9 413.3 199.5 406.1 207.5 397.3 Z" fill="none" stroke="#dfe7ff" stroke-width="2.4" stroke-linecap="round" stroke-linejoin="round" stroke-opacity="0.80"/>
<path d="M 270.0 390.0 C 278.0 398.8 275.6 406.0 270.0 406.0 C 264.4 406.0 262.0 398.8 270.0 390.0 Z" fill="none" stroke="#dfe7ff" stroke-width="2.4" stroke-linecap="round" stroke-linejoin="round" stroke-opacity="0.80"/>
<path d="M 332.5 397.3 C 340.5 406.1 338.1 413.3 332.5 413.3 C 326.9 413.3 324.5 406.1 332.5 397.3 Z" fill="none" stroke="#dfe7ff" stroke-width="2.4" stroke-linecap="round" stroke-linejoin="round" stroke-opacity="0.80"/>
<rect x="16" y="16" width="508" height="928" rx="26" fill="none" stroke="#e6c79c" stroke-width="2.4" stroke-linecap="round" stroke-linejoin="round" stroke-opacity="0.90"/>
<rect x="30" y="30" width="480" height="900" rx="18" fill="none" stroke="#dfe7ff" stroke-width="1.5" stroke-linecap="round" stroke-linejoin="round" stroke-opacity="0.26"/>
<path d="M 52.0 41.0 L 54.3 49.7 L 63.0 52.0 L 54.3 54.3 L 52.0 63.0 L 49.7 54.3 L 41.0 52.0 L 49.7 49.7 Z" fill="none" stroke="#e6c79c" stroke-width="1.6" stroke-linecap="round" stroke-linejoin="round" stroke-opacity="0.80"/>
<path d="M 488.0 41.0 L 490.3 49.7 L 499.0 52.0 L 490.3 54.3 L 488.0 63.0 L 485.7 54.3 L 477.0 52.0 L 485.7 49.7 Z" fill="none" stroke="#e6c79c" stroke-width="1.6" stroke-linecap="round" stroke-linejoin="round" stroke-opacity="0.80"/>
<path d="M 52.0 897.0 L 54.3 905.7 L 63.0 908.0 L 54.3 910.3 L 52.0 919.0 L 49.7 910.3 L 41.0 908.0 L 49.7 905.7 Z" fill="none" stroke="#e6c79c" stroke-width="1.6" stroke-linecap="round" stroke-linejoin="round" stroke-opacity="0.80"/>
<path d="M 488.0 897.0 L 490.3 905.7 L 499.0 908.0 L 490.3 910.3 L 488.0 919.0 L 485.7 910.3 L 477.0 908.0 L 485.7 905.7 Z" fill="none" stroke="#e6c79c" stroke-width="1.6" stroke-linecap="round" stroke-linejoin="round" stroke-opacity="0.80"/>
<text x="270" y="894" text-anchor="middle" fill="#e6c79c" font-family="'Avenir Next', system-ui, sans-serif" font-size="24" letter-spacing="5" font-weight="500">TEMPERANCE</text>
</svg>
