<svg xmlns="http://www.w3.org/2000/svg" viewBox="0 0 540 960" width="540" height="960">
<defs><radialGradient id="bg" cx="50%" cy="36%" r="85%"><stop offset="0%" stop-color="#141b3f"/><stop offset="100%" stop-color="#090e24"/></radialGradient></defs>
<rect x="0" y="0" width="540" height="960" rx="38" fill="url(#bg)"/>
<line x1="412.4" y1="82.8" x2="415.9" y2="82.8" w="1.2" color="#dfe7ff" op="0.32807193219222724"/>
<line x1="412.4" y1="82.8" x2="412.4" y2="86.3" w="1.2" color="#dfe7ff" op="0.32807193219222724"/>
<line x1="412.4" y1="82.8" x2="408.8" y2="82.8" w="1.2" color="#dfe7ff" op="0.32807193219222724"/>
<line x1="412.4" y1="82.8" x2="412.4" y2="79.2" w="1.2" color="#dfe7ff" op="0.32807193219222724"/>
<circle cx="463.2" cy="737.3" r="2.0" fill="#dfe7ff" stroke="none" fill-opacity="0.22"/>
<circle cx="222.4" cy="544.9" r="2.2" fill="#dfe7ff" stroke="none" fill-opacity="0.28"/>
<circle cx="370.1" cy="860.0" r="2.2" fill="#dfe7ff" stroke="none" fill-opacity="0.31"/>
<line x1="120.0" y1="481.8" x2="123.1" y2="481.8" w="1.2" color="#dfe7ff" op="0.36850895645812354"/>
<line x1="120.0" y1="481.8" x2="120.0" y2="484.9" w="1.2" color="#dfe7ff" op="0.36850895645812354"/>
<line x1="120.0" y1="481.8" x2="116.9" y2="481.8" w="1.2" color="#dfe7ff" op="0.36850895645812354"/>
<line x1="120.0" y1="481.8" x2="120.0" y2="478.7" w="1.2" color="#dfe7ff" op="0.36850895645812354"/>
<circle cx="451.3" cy="602.7" r="2.4" fill="#dfe7ff" stroke="none" fill-opacity="0.22"/>
<circle cx="151.8" cy="563.6" r="1.6" fill="#dfe7ff" stroke="none" fill-opacity="0.12"/>
<line x1="177.2" y1="179.5" x2="183.8" y2="179.5" w="1.2" color="#dfe7ff" op="0.11064461950009431"/>
<line x1="177.2" y1="179.5" x2="177.2" y2="186.2" w="1.2" color="#dfe7ff" op="0.11064461950009431"/>
<line x1="177.2" y1="179.5" x2="170.5" y2="179.5" w="1.2" color="#dfe7ff" op="0.11064461950009431"/>
<line x1="177.2" y1="179.5" x2="177.2" y2="172.9" w="1.2" color="#dfe7ff" op="0.11064461950009431"/>
<circle cx="32.7" cy="551.4" r="2.5" fill="#dfe7ff" stroke="none" fill-opacity="0.33"/>
<circle cx="434.3" cy="514.8" r="1.1" fill="#dfe7ff" stroke="none" fill-opacity="0.40"/>
<circle cx="207.8" cy="194.0" r="1.6" fill="#dfe7ff" stroke="none" fill-opacity="0.38"/>
<circle cx="444.3" cy="67.1" r="1.6" fill="#dfe7ff" stroke="none" fill-opacity="0.13"/>
<circle cx="40.3" cy="633.5" r="1.2" fill="#dfe7ff" stroke="none" fill-opacity="0.35"/>
<circle cx="88.2" cy="457.5" r="2.3" fill="#dfe7ff" stroke="none" fill-opacity="0.30"/>
<circle cx="76.2" cy="840.1" r="1.3" fill="#dfe7ff" stroke="none" fill-opacity="0.17"/>
<circle cx="297.4" cy="835.9" r="1.8" fill="#dfe7ff" stroke="none" fill-opacity="0.13"/>
<line x1="258.1" y1="736.2" x2="263.0" y2="736.2" w="1.2" color="#dfe7ff" op="0.17559135512061103"/>
<line x1="258.1" y1="736.2" x2="258.1" y2="741.2" w="1.2" color="#dfe7ff" op="0.17559135512061103"/>
<line x1="258.1" y1="736.2" x2="253.1" y2="736.2" w="1.2" color="#dfe7ff" op="0.17559135512061103"/>
<line x1="258.1" y1="736.2" x2="258.1" y2="731.2" w="1.2" color="#dfe7ff" op="0.17559135512061103"/>
<line x1="217.5" y1="482.2" x2="225.4" y2="482.2" w="1.2" color="#dfe7ff" op="0.2624202668655959"/>
<line x1="217.5" y1="482.2" x2="217.5" y2="490.1" w="1.2" color="#dfe7ff" op="0.2624202668655959"/>
<line x1="217.5" y1="482.2" x2="209.6" y2="482.2" w="1.2" color="#dfe7ff" op="0.2624202668655959"/>
<line x1="217.5" y1="482.2" x2="217.5" y2="474.3" w="1.2" color="#dfe7ff" op="0.2624202668655959"/>
<line x1="466.1" y1="143.6" x2="473.8" y2="143.6" w="1.2" color="#dfe7ff" op="0.1552167238440123"/>
<line x1="466.1" y1="143.6" x2="466.1" y2="151.3" w="1.2" color="#dfe7ff" op="0.1552167238440123"/>
<line x1="466.1" y1="143.6" x2="458.4" y2="143.6" w="1.2" color="#dfe7ff" op="0.1552167238440123"/>
<line x1="466.1" y1="143.6" x2="466.1" y2="135.9" w="1.2" color="#dfe7ff" op="0.1552167238440123"/>
<circle cx="151.7" cy="824.7" r="1.2" fill="#dfe7ff" stroke="none" fill-opacity="0.36"/>
<circle cx="75.8" cy="809.1" r="2.4" fill="#dfe7ff" stroke="none" fill-opacity="0.36"/>
<circle cx="126.5" cy="450.3" r="1.2" fill="#dfe7ff" stroke="none" fill-opacity="0.26"/>
<circle cx="58.7" cy="831.1" r="2.1" fill="#dfe7ff" stroke="none" fill-opacity="0.33"/>
<line x1="412.7" y1="87.1" x2="419.6" y2="87.1" w="1.2" color="#dfe7ff" op="0.1722602222923092"/>
<line x1="412.7" y1="87.1" x2="412.7" y2="94.0" w="1.2" color="#dfe7ff" op="0.1722602222923092"/>
<line x1="412.7" y1="87.1" x2="405.8" y2="87.1" w="1.2" color="#dfe7ff" op="0.1722602222923092"/>
<line x1="412.7" y1="87.1" x2="412.7" y2="80.2" w="1.2" color="#dfe7ff" op="0.1722602222923092"/>
<circle cx="242.6" cy="156.3" r="2.0" fill="#dfe7ff" stroke="none" fill-opacity="0.12"/>
<circle cx="245.1" cy="599.8" r="1.4" fill="#dfe7ff" stroke="none" fill-opacity="0.38"/>
<line x1="458.7" y1="897.6" x2="464.3" y2="897.6" w="1.2" color="#dfe7ff" op="0.2398999609716851"/>
<line x1="458.7" y1="897.6" x2="458.7" y2="903.2" w="1.2" color="#dfe7ff" op="0.2398999609716851"/>
<line x1="458.7" y1="897.6" x2="453.1" y2="897.6" w="1.2" color="#dfe7ff" op="0.2398999609716851"/>
<line x1="458.7" y1="897.6" x2="458.7" y2="892.0" w="1.2" color="#dfe7ff" op="0.2398999609716851"/>
<line x1="90.2" y1="501.9" x2="94.5" y2="501.9" w="1.2" color="#dfe7ff" op="0.37655028476500363"/>
<line x1="90.2" y1="501.9" x2="90.2" y2="506.2" w="1.2" color="#dfe7ff" op="0.37655028476500363"/>
<line x1="90.2" y1="501.9" x2="86.0" y2="501.9" w="1.2" color="#dfe7ff" op="0.37655028476500363"/>
<line x1="90.2" y1="501.9" x2="90.2" y2="497.7" w="1.2" color="#dfe7ff" op="0.37655028476500363"/>
<circle cx="76.8" cy="895.4" r="2.2" fill="#dfe7ff" stroke="none" fill-opacity="0.29"/>
<circle cx="459.6" cy="724.4" r="1.3" fill="#dfe7ff" stroke="none" fill-opacity="0.24"/>
<circle cx="290.3" cy="281.7" r="2.4" fill="#dfe7ff" stroke="none" fill-opacity="0.37"/>
<circle cx="31.1" cy="136.6" r="1.5" fill="#dfe7ff" stroke="none" fill-opacity="0.36"/>
<line x1="319.1" y1="364.2" x2="325.1" y2="364.2" w="1.2" color="#dfe7ff" op="0.26842778624811847"/>
<line x1="319.1" y1="364.2" x2="319.1" y2="370.2" w="1.2" color="#dfe7ff" op="0.26842778624811847"/>
<line x1="319.1" y1="364.2" x2="313.0" y2="364.2" w="1.2" color="#dfe7ff" op="0.26842778624811847"/>
<line x1="319.1" y1="364.2" x2="319.1" y2="358.1" w="1.2" color="#dfe7ff" op="0.26842778624811847"/>
<circle cx="371.1" cy="432.1" r="1.4" fill="#dfe7ff" stroke="none" fill-opacity="0.22"/>
<circle cx="284.6" cy="831.6" r="1.2" fill="#dfe7ff" stroke="none" fill-opacity="0.32"/>
<circle cx="53.1" cy="408.6" r="1.3" fill="#dfe7ff" stroke="none" fill-opacity="0.16"/>
<circle cx="388.4" cy="137.6" r="2.1" fill="#dfe7ff" stroke="none" fill-opacity="0.30"/>
<circle cx="497.3" cy="430.2" r="2.4" fill="#dfe7ff" stroke="none" fill-opacity="0.12"/>
<circle cx="256.0" cy="584.7" r="1.1" fill="#dfe7ff" stroke="none" fill-opacity="0.11"/>
<circle cx="376.6" cy="342.4" r="1.1" fill="#dfe7ff" stroke="none" fill-opacity="0.37"/>
<circle cx="506.1" cy="563.5" r="2.3" fill="#dfe7ff" stroke="none" fill-opacity="0.11"/>
<circle cx="454.3" cy="696.2" r="2.0" fill="#dfe7ff" stroke="none" fill-opacity="0.15"/>
<circle cx="459.4" cy="637.5" r="1.9" fill="#dfe7ff" stroke="none" fill-opacity="0.26"/>
<circle cx="223.5" cy="268.2" r="1.8" fill="#dfe7ff" stroke="none" fill-opacity="0.16"/>
<line x1="417.8" y1="137.2" x2="425.3" y2="137.2" w="1.2" color="#dfe7ff" op="0.3983279312444068"/>
<line x1="417.8" y1="137.2" x2="417.8" y2="144.6" w="1.2" color="#dfe7ff" op="0.3983279312444068"/>
<line x1="417.8" y1="137.2" x2="410.4" y2="137.2" w="1.2" color="#dfe7ff" op="0.3983279312444068"/>
<line x1="417.8" y1="137.2" x2="417.8" y2="129.8" w="1.2" color="#dfe7ff" op="0.3983279312444068"/>
<circle cx="183.4" cy="725.6" r="1.0" fill="#dfe7ff" stroke="none" fill-opacity="0.28"/>
<line x1="66.8" y1="615.9" x2="70.3" y2="615.9" w="1.2" color="#dfe7ff" op="0.12259637118563033"/>
<line x1="66.8" y1="615.9" x2="66.8" y2="619.4" w="1.2" color="#dfe7ff" op="0.12259637118563033"/>
<line x1="66.8" y1="615.9" x2="63.3" y2="615.9" w="1.2" color="#dfe7ff" op="0.12259637118563033"/>
<line x1="66.8" y1="615.9" x2="66.8" y2="612.4" w="1.2" color="#dfe7ff" op="0.12259637118563033"/>
<circle cx="427.4" cy="550.7" r="1.0" fill="#dfe7ff" stroke="none" fill-opacity="0.29"/>
<circle cx="327.9" cy="317.7" r="1.0" fill="#dfe7ff" stroke="none" fill-opacity="0.36"/>
<line x1="293.8" y1="619.5" x2="302.2" y2="619.5" w="1.2" color="#dfe7ff" op="0.3328648161776697"/>
<line x1="293.8" y1="619.5" x2="293.8" y2="627.8" w="1.2" color="#dfe7ff" op="0.3328648161776697"/>
<line x1="293.8" y1="619.5" x2="285.5" y2="619.5" w="1.2" color="#dfe7ff" op="0.3328648161776697"/>
<line x1="293.8" y1="619.5" x2="293.8" y2="611.2" w="1.2" color="#dfe7ff" op="0.3328648161776697"/>
<line x1="243.5" y1="125.8" x2="249.7" y2="125.8" w="1.2" color="#dfe7ff" op="0.1836635831139266"/>
<line x1="243.5" y1="125.8" x2="243.5" y2="131.9" w="1.2" color="#dfe7ff" op="0.1836635831139266"/>
<line x1="243.5" y1="125.8" x2="237.4" y2="125.8" w="1.2" color="#dfe7ff" op="0.1836635831139266"/>
<line x1="243.5" y1="125.8" x2="243.5" y2="119.6" w="1.2" color="#dfe7ff" op="0.1836635831139266"/>
<circle cx="161.0" cy="125.6" r="1.9" fill="#dfe7ff" stroke="none" fill-opacity="0.34"/>
<line x1="348.5" y1="347.5" x2="355.4" y2="347.5" w="1.2" color="#dfe7ff" op="0.18438347109626976"/>
<line x1="348.5" y1="347.5" x2="348.5" y2="354.5" w="1.2" color="#dfe7ff" op="0.18438347109626976"/>
<line x1="348.5" y1="347.5" x2="341.5" y2="347.5" w="1.2" color="#dfe7ff" op="0.18438347109626976"/>
<line x1="348.5" y1="347.5" x2="348.5" y2="340.6" w="1.2" color="#dfe7ff" op="0.18438347109626976"/>
<circle cx="114.7" cy="903.9" r="1.2" fill="#dfe7ff" stroke="none" fill-opacity="0.38"/>
<circle cx="366.3" cy="97.4" r="2.2" fill="#dfe7ff" stroke="none" fill-opacity="0.33"/>
<line x1="407.9" y1="876.2" x2="415.3" y2="876.2" w="1.2" color="#dfe7ff" op="0.39384567841867923"/>
<line x1="407.9" y1="876.2" x2="407.9" y2="883.6" w="1.2" color="#dfe7ff" op="0.39384567841867923"/>
<line x1="407.9" y1="876.2" x2="400.5" y2="876.2" w="1.2" color="#dfe7ff" op="0.39384567841867923"/>
<line x1="407.9" y1="876.2" x2="407.9" y2="868.8" w="1.2" color="#dfe7ff" op="0.39384567841867923"/>
<circle cx="359.9" cy="559.9" r="1.7" fill="#dfe7ff" stroke="none" fill-opacity="0.30"/>
<circle cx="140.0" cy="703.4" r="1.1" fill="#dfe7ff" stroke="none" fill-opacity="0.33"/>
<circle cx="314.7" cy="414.5" r="1.8" fill="#dfe7ff" stroke="none" fill-opacity="0.40"/>
<line x1="139.7" y1="807.5" x2="148.2" y2="807.5" w="1.2" color="#dfe7ff" op="0.1126249757310904"/>
<line x1="139.7" y1="807.5" x2="139.7" y2="816.0" w="1.2" color="#dfe7ff" op="0.1126249757310904"/>
<line x1="139.7" y1="807.5" x2="131.1" y2="807.5" w="1.2" color="#dfe7ff" op="0.1126249757310904"/>
<line x1="139.7" y1="807.5" x2="139.7" y2="798.9" w="1.2" color="#dfe7ff" op="0.1126249757310904"/>
<circle cx="244.3" cy="335.6" r="2.2" fill="#dfe7ff" stroke="none" fill-opacity="0.18"/>
<circle cx="122.6" cy="652.3" r="1.7" fill="#dfe7ff" stroke="none" fill-opacity="0.17"/>
<circle cx="346.8" cy="755.3" r="2.5" fill="#dfe7ff" stroke="none" fill-opacity="0.24"/>
<circle cx="464.3" cy="351.2" r="1.1" fill="#dfe7ff" stroke="none" fill-opacity="0.27"/>
<path d="M 438.0 423.2 L 436.8 429.1 L 433.1 434.7 L 427.3 439.7 L 419.7 444.1 L 410.8 447.5 L 401.0 450.1 L 390.7 451.8 L 380.3 452.7 L 370.0 452.9 L 360.0 452.4 L 350.4 451.4 L 341.2 449.9 L 332.6 448.1 L 324.4 445.9 L 316.7 443.6 L 309.5 441.0 L 302.6 438.4 L 296.0 435.6 L 289.6 432.7 L 283.5 429.8 L 277.4 426.9 L 271.5 423.9 L 265.5 421.0 L 259.6 418.0 L 253.5 415.1 L 247.2 412.2 L 240.8 409.4 L 234.0 406.7 L 226.9 404.1 L 219.5 401.6 L 211.5 399.4 L 203.2 397.4 L 194.3 395.7 L 184.9 394.5 L 175.1 393.7 L 164.9 393.5 L 154.5 394.0 L 144.1 395.3 L 134.0 397.5 L 124.6 400.5 L 116.3 404.4 L 109.6 409.1 L 104.8 414.5 L 102.3 420.2 L 102.3 426.2 L 104.8 431.9 L 109.6 437.3 L 116.3 442.0 L 124.6 445.9 L 134.0 448.9 L 144.1 451.1 L 154.5 452.4 L 164.9 452.9 L 175.1 452.7 L 184.9 451.9 L 194.3 450.7 L 203.2 449.0 L 211.5 447.0 L 219.5 444.8 L 226.9 442.3 L 234.0 439.7 L 240.8 437.0 L 247.2 434.2 L 253.5 431.3 L 259.6 428.4 L 265.5 425.4 L 271.5 422.5 L 277.4 419.5 L 283.5 416.6 L 289.6 413.7 L 296.0 410.8 L 302.6 408.0 L 309.5 405.4 L 316.7 402.8 L 324.4 400.5 L 332.6 398.3 L 341.2 396.5 L 350.4 395.0 L 360.0 394.0 L 370.0 393.5 L 380.3 393.7 L 390.7 394.6 L 401.0 396.3 L 410.8 398.9 L 419.7 402.3 L 427.3 406.7 L 433.1 411.7 L 436.8 417.3 L 438.0 423.2 Z" fill="none" stroke="#dfe7ff" stroke-width="2.4" stroke-linecap="round" stroke-linejoin="round"/>
<circle cx="270.0" cy="423.2" r="5.0" fill="#dfe7ff" stroke="none"/>
<line x1="270.0" y1="283.2" x2="290.0" y2="283.2" w="1.5" color="#dfe7ff" op="0.9"/>
<line x1="270.0" y1="283.2" x2="270.0" y2="303.2" w="1.5" color="#dfe7ff" op="0.9"/>
<line x1="270.0" y1="283.2" x2="250.0" y2="283.2" w="1.5" color="#dfe7ff" op="0.9"/>
<line x1="270.0" y1="283.2" x2="270.0" y2="263.2" w="1.5" color="#dfe7ff" op="0.9"/>
<line x1="270.0" y1="563.2" x2="290.0" y2="563.2" w="1.5" color="#dfe7ff" op="0.9"/>
<line x1="270.0" y1="563.2" x2="270.0" y2="583.2" w="1.5" color="#dfe7ff" op="0.9"/>
<line x1="270.0" y1="563.2" x2="250.0" y2="563.2" w="1.5" color="#dfe7ff" op="0.9"/>
<line x1="270.0" y1="563.2" x2="270.0" y2="543.2" w="1.5" color="#dfe7ff" op="0.9"/>
<line x1="120.0" y1="423.2" x2="140.0" y2="423.2" w="1.5" color="#dfe7ff" op="0.9"/>
<line x1="120.0" y1="423.2" x2="120.0" y2="443.2" w="1.5" color="#dfe7ff" op="0.9"/>
<line x1="120.0" y1="423.2" x2="100.0" y2="423.2" w="1.5" color="#dfe7ff" op="0.9"/>
<line x1="120.0" y1="423.2" x2="120.0" y2="403.2" w="1.5" color="#dfe7ff" op="0.9"/>
<line x1="420.0" y1="423.2" x2="440.0" y2="423.2" w="1.5" color="#dfe7ff" op="0.9"/>
<line x1="420.0" y1="423.2" x2="420.0" y2="443.2" w="1.5" color="#dfe7ff" op="0.9"/>
<line x1="420.0" y1="423.2" x2="400.0" y2="423.2" w="1.5" color="#dfe7ff" op="0.9"/>
<line x1="420.0" y1="423.2" x2="420.0" y2="403.2" w="1.5" color="#dfe7ff" op="0.9"/>
<rect x="16" y="16" width="508" height="928" rx="26" fill="none" stroke="#e6c79c" stroke-width="2.4" stroke-linecap="round" stroke-linejoin="round" stroke-opacity="0.90"/>
<rect x="30" y="30" width="480" height="900" rx="18" fill="none" stroke="#dfe7ff" stroke-width="1.5" stroke-linecap="round" stroke-linejoin="round" stroke-opacity="0.26"/>
<path d="M 52.0 41.0 L 54.3 49.7 L 63.0 52.0 L 54.3 54.3 L 52.0 63.0 L 49.7 54.3 L 41.0 52.0 L 49.7 49.7 Z" fill="none" stroke="#e6c79c" stroke-width="1.6" stroke-linecap="round" stroke-linejoin="round" stroke-opacity="0.80"/>
<path d="M 488.0 41.0 L 490.3 49.7 L 499.0 52.0 L 490.3 54.3 L 488.0 63.0 L 485.7 54.3 L 477.0 52.0 L 485.7 49.7 Z" fill="none" stroke="#e6c79c" stroke-width="1.6" stroke-linecap="round" stroke-linejoin="round" stroke-opacity="0.80"/>
<path d="M 52.0 897.0 L 54.3 905.7 L 63.0 908.0 L 54.3 910.3 L 52.0 919.0 L 49.7 910.3 L 41.0 908.0 L 49.7 905.7 Z" fill="none" stroke="#e6c79c" stroke-width="1.6" stroke-linecap="round" stroke-linejoin="round" stroke-opacity="0.80"/>
<path d="M 488.0 897.0 L 490.3 905.7 L 499.0 908.0 L 490.3 910.3 L 488.0 919.0 L 485.7 910.3 L 477.0 908.0 L 485.7 905.7 Z" fill="none" stroke="#e6c79c" stroke-width="1.6" stroke-linecap="round" stroke-linejoin="round" stroke-opacity="0.80"/>
<text x="270" y="894" text-anchor="middle" fill="#e6c79c" font-family="'Avenir Next', system-ui, sans-serif" font-size="24" letter-spacing="5" font-weight="500">THE MAGICIAN</text>
</svg>
