<svg xmlns="http://www.w3.org/2000/svg" viewBox="0 0 540 960" width="540" height="960">
<defs><radialGradient id="bg" cx="50%" cy="36%" r="85%"><stop offset="0%" stop-color="#141b3f"/><stop offset="100%" stop-color="#090e24"/></radialGradient></defs>
<rect x="0" y="0" width="540" height="960" rx="38" fill="url(#bg)"/>
<line x1="196.4" y1="235.8" x2="201.3" y2="235.8" fill="none" stroke="#dfe7ff" stroke-width="1.2" stroke-linecap="round" stroke-linejoin="round" stroke-opacity="0.10"/>
<line x1="196.4" y1="235.8" x2="196.4" y2="240.7" fill="none" stroke="#dfe7ff" stroke-width="1.2" stroke-linecap="round" stroke-linejoin="round" stroke-opacity="0.10"/>
<line x1="196.4" y1="235.8" x2="191.4" y2="235.8" fill="none" stroke="#dfe7ff" stroke-width="1.2" stroke-linecap="round" stroke-linejoin="round" stroke-opacity="0.10"/>
<line x1="196.4" y1="235.8" x2="196.4" y2="230.8" fill="none" stroke="#dfe7ff" stroke-width="1.2" stroke-linecap="round" stroke-linejoin="round" stroke-opacity="0.10"/>
<line x1="30.3" y1="218.7" x2="35.2" y2="218.7" fill="none" stroke="#dfe7ff" stroke-width="1.2" stroke-linecap="round" stroke-linejoin="round" stroke-opacity="0.26"/>
<line x1="30.3" y1="218.7" x2="30.3" y2="223.6" fill="none" stroke="#dfe7ff" stroke-width="1.2" stroke-linecap="round" stroke-linejoin="round" stroke-opacity="0.26"/>
<line x1="30.3" y1="218.7" x2="25.5" y2="218.7" fill="none" stroke="#dfe7ff" stroke-width="1.2" stroke-linecap="round" stroke-linejoin="round" stroke-opacity="0.26"/>
<line x1="30.3" y1="218.7" x2="30.3" y2="213.9" fill="none" stroke="#dfe7ff" stroke-width="1.2" stroke-linecap="round" stroke-linejoin="round" stroke-opacity="0.26"/>
<circle cx="102.5" cy="93.4" r="1.4" fill="#dfe7ff" stroke="none" fill-opacity="0.36"/>
<line x1="502.2" y1="694.7" x2="505.5" y2="694.7" fill="none" stroke="#dfe7ff" stroke-width="1.2" stroke-linecap="round" stroke-linejoin="round" stroke-opacity="0.33"/>
<line x1="502.2" y1="694.7" x2="502.2" y2="697.9" fill="none" stroke="#dfe7ff" stroke-width="1.2" stroke-linecap="round" stroke-linejoin="round" stroke-opacity="0.33"/>
<line x1="502.2" y1="694.7" x2="499.0" y2="694.7" fill="none" stroke="#dfe7ff" stroke-width="1.2" stroke-linecap="round" stroke-linejoin="round" stroke-opacity="0.33"/>
<line x1="502.2" y1="694.7" x2="502.2" y2="691.4" fill="none" stroke="#dfe7ff" stroke-width="1.2" stroke-linecap="round" stroke-linejoin="round" stroke-opacity="0.33"/>
<circle cx="406.0" cy="920.0" r="2.0" fill="#dfe7ff" stroke="none" fill-opacity="0.40"/>
<circle cx="463.3" cy="748.7" r="1.6" fill="#dfe7ff" stroke="none" fill-opacity="0.21"/>
<circle cx="282.0" cy="399.6" r="2.1" fill="#dfe7ff" stroke="none" fill-opacity="0.29"/>
<circle cx="251.1" cy="882.5" r="2.6" fill="#dfe7ff" stroke="none" fill-opacity="0.26"/>
<line x1="430.7" y1="562.8" x2="436.0" y2="562.8" fill="none" stroke="#dfe7ff" stroke-width="1.2" stroke-linecap="round" stroke-linejoin="round" stroke-opacity="0.26"/>
<line x1="430.7" y1="562.8" x2="430.7" y2="568.1" fill="none" stroke="#dfe7ff" stroke-width="1.2" stroke-linecap="round" stroke-linejoin="round" stroke-opacity="0.26"/>
<line x1="430.7" y1="562.8" x2="425.4" y2="562.8" fill="none" stroke="#dfe7ff" stroke-width="1.2" stroke-linecap="round" stroke-linejoin="round" stroke-opacity="0.26"/>
<line x1="430.7" y1="562.8" x2="430.7" y2="557.5" fill="none" stroke="#dfe7ff" stroke-width="1.2" stroke-linecap="round" stroke-linejoin="round" stroke-opacity="0.26"/>
<line x1="109.3" y1="354.2" x2="118.1" y2="354.2" fill="none" stroke="#dfe7ff" stroke-width="1.2" stroke-linecap="round" stroke-linejoin="round" stroke-opacity="0.12"/>
<line x1="109.3" y1="354.2" x2="109.3" y2="363.0" fill="none" stroke="#dfe7ff" stroke-width="1.2" stroke-linecap="round" stroke-linejoin="round" stroke-opacity="0.12"/>
<line x1="109.3" y1="354.2" x2="100.5" y2="354.2" fill="none" stroke="#dfe7ff" stroke-width="1.2" stroke-linecap="round" stroke-linejoin="round" stroke-opacity="0.12"/>
<line x1="109.3" y1="354.2" x2="109.3" y2="345.5" fill="none" stroke="#dfe7ff" stroke-width="1.2" stroke-linecap="round" stroke-linejoin="round" stroke-opacity="0.12"/>
<line x1="71.2" y1="86.1" x2="77.6" y2="86.1" fill="none" stroke="#dfe7ff" stroke-width="1.2" stroke-linecap="round" stroke-linejoin="round" stroke-opacity="0.24"/>
<line x1="71.2" y1="86.1" x2="71.2" y2="92.5" fill="none" stroke="#dfe7ff" stroke-width="1.2" stroke-linecap="round" stroke-linejoin="round" stroke-opacity="0.24"/>
<line x1="71.2" y1="86.1" x2="64.8" y2="86.1" fill="none" stroke="#dfe7ff" stroke-width="1.2" stroke-linecap="round" stroke-linejoin="round" stroke-opacity="0.24"/>
<line x1="71.2" y1="86.1" x2="71.2" y2="79.7" fill="none" stroke="#dfe7ff" stroke-width="1.2" stroke-linecap="round" stroke-linejoin="round" stroke-opacity="0.24"/>
<circle cx="98.7" cy="842.5" r="1.7" fill="#dfe7ff" stroke="none" fill-opacity="0.22"/>
<circle cx="243.2" cy="101.3" r="1.5" fill="#dfe7ff" stroke="none" fill-opacity="0.21"/>
<line x1="225.6" y1="185.0" x2="229.9" y2="185.0" fill="none" stroke="#dfe7ff" stroke-width="1.2" stroke-linecap="round" stroke-linejoin="round" stroke-opacity="0.22"/>
<line x1="225.6" y1="185.0" x2="225.6" y2="189.3" fill="none" stroke="#dfe7ff" stroke-width="1.2" stroke-linecap="round" stroke-linejoin="round" stroke-opacity="0.22"/>
<line x1="225.6" y1="185.0" x2="221.3" y2="185.0" fill="none" stroke="#dfe7ff" stroke-width="1.2" stroke-linecap="round" stroke-linejoin="round" stroke-opacity="0.22"/>
<line x1="225.6" y1="185.0" x2="225.6" y2="180.6" fill="none" stroke="#dfe7ff" stroke-width="1.2" stroke-linecap="round" stroke-linejoin="round" stroke-opacity="0.22"/>
<circle cx="300.4" cy="87.5" r="1.6" fill="#dfe7ff" stroke="none" fill-opacity="0.25"/>
<circle cx="35.4" cy="276.0" r="1.2" fill="#dfe7ff" stroke="none" fill-opacity="0.26"/>
<circle cx="154.8" cy="106.5" r="2.5" fill="#dfe7ff" stroke="none" fill-opacity="0.32"/>
<circle cx="446.3" cy="280.5" r="1.8" fill="#dfe7ff" stroke="none" fill-opacity="0.33"/>
<line x1="398.4" y1="510.8" x2="405.2" y2="510.8" fill="none" stroke="#dfe7ff" stroke-width="1.2" stroke-linecap="round" stroke-linejoin="round" stroke-opacity="0.14"/>
<line x1="398.4" y1="510.8" x2="398.4" y2="517.6" fill="none" stroke="#dfe7ff" stroke-width="1.2" stroke-linecap="round" stroke-linejoin="round" stroke-opacity="0.14"/>
<line x1="398.4" y1="510.8" x2="391.6" y2="510.8" fill="none" stroke="#dfe7ff" stroke-width="1.2" stroke-linecap="round" stroke-linejoin="round" stroke-opacity="0.14"/>
<line x1="398.4" y1="510.8" x2="398.4" y2="504.0" fill="none" stroke="#dfe7ff" stroke-width="1.2" stroke-linecap="round" stroke-linejoin="round" stroke-opacity="0.14"/>
<circle cx="152.8" cy="158.0" r="2.2" fill="#dfe7ff" stroke="none" fill-opacity="0.35"/>
<circle cx="117.8" cy="743.2" r="1.6" fill="#dfe7ff" stroke="none" fill-opacity="0.33"/>
<circle cx="122.0" cy="603.7" r="2.5" fill="#dfe7ff" stroke="none" fill-opacity="0.34"/>
<line x1="429.9" y1="784.4" x2="435.5" y2="784.4" fill="none" stroke="#dfe7ff" stroke-width="1.2" stroke-linecap="round" stroke-linejoin="round" stroke-opacity="0.15"/>
<line x1="429.9" y1="784.4" x2="429.9" y2="790.1" fill="none" stroke="#dfe7ff" stroke-width="1.2" stroke-linecap="round" stroke-linejoin="round" stroke-opacity="0.15"/>
<line x1="429.9" y1="784.4" x2="424.2" y2="784.4" fill="none" stroke="#dfe7ff" stroke-width="1.2" stroke-linecap="round" stroke-linejoin="round" stroke-opacity="0.15"/>
<line x1="429.9" y1="784.4" x2="429.9" y2="778.8" fill="none" stroke="#dfe7ff" stroke-width="1.2" stroke-linecap="round" stroke-linejoin="round" stroke-opacity="0.15"/>
<line x1="94.0" y1="723.3" x2="102.3" y2="723.3" fill="none" stroke="#dfe7ff" stroke-width="1.2" stroke-linecap="round" stroke-linejoin="round" stroke-opacity="0.24"/>
<line x1="94.0" y1="723.3" x2="94.0" y2="731.5" fill="none" stroke="#dfe7ff" stroke-width="1.2" stroke-linecap="round" stroke-linejoin="round" stroke-opacity="0.24"/>
<line x1="94.0" y1="723.3" x2="85.8" y2="723.3" fill="none" stroke="#dfe7ff" stroke-width="1.2" stroke-linecap="round" stroke-linejoin="round" stroke-opacity="0.24"/>
<line x1="94.0" y1="723.3" x2="94.0" y2="715.0" fill="none" stroke="#dfe7ff" stroke-width="1.2" stroke-linecap="round" stroke-linejoin="round" stroke-opacity="0.24"/>
<circle cx="269.0" cy="118.8" r="2.5" fill="#dfe7ff" stroke="none" fill-opacity="0.19"/>
<circle cx="111.2" cy="765.3" r="1.6" fill="#dfe7ff" stroke="none" fill-opacity="0.35"/>
<circle cx="48.3" cy="360.0" r="2.0" fill="#dfe7ff" stroke="none" fill-opacity="0.16"/>
<circle cx="122.4" cy="441.8" r="2.5" fill="#dfe7ff" stroke="none" fill-opacity="0.16"/>
<circle cx="283.6" cy="492.8" r="1.7" fill="#dfe7ff" stroke="none" fill-opacity="0.36"/>
<circle cx="351.3" cy="521.6" r="1.1" fill="#dfe7ff" stroke="none" fill-opacity="0.24"/>
<line x1="364.4" y1="675.5" x2="369.7" y2="675.5" fill="none" stroke="#dfe7ff" stroke-width="1.2" stroke-linecap="round" stroke-linejoin="round" stroke-opacity="0.11"/>
<line x1="364.4" y1="675.5" x2="364.4" y2="680.8" fill="none" stroke="#dfe7ff" stroke-width="1.2" stroke-linecap="round" stroke-linejoin="round" stroke-opacity="0.11"/>
<line x1="364.4" y1="675.5" x2="359.0" y2="675.5" fill="none" stroke="#dfe7ff" stroke-width="1.2" stroke-linecap="round" stroke-linejoin="round" stroke-opacity="0.11"/>
<line x1="364.4" y1="675.5" x2="364.4" y2="670.2" fill="none" stroke="#dfe7ff" stroke-width="1.2" stroke-linecap="round" stroke-linejoin="round" stroke-opacity="0.11"/>
<circle cx="280.4" cy="664.6" r="1.7" fill="#dfe7ff" stroke="none" fill-opacity="0.37"/>
<circle cx="277.4" cy="446.6" r="1.2" fill="#dfe7ff" stroke="none" fill-opacity="0.36"/>
<circle cx="172.7" cy="301.4" r="1.1" fill="#dfe7ff" stroke="none" fill-opacity="0.16"/>
<line x1="435.6" y1="783.2" x2="442.5" y2="783.2" fill="none" stroke="#dfe7ff" stroke-width="1.2" stroke-linecap="round" stroke-linejoin="round" stroke-opacity="0.24"/>
<line x1="435.6" y1="783.2" x2="435.6" y2="790.1" fill="none" stroke="#dfe7ff" stroke-width="1.2" stroke-linecap="round" stroke-linejoin="round" stroke-opacity="0.24"/>
<line x1="435.6" y1="783.2" x2="428.7" y2="783.2" fill="none" stroke="#dfe7ff" stroke-width="1.2" stroke-linecap="round" stroke-linejoin="round" stroke-opacity="0.24"/>
<line x1="435.6" y1="783.2" x2="435.6" y2="776.3" fill="none" stroke="#dfe7ff" stroke-width="1.2" stroke-linecap="round" stroke-linejoin="round" stroke-opacity="0.24"/>
<line x1="82.8" y1="157.1" x2="89.9" y2="157.1" fill="none" stroke="#dfe7ff" stroke-width="1.2" stroke-linecap="round" stroke-linejoin="round" stroke-opacity="0.13"/>
<line x1="82.8" y1="157.1" x2="82.8" y2="164.1" fill="none" stroke="#dfe7ff" stroke-width="1.2" stroke-linecap="round" stroke-linejoin="round" stroke-opacity="0.13"/>
<line x1="82.8" y1="157.1" x2="75.8" y2="157.1" fill="none" stroke="#dfe7ff" stroke-width="1.2" stroke-linecap="round" stroke-linejoin="round" stroke-opacity="0.13"/>
<line x1="82.8" y1="157.1" x2="82.8" y2="150.0" fill="none" stroke="#dfe7ff" stroke-width="1.2" stroke-linecap="round" stroke-linejoin="round" stroke-opacity="0.13"/>
<line x1="37.8" y1="219.7" x2="42.0" y2="219.7" fill="none" stroke="#dfe7ff" stroke-width="1.2" stroke-linecap="round" stroke-linejoin="round" stroke-opacity="0.37"/>
<line x1="37.8" y1="219.7" x2="37.8" y2="223.8" fill="none" stroke="#dfe7ff" stroke-width="1.2" stroke-linecap="round" stroke-linejoin="round" stroke-opacity="0.37"/>
<line x1="37.8" y1="219.7" x2="33.6" y2="219.7" fill="none" stroke="#dfe7ff" stroke-width="1.2" stroke-linecap="round" stroke-linejoin="round" stroke-opacity="0.37"/>
<line x1="37.8" y1="219.7" x2="37.8" y2="215.5" fill="none" stroke="#dfe7ff" stroke-width="1.2" stroke-linecap="round" stroke-linejoin="round" stroke-opacity="0.37"/>
<circle cx="423.9" cy="32.7" r="1.3" fill="#dfe7ff" stroke="none" fill-opacity="0.15"/>
<line x1="130.1" y1="742.7" x2="137.5" y2="742.7" fill="none" stroke="#dfe7ff" stroke-width="1.2" stroke-linecap="round" stroke-linejoin="round" stroke-opacity="0.22"/>
<line x1="130.1" y1="742.7" x2="130.1" y2="750.1" fill="none" stroke="#dfe7ff" stroke-width="1.2" stroke-linecap="round" stroke-linejoin="round" stroke-opacity="0.22"/>
<line x1="130.1" y1="742.7" x2="122.6" y2="742.7" fill="none" stroke="#dfe7ff" stroke-width="1.2" stroke-linecap="round" stroke-linejoin="round" stroke-opacity="0.22"/>
<line x1="130.1" y1="742.7" x2="130.1" y2="735.3" fill="none" stroke="#dfe7ff" stroke-width="1.2" stroke-linecap="round" stroke-linejoin="round" stroke-opacity="0.22"/>
<line x1="408.5" y1="919.0" x2="417.1" y2="919.0" fill="none" stroke="#dfe7ff" stroke-width="1.2" stroke-linecap="round" stroke-linejoin="round" stroke-opacity="0.25"/>
<line x1="408.5" y1="919.0" x2="408.5" y2="927.6" fill="none" stroke="#dfe7ff" stroke-width="1.2" stroke-linecap="round" stroke-linejoin="round" stroke-opacity="0.25"/>
<line x1="408.5" y1="919.0" x2="399.8" y2="919.0" fill="none" stroke="#dfe7ff" stroke-width="1.2" stroke-linecap="round" stroke-linejoin="round" stroke-opacity="0.25"/>
<line x1="408.5" y1="919.0" x2="408.5" y2="910.4" fill="none" stroke="#dfe7ff" stroke-width="1.2" stroke-linecap="round" stroke-linejoin="round" stroke-opacity="0.25"/>
<circle cx="272.8" cy="111.4" r="1.9" fill="#dfe7ff" stroke="none" fill-opacity="0.19"/>
<circle cx="297.6" cy="852.0" r="2.1" fill="#dfe7ff" stroke="none" fill-opacity="0.39"/>
<circle cx="75.1" cy="642.2" r="1.7" fill="#dfe7ff" stroke="none" fill-opacity="0.38"/>
<line x1="225.2" y1="909.3" x2="230.8" y2="909.3" fill="none" stroke="#dfe7ff" stroke-width="1.2" stroke-linecap="round" stroke-linejoin="round" stroke-opacity="0.31"/>
<line x1="225.2" y1="909.3" x2="225.2" y2="914.9" fill="none" stroke="#dfe7ff" stroke-width="1.2" stroke-linecap="round" stroke-linejoin="round" stroke-opacity="0.31"/>
<line x1="225.2" y1="909.3" x2="219.6" y2="909.3" fill="none" stroke="#dfe7ff" stroke-width="1.2" stroke-linecap="round" stroke-linejoin="round" stroke-opacity="0.31"/>
<line x1="225.2" y1="909.3" x2="225.2" y2="903.7" fill="none" stroke="#dfe7ff" stroke-width="1.2" stroke-linecap="round" stroke-linejoin="round" stroke-opacity="0.31"/>
<circle cx="229.1" cy="492.5" r="1.0" fill="#dfe7ff" stroke="none" fill-opacity="0.40"/>
<line x1="508.3" y1="780.5" x2="515.0" y2="780.5" fill="none" stroke="#dfe7ff" stroke-width="1.2" stroke-linecap="round" stroke-linejoin="round" stroke-opacity="0.35"/>
<line x1="508.3" y1="780.5" x2="508.3" y2="787.2" fill="none" stroke="#dfe7ff" stroke-width="1.2" stroke-linecap="round" stroke-linejoin="round" stroke-opacity="0.35"/>
<line x1="508.3" y1="780.5" x2="501.6" y2="780.5" fill="none" stroke="#dfe7ff" stroke-width="1.2" stroke-linecap="round" stroke-linejoin="round" stroke-opacity="0.35"/>
<line x1="508.3" y1="780.5" x2="508.3" y2="773.8" fill="none" stroke="#dfe7ff" stroke-width="1.2" stroke-linecap="round" stroke-linejoin="round" stroke-opacity="0.35"/>
<circle cx="289.2" cy="920.6" r="1.2" fill="#dfe7ff" stroke="none" fill-opacity="0.33"/>
<circle cx="343.7" cy="676.9" r="1.6" fill="#dfe7ff" stroke="none" fill-opacity="0.27"/>
<circle cx="111.8" cy="838.5" r="2.1" fill="#dfe7ff" stroke="none" fill-opacity="0.33"/>
<line x1="453.0" y1="400.5" x2="461.3" y2="400.5" fill="none" stroke="#dfe7ff" stroke-width="1.2" stroke-linecap="round" stroke-linejoin="round" stroke-opacity="0.15"/>
<line x1="453.0" y1="400.5" x2="453.0" y2="408.8" fill="none" stroke="#dfe7ff" stroke-width="1.2" stroke-linecap="round" stroke-linejoin="round" stroke-opacity="0.15"/>
<line x1="453.0" y1="400.5" x2="444.7" y2="400.5" fill="none" stroke="#dfe7ff" stroke-width="1.2" stroke-linecap="round" stroke-linejoin="round" stroke-opacity="0.15"/>
<line x1="453.0" y1="400.5" x2="453.0" y2="392.2" fill="none" stroke="#dfe7ff" stroke-width="1.2" stroke-linecap="round" stroke-linejoin="round" stroke-opacity="0.15"/>
<line x1="254.1" y1="564.9" x2="261.1" y2="564.9" fill="none" stroke="#dfe7ff" stroke-width="1.2" stroke-linecap="round" stroke-linejoin="round" stroke-opacity="0.25"/>
<line x1="254.1" y1="564.9" x2="254.1" y2="571.9" fill="none" stroke="#dfe7ff" stroke-width="1.2" stroke-linecap="round" stroke-linejoin="round" stroke-opacity="0.25"/>
<line x1="254.1" y1="564.9" x2="247.0" y2="564.9" fill="none" stroke="#dfe7ff" stroke-width="1.2" stroke-linecap="round" stroke-linejoin="round" stroke-opacity="0.25"/>
<line x1="254.1" y1="564.9" x2="254.1" y2="557.9" fill="none" stroke="#dfe7ff" stroke-width="1.2" stroke-linecap="round" stroke-linejoin="round" stroke-opacity="0.25"/>
<circle cx="314.3" cy="648.0" r="2.0" fill="#dfe7ff" stroke="none" fill-opacity="0.27"/>
<circle cx="364.9" cy="179.5" r="1.4" fill="#dfe7ff" stroke="none" fill-opacity="0.17"/>
<circle cx="97.0" cy="202.2" r="1.0" fill="#dfe7ff" stroke="none" fill-opacity="0.25"/>
<circle cx="447.7" cy="63.4" r="2.0" fill="#dfe7ff" stroke="none" fill-opacity="0.28"/>
<circle cx="385.7" cy="632.8" r="2.2" fill="#dfe7ff" stroke="none" fill-opacity="0.20"/>
<line x1="445.9" y1="339.2" x2="450.4" y2="339.2" fill="none" stroke="#dfe7ff" stroke-width="1.2" stroke-linecap="round" stroke-linejoin="round" stroke-opacity="0.22"/>
<line x1="445.9" y1="339.2" x2="445.9" y2="343.7" fill="none" stroke="#dfe7ff" stroke-width="1.2" stroke-linecap="round" stroke-linejoin="round" stroke-opacity="0.22"/>
<line x1="445.9" y1="339.2" x2="441.5" y2="339.2" fill="none" stroke="#dfe7ff" stroke-width="1.2" stroke-linecap="round" stroke-linejoin="round" stroke-opacity="0.22"/>
<line x1="445.9" y1="339.2" x2="445.9" y2="334.8" fill="none" stroke="#dfe7ff" stroke-width="1.2" stroke-linecap="round" stroke-linejoin="round" stroke-opacity="0.22"/>
<circle cx="57.9" cy="404.1" r="1.9" fill="#dfe7ff" stroke="none" fill-opacity="0.12"/>
<circle cx="64.5" cy="885.5" r="1.6" fill="#dfe7ff" stroke="none" fill-opacity="0.29"/>
<line x1="252.4" y1="315.8" x2="258.3" y2="315.8" fill="none" stroke="#dfe7ff" stroke-width="1.2" stroke-linecap="round" stroke-linejoin="round" stroke-opacity="0.19"/>
<line x1="252.4" y1="315.8" x2="252.4" y2="321.7" fill="none" stroke="#dfe7ff" stroke-width="1.2" stroke-linecap="round" stroke-linejoin="round" stroke-opacity="0.19"/>
<line x1="252.4" y1="315.8" x2="246.5" y2="315.8" fill="none" stroke="#dfe7ff" stroke-width="1.2" stroke-linecap="round" stroke-linejoin="round" stroke-opacity="0.19"/>
<line x1="252.4" y1="315.8" x2="252.4" y2="309.9" fill="none" stroke="#dfe7ff" stroke-width="1.2" stroke-linecap="round" stroke-linejoin="round" stroke-opacity="0.19"/>
<circle cx="351.9" cy="80.8" r="2.1" fill="#dfe7ff" stroke="none" fill-opacity="0.38"/>
<circle cx="386.7" cy="321.8" r="1.2" fill="#dfe7ff" stroke="none" fill-opacity="0.22"/>
<circle cx="432.7" cy="627.6" r="1.2" fill="#dfe7ff" stroke="none" fill-opacity="0.15"/>
<circle cx="387.6" cy="702.4" r="2.1" fill="#dfe7ff" stroke="none" fill-opacity="0.35"/>
<line x1="55.0" y1="521.2" x2="485.0" y2="521.2" fill="none" stroke="#dfe7ff" stroke-width="2.4" stroke-linecap="round" stroke-linejoin="round" stroke-opacity="0.50"/>
<circle cx="108.0" cy="457.2" r="40.0" fill="none" stroke="#dfe7ff" stroke-width="2.4" stroke-linecap="round" stroke-linejoin="round" stroke-opacity="0.85"/>
<line x1="108.0" y1="521.2" x2="108.0" y2="497.2" fill="none" stroke="#dfe7ff" stroke-width="2.4" stroke-linecap="round" stroke-linejoin="round" stroke-opacity="0.85"/>
<line x1="108.0" y1="521.2" x2="88.0" y2="526.0" fill="none" stroke="#dfe7ff" stroke-width="1.5" stroke-linecap="round" stroke-linejoin="round" stroke-opacity="0.68"/>
<line x1="108.0" y1="521.2" x2="128.0" y2="526.0" fill="none" stroke="#dfe7ff" stroke-width="1.5" stroke-linecap="round" stroke-linejoin="round" stroke-opacity="0.68"/>
<circle cx="94.0" cy="447.2" r="3.0" fill="#dfe7ff" stroke="none" fill-opacity="0.68"/>
<circle cx="120.0" cy="441.2" r="3.0" fill="#dfe7ff" stroke="none" fill-opacity="0.68"/>
<circle cx="106.0" cy="469.2" r="3.0" fill="#dfe7ff" stroke="none" fill-opacity="0.68"/>
<circle cx="122.0" cy="463.2" r="3.0" fill="#dfe7ff" stroke="none" fill-opacity="0.68"/>
<path d="M 408.1 521.2 C 392.6 493.3 417.4 487.1 424.8 479.0 C 434.8 466.6 447.2 460.4 442.2 471.6 C 439.1 479.0 443.4 484.0 449.6 489.0 C 459.6 497.6 470.1 507.6 463.9 521.2 C 448.4 531.1 423.6 531.1 408.1 521.2 Z" fill="none" stroke="#dfe7ff" stroke-width="2.4" stroke-linecap="round" stroke-linejoin="round" stroke-opacity="0.85"/>
<path d="M 434.8 481.5 C 450.9 499.3 446.0 513.8 434.8 513.8 C 423.5 513.8 418.6 499.3 434.8 481.5 Z" fill="none" stroke="#dfe7ff" stroke-width="2.4" stroke-linecap="round" stroke-linejoin="round" stroke-opacity="0.72"/>
<line x1="436.0" y1="521.2" x2="392.6" y2="516.2" fill="none" stroke="#dfe7ff" stroke-width="1.5" stroke-linecap="round" stroke-linejoin="round" stroke-opacity="0.68"/>
<line x1="436.0" y1="521.2" x2="479.4" y2="516.2" fill="none" stroke="#dfe7ff" stroke-width="1.5" stroke-linecap="round" stroke-linejoin="round" stroke-opacity="0.68"/>
<circle cx="208.0" cy="438.8" r="21.6" fill="none" stroke="#dfe7ff" stroke-width="2.4" stroke-linecap="round" stroke-linejoin="round"/>
<path d="M 156.0 521.2 C 156.0 483.6 174.4 472.4 193.6 470.8 C 203.2 474.0 212.8 474.0 222.4 470.8 C 241.6 472.4 260.0 483.6 260.0 521.2 Z" fill="none" stroke="#dfe7ff" stroke-width="2.4" stroke-linecap="round" stroke-linejoin="round"/>
<circle cx="332.0" cy="438.8" r="21.6" fill="none" stroke="#dfe7ff" stroke-width="2.4" stroke-linecap="round" stroke-linejoin="round"/>
<path d="M 280.0 521.2 C 280.0 483.6 298.4 472.4 317.6 470.8 C 327.2 474.0 336.8 474.0 346.4 470.8 C 365.6 472.4 384.0 483.6 384.0 521.2 Z" fill="none" stroke="#dfe7ff" stroke-width="2.4" stroke-linecap="round" stroke-linejoin="round"/>
<path d="M 182.0 452.8 A 26 38 0 0 1 234.0 452.8" fill="none" stroke="#dfe7ff" stroke-width="1.5" stroke-linecap="round" stroke-linejoin="round" stroke-opacity="0.90"/>
<path d="M 254.6 316.7 C 237.0 299.1 223.2 280.9 206.8 286.4 C 230.4 302.9 239.8 330.4 251.3 343.1" fill="none" stroke="#dfe7ff" stroke-width="2.4" stroke-linecap="round" stroke-linejoin="round"/>
<line x1="252.4" y1="318.9" x2="217.8" y2="295.8" fill="none" stroke="#dfe7ff" stroke-width="1.5" stroke-linecap="round" stroke-linejoin="round" stroke-opacity="0.70"/>
<path d="M 285.4 316.7 C 303.0 299.1 316.8 280.9 333.2 286.4 C 309.6 302.9 300.2 330.4 288.7 343.1" fill="none" stroke="#dfe7ff" stroke-width="2.4" stroke-linecap="round" stroke-linejoin="round"/>
<line x1="287.6" y1="318.9" x2="322.2" y2="295.8" fill="none" stroke="#dfe7ff" stroke-width="1.5" stroke-linecap="round" stroke-linejoin="round" stroke-opacity="0.70"/>
<circle cx="270.0" cy="317.8" r="14.9" fill="none" stroke="#dfe7ff" stroke-width="2.4" stroke-linecap="round" stroke-linejoin="round"/>
<path d="M 234.2 374.4 C 234.2 348.6 246.9 340.9 260.1 339.8 C 266.7 342.0 273.3 342.0 279.9 339.8 C 293.1 340.9 305.8 348.6 305.8 374.4 Z" fill="none" stroke="#dfe7ff" stroke-width="2.4" stroke-linecap="round" stroke-linejoin="round"/>
<path d="M 270.0 270.9 L 273.4 279.6 L 282.0 282.9 L 273.4 286.3 L 270.0 294.9 L 266.6 286.3 L 258.0 282.9 L 266.6 279.6 Z" fill="none" stroke="#dfe7ff" stroke-width="1.5" stroke-linecap="round" stroke-linejoin="round" stroke-opacity="0.90"/>
<rect x="16" y="16" width="508" height="928" rx="26" fill="none" stroke="#e6c79c" stroke-width="2.4" stroke-linecap="round" stroke-linejoin="round" stroke-opacity="0.90"/>
<rect x="30" y="30" width="480" height="900" rx="18" fill="none" stroke="#dfe7ff" stroke-width="1.5" stroke-linecap="round" stroke-linejoin="round" stroke-opacity="0.26"/>
<path d="M 52.0 41.0 L 54.3 49.7 L 63.0 52.0 L 54.3 54.3 L 52.0 63.0 L 49.7 54.3 L 41.0 52.0 L 49.7 49.7 Z" fill="none" stroke="#e6c79c" stroke-width="1.6" stroke-linecap="round" stroke-linejoin="round" stroke-opacity="0.80"/>
<path d="M 488.0 41.0 L 490.3 49.7 L 499.0 52.0 L 490.3 54.3 L 488.0 63.0 L 485.7 54.3 L 477.0 52.0 L 485.7 49.7 Z" fill="none" stroke="#e6c79c" stroke-width="1.6" stroke-linecap="round" stroke-linejoin="round" stroke-opacity="0.80"/>
<path d="M 52.0 897.0 L 54.3 905.7 L 63.0 908.0 L 54.3 910.3 L 52.0 919.0 L 49.7 910.3 L 41.0 908.0 L 49.7 905.7 Z" fill="none" stroke="#e6c79c" stroke-width="1.6" stroke-linecap="round" stroke-linejoin="round" stroke-opacity="0.80"/>
<path d="M 488.0 897.0 L 490.3 905.7 L 499.0 908.0 L 490.3 910.3 L 488.0 919.0 L 485.7 910.3 L 477.0 908.0 L 485.7 905.7 Z" fill="none" stroke="#e6c79c" stroke-width="1.6" stroke-linecap="round" stroke-linejoin="round" stroke-opacity="0.80"/>
<text x="270" y="894" text-anchor="middle" fill="#e6c79c" font-family="'Avenir Next', system-ui, sans-serif" font-size="24" letter-spacing="5" font-weight="500">THE LOVERS</text>
</svg>
