<svg xmlns="http://www.w3.org/2000/svg" viewBox="0 0 540 960" width="540" height="960">
<defs><radialGradient id="bg" cx="50%" cy="36%" r="85%"><stop offset="0%" stop-color="#141b3f"/><stop offset="100%" stop-color="#090e24"/></radialGradient></defs>
<rect x="0" y="0" width="540" height="960" rx="38" fill="url(#bg)"/>
<line x1="412.4" y1="82.8" x2="415.9" y2="82.8" fill="none" stroke="#dfe7ff" stroke-width="1.2" stroke-linecap="round" stroke-linejoin="round" stroke-opacity="0.33"/>
<line x1="412.4" y1="82.8" x2="412.4" y2="86.3" fill="none" stroke="#dfe7ff" stroke-width="1.2" stroke-linecap="round" stroke-linejoin="round" stroke-opacity="0.33"/>
<line x1="412.4" y1="82.8" x2="408.8" y2="82.8" fill="none" stroke="#dfe7ff" stroke-width="1.2" stroke-linecap="round" stroke-linejoin="round" stroke-opacity="0.33"/>
<line x1="412.4" y1="82.8" x2="412.4" y2="79.2" fill="none" stroke="#dfe7ff" stroke-width="1.2" stroke-linecap="round" stroke-linejoin="round" stroke-opacity="0.33"/>
<circle cx="463.2" cy="737.3" r="2.0" fill="#dfe7ff" stroke="none" fill-opacity="0.22"/>
<circle cx="222.4" cy="544.9" r="2.2" fill="#dfe7ff" stroke="none" fill-opacity="0.28"/>
<circle cx="370.1" cy="860.0" r="2.2" fill="#dfe7ff" stroke="none" fill-opacity="0.31"/>
<line x1="120.0" y1="481.8" x2="123.1" y2="481.8" fill="none" stroke="#dfe7ff" stroke-width="1.2" stroke-linecap="round" stroke-linejoin="round" stroke-opacity="0.37"/>
<line x1="120.0" y1="481.8" x2="120.0" y2="484.9" fill="none" stroke="#dfe7ff" stroke-width="1.2" stroke-linecap="round" stroke-linejoin="round" stroke-opacity="0.37"/>
<line x1="120.0" y1="481.8" x2="116.9" y2="481.8" fill="none" stroke="#dfe7ff" stroke-width="1.2" stroke-linecap="round" stroke-linejoin="round" stroke-opacity="0.37"/>
<line x1="120.0" y1="481.8" x2="120.0" y2="478.7" fill="none" stroke="#dfe7ff" stroke-width="1.2" stroke-linecap="round" stroke-linejoin="round" stroke-opacity="0.37"/>
<circle cx="451.3" cy="602.7" r="2.4" fill="#dfe7ff" stroke="none" fill-opacity="0.22"/>
<circle cx="151.8" cy="563.6" r="1.6" fill="#dfe7ff" stroke="none" fill-opacity="0.12"/>
<line x1="177.2" y1="179.5" x2="183.8" y2="179.5" fill="none" stroke="#dfe7ff" stroke-width="1.2" stroke-linecap="round" stroke-linejoin="round" stroke-opacity="0.11"/>
<line x1="177.2" y1="179.5" x2="177.2" y2="186.2" fill="none" stroke="#dfe7ff" stroke-width="1.2" stroke-linecap="round" stroke-linejoin="round" stroke-opacity="0.11"/>
<line x1="177.2" y1="179.5" x2="170.5" y2="179.5" fill="none" stroke="#dfe7ff" stroke-width="1.2" stroke-linecap="round" stroke-linejoin="round" stroke-opacity="0.11"/>
<line x1="177.2" y1="179.5" x2="177.2" y2="172.9" fill="none" stroke="#dfe7ff" stroke-width="1.2" stroke-linecap="round" stroke-linejoin="round" stroke-opacity="0.11"/>
<circle cx="32.7" cy="551.4" r="2.5" fill="#dfe7ff" stroke="none" fill-opacity="0.33"/>
<circle cx="434.3" cy="514.8" r="1.1" fill="#dfe7ff" stroke="none" fill-opacity="0.40"/>
<circle cx="207.8" cy="194.0" r="1.6" fill="#dfe7ff" stroke="none" fill-opacity="0.38"/>
<circle cx="444.3" cy="67.1" r="1.6" fill="#dfe7ff" stroke="none" fill-opacity="0.13"/>
<circle cx="40.3" cy="633.5" r="1.2" fill="#dfe7ff" stroke="none" fill-opacity="0.35"/>
<circle cx="88.2" cy="457.5" r="2.3" fill="#dfe7ff" stroke="none" fill-opacity="0.30"/>
<circle cx="76.2" cy="840.1" r="1.3" fill="#dfe7ff" stroke="none" fill-opacity="0.17"/>
<circle cx="297.4" cy="835.9" r="1.8" fill="#dfe7ff" stroke="none" fill-opacity="0.13"/>
<line x1="258.1" y1="736.2" x2="263.0" y2="736.2" fill="none" stroke="#dfe7ff" stroke-width="1.2" stroke-linecap="round" stroke-linejoin="round" stroke-opacity="0.18"/>
<line x1="258.1" y1="736.2" x2="258.1" y2="741.2" fill="none" stroke="#dfe7ff" stroke-width="1.2" stroke-linecap="round" stroke-linejoin="round" stroke-opacity="0.18"/>
<line x1="258.1" y1="736.2" x2="253.1" y2="736.2" fill="none" stroke="#dfe7ff" stroke-width="1.2" stroke-linecap="round" stroke-linejoin="round" stroke-opacity="0.18"/>
<line x1="258.1" y1="736.2" x2="258.1" y2="731.2" fill="none" stroke="#dfe7ff" stroke-width="1.2" stroke-linecap="round" stroke-linejoin="round" stroke-opacity="0.18"/>
<line x1="217.5" y1="482.2" x2="225.4" y2="482.2" fill="none" stroke="#dfe7ff" stroke-width="1.2" stroke-linecap="round" stroke-linejoin="round" stroke-opacity="0.26"/>
<line x1="217.5" y1="482.2" x2="217.5" y2="490.1" fill="none" stroke="#dfe7ff" stroke-width="1.2" stroke-linecap="round" stroke-linejoin="round" stroke-opacity="0.26"/>
<line x1="217.5" y1="482.2" x2="209.6" y2="482.2" fill="none" stroke="#dfe7ff" stroke-width="1.2" stroke-linecap="round" stroke-linejoin="round" stroke-opacity="0.26"/>
<line x1="217.5" y1="482.2" x2="217.5" y2="474.3" fill="none" stroke="#dfe7ff" stroke-width="1.2" stroke-linecap="round" stroke-linejoin="round" stroke-opacity="0.26"/>
<line x1="466.1" y1="143.6" x2="473.8" y2="143.6" fill="none" stroke="#dfe7ff" stroke-width="1.2" stroke-linecap="round" stroke-linejoin="round" stroke-opacity="0.16"/>
<line x1="466.1" y1="143.6" x2="466.1" y2="151.3" fill="none" stroke="#dfe7ff" stroke-width="1.2" stroke-linecap="round" stroke-linejoin="round" stroke-opacity="0.16"/>
<line x1="466.1" y1="143.6" x2="458.4" y2="143.6" fill="none" stroke="#dfe7ff" stroke-width="1.2" stroke-linecap="round" stroke-linejoin="round" stroke-opacity="0.16"/>
<line x1="466.1" y1="143.6" x2="466.1" y2="135.9" fill="none" stroke="#dfe7ff" stroke-width="1.2" stroke-linecap="round" stroke-linejoin="round" stroke-opacity="0.16"/>
<circle cx="151.7" cy="824.7" r="1.2" fill="#dfe7ff" stroke="none" fill-opacity="0.36"/>
<circle cx="75.8" cy="809.1" r="2.4" fill="#dfe7ff" stroke="none" fill-opacity="0.36"/>
<circle cx="126.5" cy="450.3" r="1.2" fill="#dfe7ff" stroke="none" fill-opacity="0.26"/>
<circle cx="58.7" cy="831.1" r="2.1" fill="#dfe7ff" stroke="none" fill-opacity="0.33"/>
<line x1="412.7" y1="87.1" x2="419.6" y2="87.1" fill="none" stroke="#dfe7ff" stroke-width="1.2" stroke-linecap="round" stroke-linejoin="round" stroke-opacity="0.17"/>
<line x1="412.7" y1="87.1" x2="412.7" y2="94.0" fill="none" stroke="#dfe7ff" stroke-width="1.2" stroke-linecap="round" stroke-linejoin="round" stroke-opacity="0.17"/>
<line x1="412.7" y1="87.1" x2="405.8" y2="87.1" fill="none" stroke="#dfe7ff" stroke-width="1.2" stroke-linecap="round" stroke-linejoin="round" stroke-opacity="0.17"/>
<line x1="412.7" y1="87.1" x2="412.7" y2="80.2" fill="none" stroke="#dfe7ff" stroke-width="1.2" stroke-linecap="round" stroke-linejoin="round" stroke-opacity="0.17"/>
<circle cx="242.6" cy="156.3" r="2.0" fill="#dfe7ff" stroke="none" fill-opacity="0.12"/>
<circle cx="245.1" cy="599.8" r="1.4" fill="#dfe7ff" stroke="none" fill-opacity="0.38"/>
<line x1="458.7" y1="897.6" x2="464.3" y2="897.6" fill="none" stroke="#dfe7ff" stroke-width="1.2" stroke-linecap="round" stroke-linejoin="round" stroke-opacity="0.24"/>
<line x1="458.7" y1="897.6" x2="458.7" y2="903.2" fill="none" stroke="#dfe7ff" stroke-width="1.2" stroke-linecap="round" stroke-linejoin="round" stroke-opacity="0.24"/>
<line x1="458.7" y1="897.6" x2="453.1" y2="897.6" fill="none" stroke="#dfe7ff" stroke-width="1.2" stroke-linecap="round" stroke-linejoin="round" stroke-opacity="0.24"/>
<line x1="458.7" y1="897.6" x2="458.7" y2="892.0" fill="none" stroke="#dfe7ff" stroke-width="1.2" stroke-linecap="round" stroke-linejoin="round" stroke-opacity="0.24"/>
<line x1="90.2" y1="501.9" x2="94.5" y2="501.9" fill="none" stroke="#dfe7ff" stroke-width="1.2" stroke-linecap="round" stroke-linejoin="round" stroke-opacity="0.38"/>
<line x1="90.2" y1="501.9" x2="90.2" y2="506.2" fill="none" stroke="#dfe7ff" stroke-width="1.2" stroke-linecap="round" stroke-linejoin="round" stroke-opacity="0.38"/>
<line x1="90.2" y1="501.9" x2="86.0" y2="501.9" fill="none" stroke="#dfe7ff" stroke-width="1.2" stroke-linecap="round" stroke-linejoin="round" stroke-opacity="0.38"/>
<line x1="90.2" y1="501.9" x2="90.2" y2="497.7" fill="none" stroke="#dfe7ff" stroke-width="1.2" stroke-linecap="round" stroke-linejoin="round" stroke-opacity="0.38"/>
<circle cx="76.8" cy="895.4" r="2.2" fill="#dfe7ff" stroke="none" fill-opacity="0.29"/>
<circle cx="459.6" cy="724.4" r="1.3" fill="#dfe7ff" stroke="none" fill-opacity="0.24"/>
<circle cx="290.3" cy="281.7" r="2.4" fill="#dfe7ff" stroke="none" fill-opacity="0.37"/>
<circle cx="31.1" cy="136.6" r="1.5" fill="#dfe7ff" stroke="none" fill-opacity="0.36"/>
<line x1="319.1" y1="364.2" x2="325.1" y2="364.2" fill="none" stroke="#dfe7ff" stroke-width="1.2" stroke-linecap="round" stroke-linejoin="round" stroke-opacity="0.27"/>
<line x1="319.1" y1="364.2" x2="319.1" y2="370.2" fill="none" stroke="#dfe7ff" stroke-width="1.2" stroke-linecap="round" stroke-linejoin="round" stroke-opacity="0.27"/>
<line x1="319.1" y1="364.2" x2="313.0" y2="364.2" fill="none" stroke="#dfe7ff" stroke-width="1.2" stroke-linecap="round" stroke-linejoin="round" stroke-opacity="0.27"/>
<line x1="319.1" y1="364.2" x2="319.1" y2="358.1" fill="none" stroke="#dfe7ff" stroke-width="1.2" stroke-linecap="round" stroke-linejoin="round" stroke-opacity="0.27"/>
<circle cx="371.1" cy="432.1" r="1.4" fill="#dfe7ff" stroke="none" fill-opacity="0.22"/>
<circle cx="284.6" cy="831.6" r="1.2" fill="#dfe7ff" stroke="none" fill-opacity="0.32"/>
<circle cx="53.1" cy="408.6" r="1.3" fill="#dfe7ff" stroke="none" fill-opacity="0.16"/>
<circle cx="388.4" cy="137.6" r="2.1" fill="#dfe7ff" stroke="none" fill-opacity="0.30"/>
<circle cx="497.3" cy="430.2" r="2.4" fill="#dfe7ff" stroke="none" fill-opacity="0.12"/>
<circle cx="256.0" cy="584.7" r="1.1" fill="#dfe7ff" stroke="none" fill-opacity="0.11"/>
<circle cx="376.6" cy="342.4" r="1.1" fill="#dfe7ff" stroke="none" fill-opacity="0.37"/>
<circle cx="506.1" cy="563.5" r="2.3" fill="#dfe7ff" stroke="none" fill-opacity="0.11"/>
<circle cx="454.3" cy="696.2" r="2.0" fill="#dfe7ff" stroke="none" fill-opacity="0.15"/>
<circle cx="459.4" cy="637.5" r="1.9" fill="#dfe7ff" stroke="none" fill-opacity="0.26"/>
<circle cx="223.5" cy="268.2" r="1.8" fill="#dfe7ff" stroke="none" fill-opacity="0.16"/>
<line x1="417.8" y1="137.2" x2="425.3" y2="137.2" fill="none" stroke="#dfe7ff" stroke-width="1.2" stroke-linecap="round" stroke-linejoin="round" stroke-opacity="0.40"/>
<line x1="417.8" y1="137.2" x2="417.8" y2="144.6" fill="none" stroke="#dfe7ff" stroke-width="1.2" stroke-linecap="round" stroke-linejoin="round" stroke-opacity="0.40"/>
<line x1="417.8" y1="137.2" x2="410.4" y2="137.2" fill="none" stroke="#dfe7ff" stroke-width="1.2" stroke-linecap="round" stroke-linejoin="round" stroke-opacity="0.40"/>
<line x1="417.8" y1="137.2" x2="417.8" y2="129.8" fill="none" stroke="#dfe7ff" stroke-width="1.2" stroke-linecap="round" stroke-linejoin="round" stroke-opacity="0.40"/>
<circle cx="183.4" cy="725.6" r="1.0" fill="#dfe7ff" stroke="none" fill-opacity="0.28"/>
<line x1="66.8" y1="615.9" x2="70.3" y2="615.9" fill="none" stroke="#dfe7ff" stroke-width="1.2" stroke-linecap="round" stroke-linejoin="round" stroke-opacity="0.12"/>
<line x1="66.8" y1="615.9" x2="66.8" y2="619.4" fill="none" stroke="#dfe7ff" stroke-width="1.2" stroke-linecap="round" stroke-linejoin="round" stroke-opacity="0.12"/>
<line x1="66.8" y1="615.9" x2="63.3" y2="615.9" fill="none" stroke="#dfe7ff" stroke-width="1.2" stroke-linecap="round" stroke-linejoin="round" stroke-opacity="0.12"/>
<line x1="66.8" y1="615.9" x2="66.8" y2="612.4" fill="none" stroke="#dfe7ff" stroke-width="1.2" stroke-linecap="round" stroke-linejoin="round" stroke-opacity="0.12"/>
<circle cx="427.4" cy="550.7" r="1.0" fill="#dfe7ff" stroke="none" fill-opacity="0.29"/>
<circle cx="327.9" cy="317.7" r="1.0" fill="#dfe7ff" stroke="none" fill-opacity="0.36"/>
<line x1="293.8" y1="619.5" x2="302.2" y2="619.5" fill="none" stroke="#dfe7ff" stroke-width="1.2" stroke-linecap="round" stroke-linejoin="round" stroke-opacity="0.33"/>
<line x1="293.8" y1="619.5" x2="293.8" y2="627.8" fill="none" stroke="#dfe7ff" stroke-width="1.2" stroke-linecap="round" stroke-linejoin="round" stroke-opacity="0.33"/>
<line x1="293.8" y1="619.5" x2="285.5" y2="619.5" fill="none" stroke="#dfe7ff" stroke-width="1.2" stroke-linecap="round" stroke-linejoin="round" stroke-opacity="0.33"/>
<line x1="293.8" y1="619.5" x2="293.8" y2="611.2" fill="none" stroke="#dfe7ff" stroke-width="1.2" stroke-linecap="round" stroke-linejoin="round" stroke-opacity="0.33"/>
<line x1="243.5" y1="125.8" x2="249.7" y2="125.8" fill="none" stroke="#dfe7ff" stroke-width="1.2" stroke-linecap="round" stroke-linejoin="round" stroke-opacity="0.18"/>
<line x1="243.5" y1="125.8" x2="243.5" y2="131.9" fill="none" stroke="#dfe7ff" stroke-width="1.2" stroke-linecap="round" stroke-linejoin="round" stroke-opacity="0.18"/>
<line x1="243.5" y1="125.8" x2="237.4" y2="125.8" fill="none" stroke="#dfe7ff" stroke-width="1.2" stroke-linecap="round" stroke-linejoin="round" stroke-opacity="0.18"/>
<line x1="243.5" y1="125.8" x2="243.5" y2="119.6" fill="none" stroke="#dfe7ff" stroke-width="1.2" stroke-linecap="round" stroke-linejoin="round" stroke-opacity="0.18"/>
<circle cx="161.0" cy="125.6" r="1.9" fill="#dfe7ff" stroke="none" fill-opacity="0.34"/>
<line x1="348.5" y1="347.5" x2="355.4" y2="347.5" fill="none" stroke="#dfe7ff" stroke-width="1.2" stroke-linecap="round" stroke-linejoin="round" stroke-opacity="0.18"/>
<line x1="348.5" y1="347.5" x2="348.5" y2="354.5" fill="none" stroke="#dfe7ff" stroke-width="1.2" stroke-linecap="round" stroke-linejoin="round" stroke-opacity="0.18"/>
<line x1="348.5" y1="347.5" x2="341.5" y2="347.5" fill="none" stroke="#dfe7ff" stroke-width="1.2" stroke-linecap="round" stroke-linejoin="round" stroke-opacity="0.18"/>
<line x1="348.5" y1="347.5" x2="348.5" y2="340.6" fill="none" stroke="#dfe7ff" stroke-width="1.2" stroke-linecap="round" stroke-linejoin="round" stroke-opacity="0.18"/>
<circle cx="114.7" cy="903.9" r="1.2" fill="#dfe7ff" stroke="none" fill-opacity="0.38"/>
<circle cx="366.3" cy="97.4" r="2.2" fill="#dfe7ff" stroke="none" fill-opacity="0.33"/>
<line x1="407.9" y1="876.2" x2="415.3" y2="876.2" fill="none" stroke="#dfe7ff" stroke-width="1.2" stroke-linecap="round" stroke-linejoin="round" stroke-opacity="0.39"/>
<line x1="407.9" y1="876.2" x2="407.9" y2="883.6" fill="none" stroke="#dfe7ff" stroke-width="1.2" stroke-linecap="round" stroke-linejoin="round" stroke-opacity="0.39"/>
<line x1="407.9" y1="876.2" x2="400.5" y2="876.2" fill="none" stroke="#dfe7ff" stroke-width="1.2" stroke-linecap="round" stroke-linejoin="round" stroke-opacity="0.39"/>
<line x1="407.9" y1="876.2" x2="407.9" y2="868.8" fill="none" stroke="#dfe7ff" stroke-width="1.2" stroke-linecap="round" stroke-linejoin="round" stroke-opacity="0.39"/>
<circle cx="359.9" cy="559.9" r="1.7" fill="#dfe7ff" stroke="none" fill-opacity="0.30"/>
<circle cx="140.0" cy="703.4" r="1.1" fill="#dfe7ff" stroke="none" fill-opacity="0.33"/>
<circle cx="314.7" cy="414.5" r="1.8" fill="#dfe7ff" stroke="none" fill-opacity="0.40"/>
<line x1="139.7" y1="807.5" x2="148.2" y2="807.5" fill="none" stroke="#dfe7ff" stroke-width="1.2" stroke-linecap="round" stroke-linejoin="round" stroke-opacity="0.11"/>
<line x1="139.7" y1="807.5" x2="139.7" y2="816.0" fill="none" stroke="#dfe7ff" stroke-width="1.2" stroke-linecap="round" stroke-linejoin="round" stroke-opacity="0.11"/>
<line x1="139.7" y1="807.5" x2="131.1" y2="807.5" fill="none" stroke="#dfe7ff" stroke-width="1.2" stroke-linecap="round" stroke-linejoin="round" stroke-opacity="0.11"/>
<line x1="139.7" y1="807.5" x2="139.7" y2="798.9" fill="none" stroke="#dfe7ff" stroke-width="1.2" stroke-linecap="round" stroke-linejoin="round" stroke-opacity="0.11"/>
<circle cx="244.3" cy="335.6" r="2.2" fill="#dfe7ff" stroke="none" fill-opacity="0.18"/>
<circle cx="122.6" cy="652.3" r="1.7" fill="#dfe7ff" stroke="none" fill-opacity="0.17"/>
<circle cx="346.8" cy="755.3" r="2.5" fill="#dfe7ff" stroke="none" fill-opacity="0.24"/>
<circle cx="464.3" cy="351.2" r="1.1" fill="#dfe7ff" stroke="none" fill-opacity="0.27"/>
<circle cx="270.0" cy="443.0" r="24.3" fill="none" stroke="#dfe7ff" stroke-width="2.4" stroke-linecap="round" stroke-linejoin="round"/>
<path d="M 211.5 535.7 C 211.5 493.4 232.2 480.8 253.8 479.0 C 264.6 482.6 275.4 482.6 286.2 479.0 C 307.8 480.8 328.5 493.4 328.5 535.7 Z" fill="none" stroke="#dfe7ff" stroke-width="2.4" stroke-linecap="round" stroke-linejoin="round"/>
<path d="M 270.0 490.7 L 274.5 504.2 L 288.0 508.7 L 274.5 513.2 L 270.0 526.7 L 265.5 513.2 L 252.0 508.7 L 265.5 504.2 Z" fill="none" stroke="#dfe7ff" stroke-width="1.5" stroke-linecap="round" stroke-linejoin="round"/>
<path d="M 389.0 348.2 L 388.1 352.4 L 385.5 356.3 L 381.4 359.9 L 376.1 363.0 L 369.7 365.4 L 362.8 367.3 L 355.5 368.5 L 348.1 369.1 L 340.8 369.2 L 333.7 368.9 L 326.9 368.1 L 320.5 367.1 L 314.3 365.8 L 308.6 364.3 L 303.1 362.6 L 298.0 360.8 L 293.1 358.9 L 288.4 357.0 L 283.9 355.0 L 279.5 352.9 L 275.3 350.8 L 271.1 348.7 L 266.8 346.6 L 262.6 344.5 L 258.3 342.5 L 253.9 340.4 L 249.3 338.4 L 244.5 336.5 L 239.5 334.6 L 234.2 332.9 L 228.6 331.3 L 222.6 329.9 L 216.4 328.7 L 209.7 327.8 L 202.8 327.3 L 195.5 327.2 L 188.2 327.5 L 180.8 328.4 L 173.7 330.0 L 167.0 332.1 L 161.1 334.9 L 156.4 338.2 L 153.0 342.0 L 151.2 346.1 L 151.2 350.3 L 153.0 354.4 L 156.4 358.2 L 161.1 361.5 L 167.0 364.3 L 173.7 366.4 L 180.8 368.0 L 188.2 368.9 L 195.5 369.2 L 202.8 369.1 L 209.7 368.6 L 216.4 367.7 L 222.6 366.5 L 228.6 365.1 L 234.2 363.5 L 239.5 361.8 L 244.5 359.9 L 249.3 358.0 L 253.9 356.0 L 258.3 353.9 L 262.6 351.9 L 266.8 349.8 L 271.1 347.7 L 275.3 345.6 L 279.5 343.5 L 283.9 341.4 L 288.4 339.4 L 293.1 337.5 L 298.0 335.6 L 303.1 333.8 L 308.6 332.1 L 314.3 330.6 L 320.5 329.3 L 326.9 328.3 L 333.7 327.5 L 340.8 327.2 L 348.1 327.3 L 355.5 327.9 L 362.8 329.1 L 369.7 331.0 L 376.1 333.4 L 381.4 336.5 L 385.5 340.1 L 388.1 344.0 L 389.0 348.2 Z" fill="none" stroke="#dfe7ff" stroke-width="2.4" stroke-linecap="round" stroke-linejoin="round" stroke-opacity="0.95"/>
<line x1="135.0" y1="627.7" x2="135.0" y2="558.7" fill="none" stroke="#dfe7ff" stroke-width="3.4" stroke-linecap="round" stroke-linejoin="round" stroke-opacity="0.85"/>
<path d="M 135.0 550.3 L 137.4 556.3 L 143.4 558.7 L 137.4 561.1 L 135.0 567.1 L 132.6 561.1 L 126.6 558.7 L 132.6 556.3 Z" fill="none" stroke="#dfe7ff" stroke-width="1.5" stroke-linecap="round" stroke-linejoin="round" stroke-opacity="0.85"/>
<line x1="135.0" y1="605.6" x2="144.0" y2="605.6" fill="none" stroke="#dfe7ff" stroke-width="1.5" stroke-linecap="round" stroke-linejoin="round" stroke-opacity="0.72"/>
<line x1="135.0" y1="587.7" x2="126.0" y2="587.7" fill="none" stroke="#dfe7ff" stroke-width="1.5" stroke-linecap="round" stroke-linejoin="round" stroke-opacity="0.72"/>
<circle cx="135.0" cy="627.7" r="2.1" fill="none" stroke="#dfe7ff" stroke-width="1.5" stroke-linecap="round" stroke-linejoin="round" stroke-opacity="0.85"/>
<path d="M 199.4 607.0 A 25.6 24.0 0 0 0 250.6 607.0 Z" fill="none" stroke="#dfe7ff" stroke-width="3.4" stroke-linecap="round" stroke-linejoin="round" stroke-opacity="0.85"/>
<line x1="225.0" y1="631.0" x2="225.0" y2="645.4" fill="none" stroke="#dfe7ff" stroke-width="2.4" stroke-linecap="round" stroke-linejoin="round" stroke-opacity="0.85"/>
<line x1="210.6" y1="645.4" x2="239.4" y2="645.4" fill="none" stroke="#dfe7ff" stroke-width="2.4" stroke-linecap="round" stroke-linejoin="round" stroke-opacity="0.85"/>
<path d="M 315.0 590.2 L 320.0 630.8 L 310.0 630.8 Z" fill="none" stroke="#dfe7ff" stroke-width="3.4" stroke-linecap="round" stroke-linejoin="round" stroke-opacity="0.85"/>
<line x1="315.0" y1="598.0" x2="315.0" y2="630.8" fill="none" stroke="#dfe7ff" stroke-width="1.5" stroke-linecap="round" stroke-linejoin="round" stroke-opacity="0.51"/>
<line x1="299.6" y1="630.8" x2="330.4" y2="630.8" fill="none" stroke="#dfe7ff" stroke-width="2.4" stroke-linecap="round" stroke-linejoin="round" stroke-opacity="0.85"/>
<line x1="315.0" y1="630.8" x2="315.0" y2="640.0" fill="none" stroke="#dfe7ff" stroke-width="3.4" stroke-linecap="round" stroke-linejoin="round" stroke-opacity="0.85"/>
<path d="M 315.0 637.2 L 316.7 641.7 L 321.2 643.4 L 316.7 645.1 L 315.0 649.6 L 313.3 645.1 L 308.8 643.4 L 313.3 641.7 Z" fill="none" stroke="#dfe7ff" stroke-width="1.5" stroke-linecap="round" stroke-linejoin="round" stroke-opacity="0.85"/>
<circle cx="405.0" cy="593.2" r="27.0" fill="none" stroke="#dfe7ff" stroke-width="3.4" stroke-linecap="round" stroke-linejoin="round" stroke-opacity="0.85"/>
<path d="M 405.0 576.7 L 408.7 588.1 L 420.7 588.1 L 411.0 595.1 L 414.7 606.5 L 405.0 599.5 L 395.3 606.5 L 399.0 595.1 L 389.3 588.1 L 401.3 588.1 Z" fill="none" stroke="#dfe7ff" stroke-width="2.4" stroke-linecap="round" stroke-linejoin="round" stroke-opacity="0.85"/>
<rect x="16" y="16" width="508" height="928" rx="26" fill="none" stroke="#e6c79c" stroke-width="2.4" stroke-linecap="round" stroke-linejoin="round" stroke-opacity="0.90"/>
<rect x="30" y="30" width="480" height="900" rx="18" fill="none" stroke="#dfe7ff" stroke-width="1.5" stroke-linecap="round" stroke-linejoin="round" stroke-opacity="0.26"/>
<path d="M 52.0 41.0 L 54.3 49.7 L 63.0 52.0 L 54.3 54.3 L 52.0 63.0 L 49.7 54.3 L 41.0 52.0 L 49.7 49.7 Z" fill="none" stroke="#e6c79c" stroke-width="1.6" stroke-linecap="round" stroke-linejoin="round" stroke-opacity="0.80"/>
<path d="M 488.0 41.0 L 490.3 49.7 L 499.0 52.0 L 490.3 54.3 L 488.0 63.0 L 485.7 54.3 L 477.0 52.0 L 485.7 49.7 Z" fill="none" stroke="#e6c79c" stroke-width="1.6" stroke-linecap="round" stroke-linejoin="round" stroke-opacity="0.80"/>
<path d="M 52.0 897.0 L 54.3 905.7 L 63.0 908.0 L 54.3 910.3 L 52.0 919.0 L 49.7 910.3 L 41.0 908.0 L 49.7 905.7 Z" fill="none" stroke="#e6c79c" stroke-width="1.6" stroke-linecap="round" stroke-linejoin="round" stroke-opacity="0.80"/>
<path d="M 488.0 897.0 L 490.3 905.7 L 499.0 908.0 L 490.3 910.3 L 488.0 919.0 L 485.7 910.3 L 477.0 908.0 L 485.7 905.7 Z" fill="none" stroke="#e6c79c" stroke-width="1.6" stroke-linecap="round" stroke-linejoin="round" stroke-opacity="0.80"/>
<text x="270" y="894" text-anchor="middle" fill="#e6c79c" font-family="'Avenir Next', system-ui, sans-serif" font-size="24" letter-spacing="5" font-weight="500">THE MAGICIAN</text>
</svg>
