<svg xmlns="http://www.w3.org/2000/svg" viewBox="0 0 540 960" width="540" height="960">
<defs><radialGradient id="bg" cx="50%" cy="36%" r="85%"><stop offset="0%" stop-color="#141b3f"/><stop offset="100%" stop-color="#090e24"/></radialGradient></defs>
<rect x="0" y="0" width="540" height="960" rx="38" fill="url(#bg)"/>
<circle cx="130.7" cy="69.9" r="2.1" fill="#dfe7ff" stroke="none" fill-opacity="0.20"/>
<circle cx="214.4" cy="314.4" r="1.5" fill="#dfe7ff" stroke="none" fill-opacity="0.37"/>
<circle cx="63.4" cy="119.7" r="1.9" fill="#dfe7ff" stroke="none" fill-opacity="0.27"/>
<circle cx="173.9" cy="660.8" r="1.0" fill="#dfe7ff" stroke="none" fill-opacity="0.13"/>
<line x1="159.6" y1="63.7" x2="164.5" y2="63.7" w="1.2" color="#dfe7ff" op="0.20212354402050148"/>
<line x1="159.6" y1="63.7" x2="159.6" y2="68.6" w="1.2" color="#dfe7ff" op="0.20212354402050148"/>
<line x1="159.6" y1="63.7" x2="154.7" y2="63.7" w="1.2" color="#dfe7ff" op="0.20212354402050148"/>
<line x1="159.6" y1="63.7" x2="159.6" y2="58.8" w="1.2" color="#dfe7ff" op="0.20212354402050148"/>
<line x1="226.6" y1="675.9" x2="233.6" y2="675.9" w="1.2" color="#dfe7ff" op="0.2990126840198699"/>
<line x1="226.6" y1="675.9" x2="226.6" y2="682.8" w="1.2" color="#dfe7ff" op="0.2990126840198699"/>
<line x1="226.6" y1="675.9" x2="219.7" y2="675.9" w="1.2" color="#dfe7ff" op="0.2990126840198699"/>
<line x1="226.6" y1="675.9" x2="226.6" y2="668.9" w="1.2" color="#dfe7ff" op="0.2990126840198699"/>
<circle cx="46.9" cy="388.3" r="2.4" fill="#dfe7ff" stroke="none" fill-opacity="0.40"/>
<line x1="203.7" y1="31.8" x2="208.6" y2="31.8" w="1.2" color="#dfe7ff" op="0.3198556733957205"/>
<line x1="203.7" y1="31.8" x2="203.7" y2="36.7" w="1.2" color="#dfe7ff" op="0.3198556733957205"/>
<line x1="203.7" y1="31.8" x2="198.7" y2="31.8" w="1.2" color="#dfe7ff" op="0.3198556733957205"/>
<line x1="203.7" y1="31.8" x2="203.7" y2="26.9" w="1.2" color="#dfe7ff" op="0.3198556733957205"/>
<circle cx="319.4" cy="262.4" r="2.1" fill="#dfe7ff" stroke="none" fill-opacity="0.17"/>
<circle cx="416.2" cy="542.3" r="2.5" fill="#dfe7ff" stroke="none" fill-opacity="0.11"/>
<circle cx="133.3" cy="816.1" r="2.3" fill="#dfe7ff" stroke="none" fill-opacity="0.11"/>
<line x1="334.0" y1="673.1" x2="342.3" y2="673.1" w="1.2" color="#dfe7ff" op="0.27989871808314565"/>
<line x1="334.0" y1="673.1" x2="334.0" y2="681.5" w="1.2" color="#dfe7ff" op="0.27989871808314565"/>
<line x1="334.0" y1="673.1" x2="325.6" y2="673.1" w="1.2" color="#dfe7ff" op="0.27989871808314565"/>
<line x1="334.0" y1="673.1" x2="334.0" y2="664.8" w="1.2" color="#dfe7ff" op="0.27989871808314565"/>
<circle cx="246.2" cy="203.7" r="1.7" fill="#dfe7ff" stroke="none" fill-opacity="0.14"/>
<line x1="506.8" y1="399.0" x2="515.5" y2="399.0" w="1.2" color="#dfe7ff" op="0.13368681642004285"/>
<line x1="506.8" y1="399.0" x2="506.8" y2="407.7" w="1.2" color="#dfe7ff" op="0.13368681642004285"/>
<line x1="506.8" y1="399.0" x2="498.0" y2="399.0" w="1.2" color="#dfe7ff" op="0.13368681642004285"/>
<line x1="506.8" y1="399.0" x2="506.8" y2="390.2" w="1.2" color="#dfe7ff" op="0.13368681642004285"/>
<circle cx="78.4" cy="716.2" r="2.0" fill="#dfe7ff" stroke="none" fill-opacity="0.27"/>
<circle cx="325.0" cy="765.0" r="1.9" fill="#dfe7ff" stroke="none" fill-opacity="0.35"/>
<circle cx="508.0" cy="177.8" r="1.2" fill="#dfe7ff" stroke="none" fill-opacity="0.16"/>
<line x1="107.0" y1="139.8" x2="114.6" y2="139.8" w="1.2" color="#dfe7ff" op="0.35032146820709886"/>
<line x1="107.0" y1="139.8" x2="107.0" y2="147.4" w="1.2" color="#dfe7ff" op="0.35032146820709886"/>
<line x1="107.0" y1="139.8" x2="99.4" y2="139.8" w="1.2" color="#dfe7ff" op="0.35032146820709886"/>
<line x1="107.0" y1="139.8" x2="107.0" y2="132.1" w="1.2" color="#dfe7ff" op="0.35032146820709886"/>
<line x1="471.1" y1="287.7" x2="478.0" y2="287.7" w="1.2" color="#dfe7ff" op="0.10121685453226932"/>
<line x1="471.1" y1="287.7" x2="471.1" y2="294.6" w="1.2" color="#dfe7ff" op="0.10121685453226932"/>
<line x1="471.1" y1="287.7" x2="464.3" y2="287.7" w="1.2" color="#dfe7ff" op="0.10121685453226932"/>
<line x1="471.1" y1="287.7" x2="471.1" y2="280.9" w="1.2" color="#dfe7ff" op="0.10121685453226932"/>
<line x1="105.1" y1="287.6" x2="110.1" y2="287.6" w="1.2" color="#dfe7ff" op="0.37497643070508024"/>
<line x1="105.1" y1="287.6" x2="105.1" y2="292.6" w="1.2" color="#dfe7ff" op="0.37497643070508024"/>
<line x1="105.1" y1="287.6" x2="100.1" y2="287.6" w="1.2" color="#dfe7ff" op="0.37497643070508024"/>
<line x1="105.1" y1="287.6" x2="105.1" y2="282.6" w="1.2" color="#dfe7ff" op="0.37497643070508024"/>
<circle cx="420.6" cy="179.1" r="1.2" fill="#dfe7ff" stroke="none" fill-opacity="0.38"/>
<line x1="292.2" y1="839.2" x2="300.7" y2="839.2" w="1.2" color="#dfe7ff" op="0.10784339163057649"/>
<line x1="292.2" y1="839.2" x2="292.2" y2="847.7" w="1.2" color="#dfe7ff" op="0.10784339163057649"/>
<line x1="292.2" y1="839.2" x2="283.6" y2="839.2" w="1.2" color="#dfe7ff" op="0.10784339163057649"/>
<line x1="292.2" y1="839.2" x2="292.2" y2="830.6" w="1.2" color="#dfe7ff" op="0.10784339163057649"/>
<circle cx="231.4" cy="621.3" r="1.2" fill="#dfe7ff" stroke="none" fill-opacity="0.26"/>
<circle cx="117.7" cy="117.9" r="2.0" fill="#dfe7ff" stroke="none" fill-opacity="0.28"/>
<circle cx="50.9" cy="63.1" r="2.1" fill="#dfe7ff" stroke="none" fill-opacity="0.28"/>
<line x1="184.3" y1="173.3" x2="192.3" y2="173.3" w="1.2" color="#dfe7ff" op="0.3806540678617365"/>
<line x1="184.3" y1="173.3" x2="184.3" y2="181.3" w="1.2" color="#dfe7ff" op="0.3806540678617365"/>
<line x1="184.3" y1="173.3" x2="176.2" y2="173.3" w="1.2" color="#dfe7ff" op="0.3806540678617365"/>
<line x1="184.3" y1="173.3" x2="184.3" y2="165.2" w="1.2" color="#dfe7ff" op="0.3806540678617365"/>
<line x1="253.2" y1="630.0" x2="256.4" y2="630.0" w="1.2" color="#dfe7ff" op="0.14478545190193634"/>
<line x1="253.2" y1="630.0" x2="253.2" y2="633.1" w="1.2" color="#dfe7ff" op="0.14478545190193634"/>
<line x1="253.2" y1="630.0" x2="250.1" y2="630.0" w="1.2" color="#dfe7ff" op="0.14478545190193634"/>
<line x1="253.2" y1="630.0" x2="253.2" y2="626.8" w="1.2" color="#dfe7ff" op="0.14478545190193634"/>
<line x1="382.8" y1="219.0" x2="389.8" y2="219.0" w="1.2" color="#dfe7ff" op="0.11834052148335872"/>
<line x1="382.8" y1="219.0" x2="382.8" y2="226.0" w="1.2" color="#dfe7ff" op="0.11834052148335872"/>
<line x1="382.8" y1="219.0" x2="375.8" y2="219.0" w="1.2" color="#dfe7ff" op="0.11834052148335872"/>
<line x1="382.8" y1="219.0" x2="382.8" y2="212.1" w="1.2" color="#dfe7ff" op="0.11834052148335872"/>
<line x1="421.0" y1="322.6" x2="428.2" y2="322.6" w="1.2" color="#dfe7ff" op="0.2806131548319038"/>
<line x1="421.0" y1="322.6" x2="421.0" y2="329.8" w="1.2" color="#dfe7ff" op="0.2806131548319038"/>
<line x1="421.0" y1="322.6" x2="413.8" y2="322.6" w="1.2" color="#dfe7ff" op="0.2806131548319038"/>
<line x1="421.0" y1="322.6" x2="421.0" y2="315.4" w="1.2" color="#dfe7ff" op="0.2806131548319038"/>
<line x1="191.8" y1="911.9" x2="196.7" y2="911.9" w="1.2" color="#dfe7ff" op="0.38576013905462714"/>
<line x1="191.8" y1="911.9" x2="191.8" y2="916.8" w="1.2" color="#dfe7ff" op="0.38576013905462714"/>
<line x1="191.8" y1="911.9" x2="186.9" y2="911.9" w="1.2" color="#dfe7ff" op="0.38576013905462714"/>
<line x1="191.8" y1="911.9" x2="191.8" y2="907.0" w="1.2" color="#dfe7ff" op="0.38576013905462714"/>
<line x1="38.1" y1="684.2" x2="43.9" y2="684.2" w="1.2" color="#dfe7ff" op="0.1685768562471583"/>
<line x1="38.1" y1="684.2" x2="38.1" y2="689.9" w="1.2" color="#dfe7ff" op="0.1685768562471583"/>
<line x1="38.1" y1="684.2" x2="32.4" y2="684.2" w="1.2" color="#dfe7ff" op="0.1685768562471583"/>
<line x1="38.1" y1="684.2" x2="38.1" y2="678.4" w="1.2" color="#dfe7ff" op="0.1685768562471583"/>
<circle cx="260.3" cy="732.7" r="1.3" fill="#dfe7ff" stroke="none" fill-opacity="0.31"/>
<line x1="357.0" y1="327.2" x2="364.0" y2="327.2" w="1.2" color="#dfe7ff" op="0.38350430267224"/>
<line x1="357.0" y1="327.2" x2="357.0" y2="334.1" w="1.2" color="#dfe7ff" op="0.38350430267224"/>
<line x1="357.0" y1="327.2" x2="350.1" y2="327.2" w="1.2" color="#dfe7ff" op="0.38350430267224"/>
<line x1="357.0" y1="327.2" x2="357.0" y2="320.2" w="1.2" color="#dfe7ff" op="0.38350430267224"/>
<circle cx="106.2" cy="372.6" r="2.5" fill="#dfe7ff" stroke="none" fill-opacity="0.25"/>
<circle cx="444.2" cy="864.9" r="1.8" fill="#dfe7ff" stroke="none" fill-opacity="0.34"/>
<circle cx="77.3" cy="695.7" r="1.0" fill="#dfe7ff" stroke="none" fill-opacity="0.26"/>
<circle cx="102.0" cy="902.4" r="2.0" fill="#dfe7ff" stroke="none" fill-opacity="0.39"/>
<circle cx="504.8" cy="411.1" r="1.6" fill="#dfe7ff" stroke="none" fill-opacity="0.15"/>
<circle cx="380.7" cy="69.1" r="1.6" fill="#dfe7ff" stroke="none" fill-opacity="0.21"/>
<line x1="421.0" y1="425.3" x2="429.9" y2="425.3" w="1.2" color="#dfe7ff" op="0.29265672720230185"/>
<line x1="421.0" y1="425.3" x2="421.0" y2="434.2" w="1.2" color="#dfe7ff" op="0.29265672720230185"/>
<line x1="421.0" y1="425.3" x2="412.1" y2="425.3" w="1.2" color="#dfe7ff" op="0.29265672720230185"/>
<line x1="421.0" y1="425.3" x2="421.0" y2="416.4" w="1.2" color="#dfe7ff" op="0.29265672720230185"/>
<circle cx="443.3" cy="642.8" r="1.6" fill="#dfe7ff" stroke="none" fill-opacity="0.16"/>
<line x1="220.8" y1="316.2" x2="224.3" y2="316.2" w="1.2" color="#dfe7ff" op="0.21179726177038474"/>
<line x1="220.8" y1="316.2" x2="220.8" y2="319.7" w="1.2" color="#dfe7ff" op="0.21179726177038474"/>
<line x1="220.8" y1="316.2" x2="217.4" y2="316.2" w="1.2" color="#dfe7ff" op="0.21179726177038474"/>
<line x1="220.8" y1="316.2" x2="220.8" y2="312.7" w="1.2" color="#dfe7ff" op="0.21179726177038474"/>
<circle cx="72.9" cy="481.7" r="1.4" fill="#dfe7ff" stroke="none" fill-opacity="0.33"/>
<circle cx="195.9" cy="650.6" r="1.2" fill="#dfe7ff" stroke="none" fill-opacity="0.25"/>
<line x1="342.1" y1="97.1" x2="348.6" y2="97.1" w="1.2" color="#dfe7ff" op="0.2942894577381103"/>
<line x1="342.1" y1="97.1" x2="342.1" y2="103.6" w="1.2" color="#dfe7ff" op="0.2942894577381103"/>
<line x1="342.1" y1="97.1" x2="335.7" y2="97.1" w="1.2" color="#dfe7ff" op="0.2942894577381103"/>
<line x1="342.1" y1="97.1" x2="342.1" y2="90.7" w="1.2" color="#dfe7ff" op="0.2942894577381103"/>
<circle cx="119.7" cy="850.5" r="2.2" fill="#dfe7ff" stroke="none" fill-opacity="0.20"/>
<line x1="199.8" y1="254.6" x2="204.0" y2="254.6" w="1.2" color="#dfe7ff" op="0.1963912628686777"/>
<line x1="199.8" y1="254.6" x2="199.8" y2="258.8" w="1.2" color="#dfe7ff" op="0.1963912628686777"/>
<line x1="199.8" y1="254.6" x2="195.7" y2="254.6" w="1.2" color="#dfe7ff" op="0.1963912628686777"/>
<line x1="199.8" y1="254.6" x2="199.8" y2="250.5" w="1.2" color="#dfe7ff" op="0.1963912628686777"/>
<line x1="374.9" y1="577.6" x2="378.6" y2="577.6" w="1.2" color="#dfe7ff" op="0.3218273041033658"/>
<line x1="374.9" y1="577.6" x2="374.9" y2="581.3" w="1.2" color="#dfe7ff" op="0.3218273041033658"/>
<line x1="374.9" y1="577.6" x2="371.3" y2="577.6" w="1.2" color="#dfe7ff" op="0.3218273041033658"/>
<line x1="374.9" y1="577.6" x2="374.9" y2="573.9" w="1.2" color="#dfe7ff" op="0.3218273041033658"/>
<line x1="147.7" y1="332.4" x2="152.1" y2="332.4" w="1.2" color="#dfe7ff" op="0.31338975091468785"/>
<line x1="147.7" y1="332.4" x2="147.7" y2="336.8" w="1.2" color="#dfe7ff" op="0.31338975091468785"/>
<line x1="147.7" y1="332.4" x2="143.2" y2="332.4" w="1.2" color="#dfe7ff" op="0.31338975091468785"/>
<line x1="147.7" y1="332.4" x2="147.7" y2="327.9" w="1.2" color="#dfe7ff" op="0.31338975091468785"/>
<line x1="156.3" y1="94.0" x2="159.8" y2="94.0" w="1.2" color="#dfe7ff" op="0.3788802356665337"/>
<line x1="156.3" y1="94.0" x2="156.3" y2="97.5" w="1.2" color="#dfe7ff" op="0.3788802356665337"/>
<line x1="156.3" y1="94.0" x2="152.8" y2="94.0" w="1.2" color="#dfe7ff" op="0.3788802356665337"/>
<line x1="156.3" y1="94.0" x2="156.3" y2="90.5" w="1.2" color="#dfe7ff" op="0.3788802356665337"/>
<line x1="60.2" y1="423.2" x2="65.2" y2="423.2" w="1.2" color="#dfe7ff" op="0.16343306231631122"/>
<line x1="60.2" y1="423.2" x2="60.2" y2="428.3" w="1.2" color="#dfe7ff" op="0.16343306231631122"/>
<line x1="60.2" y1="423.2" x2="55.1" y2="423.2" w="1.2" color="#dfe7ff" op="0.16343306231631122"/>
<line x1="60.2" y1="423.2" x2="60.2" y2="418.1" w="1.2" color="#dfe7ff" op="0.16343306231631122"/>
<circle cx="331.3" cy="160.0" r="1.2" fill="#dfe7ff" stroke="none" fill-opacity="0.34"/>
<line x1="293.1" y1="794.5" x2="301.9" y2="794.5" w="1.2" color="#dfe7ff" op="0.18167668772280487"/>
<line x1="293.1" y1="794.5" x2="293.1" y2="803.2" w="1.2" color="#dfe7ff" op="0.18167668772280487"/>
<line x1="293.1" y1="794.5" x2="284.4" y2="794.5" w="1.2" color="#dfe7ff" op="0.18167668772280487"/>
<line x1="293.1" y1="794.5" x2="293.1" y2="785.7" w="1.2" color="#dfe7ff" op="0.18167668772280487"/>
<line x1="172.8" y1="594.1" x2="177.9" y2="594.1" w="1.2" color="#dfe7ff" op="0.18365301059482236"/>
<line x1="172.8" y1="594.1" x2="172.8" y2="599.1" w="1.2" color="#dfe7ff" op="0.18365301059482236"/>
<line x1="172.8" y1="594.1" x2="167.7" y2="594.1" w="1.2" color="#dfe7ff" op="0.18365301059482236"/>
<line x1="172.8" y1="594.1" x2="172.8" y2="589.0" w="1.2" color="#dfe7ff" op="0.18365301059482236"/>
<circle cx="231.8" cy="334.9" r="2.3" fill="#dfe7ff" stroke="none" fill-opacity="0.19"/>
<circle cx="40.1" cy="303.5" r="1.6" fill="#dfe7ff" stroke="none" fill-opacity="0.21"/>
<circle cx="400.5" cy="593.1" r="2.4" fill="#dfe7ff" stroke="none" fill-opacity="0.32"/>
<circle cx="88.2" cy="114.7" r="2.1" fill="#dfe7ff" stroke="none" fill-opacity="0.16"/>
<line x1="70.3" y1="249.2" x2="77.5" y2="249.2" w="1.2" color="#dfe7ff" op="0.3389430783738291"/>
<line x1="70.3" y1="249.2" x2="70.3" y2="256.5" w="1.2" color="#dfe7ff" op="0.3389430783738291"/>
<line x1="70.3" y1="249.2" x2="63.0" y2="249.2" w="1.2" color="#dfe7ff" op="0.3389430783738291"/>
<line x1="70.3" y1="249.2" x2="70.3" y2="241.9" w="1.2" color="#dfe7ff" op="0.3389430783738291"/>
<line x1="274.9" y1="732.7" x2="281.3" y2="732.7" w="1.2" color="#dfe7ff" op="0.19192712349849717"/>
<line x1="274.9" y1="732.7" x2="274.9" y2="739.1" w="1.2" color="#dfe7ff" op="0.19192712349849717"/>
<line x1="274.9" y1="732.7" x2="268.5" y2="732.7" w="1.2" color="#dfe7ff" op="0.19192712349849717"/>
<line x1="274.9" y1="732.7" x2="274.9" y2="726.3" w="1.2" color="#dfe7ff" op="0.19192712349849717"/>
<line x1="100.1" y1="851.5" x2="107.7" y2="851.5" w="1.2" color="#dfe7ff" op="0.12560751352884228"/>
<line x1="100.1" y1="851.5" x2="100.1" y2="859.1" w="1.2" color="#dfe7ff" op="0.12560751352884228"/>
<line x1="100.1" y1="851.5" x2="92.4" y2="851.5" w="1.2" color="#dfe7ff" op="0.12560751352884228"/>
<line x1="100.1" y1="851.5" x2="100.1" y2="843.8" w="1.2" color="#dfe7ff" op="0.12560751352884228"/>
<line x1="79.1" y1="425.7" x2="83.9" y2="425.7" w="1.2" color="#dfe7ff" op="0.2449206268951603"/>
<line x1="79.1" y1="425.7" x2="79.1" y2="430.5" w="1.2" color="#dfe7ff" op="0.2449206268951603"/>
<line x1="79.1" y1="425.7" x2="74.3" y2="425.7" w="1.2" color="#dfe7ff" op="0.2449206268951603"/>
<line x1="79.1" y1="425.7" x2="79.1" y2="420.9" w="1.2" color="#dfe7ff" op="0.2449206268951603"/>
<line x1="278.1" y1="33.6" x2="286.2" y2="33.6" w="1.2" color="#dfe7ff" op="0.30193251635686946"/>
<line x1="278.1" y1="33.6" x2="278.1" y2="41.8" w="1.2" color="#dfe7ff" op="0.30193251635686946"/>
<line x1="278.1" y1="33.6" x2="270.0" y2="33.6" w="1.2" color="#dfe7ff" op="0.30193251635686946"/>
<line x1="278.1" y1="33.6" x2="278.1" y2="25.5" w="1.2" color="#dfe7ff" op="0.30193251635686946"/>
<circle cx="273.4" cy="353.2" r="1.1" fill="#dfe7ff" stroke="none" fill-opacity="0.21"/>
<line x1="194.0" y1="303.3" x2="259.9" y2="323.7" w="2.4" color="#dfe7ff" op="1.0"/>
<line x1="186.8" y1="312.7" x2="203.2" y2="338.1" w="2.4" color="#dfe7ff" op="1.0"/>
<line x1="175.3" y1="315.3" x2="166.7" y2="383.8" w="2.4" color="#dfe7ff" op="1.0"/>
<line x1="164.8" y1="309.9" x2="142.7" y2="330.4" w="2.4" color="#dfe7ff" op="1.0"/>
<line x1="160.3" y1="299.0" x2="91.4" y2="302.4" w="2.4" color="#dfe7ff" op="1.0"/>
<line x1="163.8" y1="287.8" x2="139.7" y2="269.5" w="2.4" color="#dfe7ff" op="1.0"/>
<line x1="173.7" y1="281.4" x2="158.4" y2="214.1" w="2.4" color="#dfe7ff" op="1.0"/>
<line x1="185.4" y1="282.9" x2="199.2" y2="256.0" w="2.4" color="#dfe7ff" op="1.0"/>
<line x1="193.4" y1="291.5" x2="257.0" y2="264.8" w="2.4" color="#dfe7ff" op="1.0"/>
<line x1="379.0" y1="303.3" x2="444.9" y2="323.7" w="2.4" color="#dfe7ff" op="1.0"/>
<line x1="371.8" y1="312.7" x2="388.2" y2="338.1" w="2.4" color="#dfe7ff" op="1.0"/>
<line x1="360.3" y1="315.3" x2="351.7" y2="383.8" w="2.4" color="#dfe7ff" op="1.0"/>
<line x1="349.8" y1="309.9" x2="327.7" y2="330.4" w="2.4" color="#dfe7ff" op="1.0"/>
<line x1="345.3" y1="299.0" x2="276.4" y2="302.4" w="2.4" color="#dfe7ff" op="1.0"/>
<line x1="348.8" y1="287.8" x2="324.7" y2="269.5" w="2.4" color="#dfe7ff" op="1.0"/>
<line x1="358.7" y1="281.4" x2="343.4" y2="214.1" w="2.4" color="#dfe7ff" op="1.0"/>
<line x1="370.4" y1="282.9" x2="384.2" y2="256.0" w="2.4" color="#dfe7ff" op="1.0"/>
<line x1="378.4" y1="291.5" x2="442.0" y2="264.8" w="2.4" color="#dfe7ff" op="1.0"/>
<line x1="194.0" y1="513.3" x2="259.9" y2="533.7" w="2.4" color="#dfe7ff" op="1.0"/>
<line x1="186.8" y1="522.7" x2="203.2" y2="548.1" w="2.4" color="#dfe7ff" op="1.0"/>
<line x1="175.3" y1="525.3" x2="166.7" y2="593.8" w="2.4" color="#dfe7ff" op="1.0"/>
<line x1="164.8" y1="519.9" x2="142.7" y2="540.4" w="2.4" color="#dfe7ff" op="1.0"/>
<line x1="160.3" y1="509.0" x2="91.4" y2="512.4" w="2.4" color="#dfe7ff" op="1.0"/>
<line x1="163.8" y1="497.8" x2="139.7" y2="479.5" w="2.4" color="#dfe7ff" op="1.0"/>
<line x1="173.7" y1="491.4" x2="158.4" y2="424.1" w="2.4" color="#dfe7ff" op="1.0"/>
<line x1="185.4" y1="492.9" x2="199.2" y2="466.0" w="2.4" color="#dfe7ff" op="1.0"/>
<line x1="193.4" y1="501.5" x2="257.0" y2="474.8" w="2.4" color="#dfe7ff" op="1.0"/>
<line x1="379.0" y1="513.3" x2="444.9" y2="533.7" w="2.4" color="#dfe7ff" op="1.0"/>
<line x1="371.8" y1="522.7" x2="388.2" y2="548.1" w="2.4" color="#dfe7ff" op="1.0"/>
<line x1="360.3" y1="525.3" x2="351.7" y2="593.8" w="2.4" color="#dfe7ff" op="1.0"/>
<line x1="349.8" y1="519.9" x2="327.7" y2="540.4" w="2.4" color="#dfe7ff" op="1.0"/>
<line x1="345.3" y1="509.0" x2="276.4" y2="512.4" w="2.4" color="#dfe7ff" op="1.0"/>
<line x1="348.8" y1="497.8" x2="324.7" y2="479.5" w="2.4" color="#dfe7ff" op="1.0"/>
<line x1="358.7" y1="491.4" x2="343.4" y2="424.1" w="2.4" color="#dfe7ff" op="1.0"/>
<line x1="370.4" y1="492.9" x2="384.2" y2="466.0" w="2.4" color="#dfe7ff" op="1.0"/>
<line x1="378.4" y1="501.5" x2="442.0" y2="474.8" w="2.4" color="#dfe7ff" op="1.0"/>
<rect x="16" y="16" width="508" height="928" rx="26" fill="none" stroke="#e6c79c" stroke-width="2.4" stroke-linecap="round" stroke-linejoin="round" stroke-opacity="0.90"/>
<rect x="30" y="30" width="480" height="900" rx="18" fill="none" stroke="#dfe7ff" stroke-width="1.5" stroke-linecap="round" stroke-linejoin="round" stroke-opacity="0.26"/>
<path d="M 52.0 41.0 L 54.3 49.7 L 63.0 52.0 L 54.3 54.3 L 52.0 63.0 L 49.7 54.3 L 41.0 52.0 L 49.7 49.7 Z" fill="none" stroke="#e6c79c" stroke-width="1.6" stroke-linecap="round" stroke-linejoin="round" stroke-opacity="0.80"/>
<path d="M 488.0 41.0 L 490.3 49.7 L 499.0 52.0 L 490.3 54.3 L 488.0 63.0 L 485.7 54.3 L 477.0 52.0 L 485.7 49.7 Z" fill="none" stroke="#e6c79c" stroke-width="1.6" stroke-linecap="round" stroke-linejoin="round" stroke-opacity="0.80"/>
<path d="M 52.0 897.0 L 54.3 905.7 L 63.0 908.0 L 54.3 910.3 L 52.0 919.0 L 49.7 910.3 L 41.0 908.0 L 49.7 905.7 Z" fill="none" stroke="#e6c79c" stroke-width="1.6" stroke-linecap="round" stroke-linejoin="round" stroke-opacity="0.80"/>
<path d="M 488.0 897.0 L 490.3 905.7 L 499.0 908.0 L 490.3 910.3 L 488.0 919.0 L 485.7 910.3 L 477.0 908.0 L 485.7 905.7 Z" fill="none" stroke="#e6c79c" stroke-width="1.6" stroke-linecap="round" stroke-linejoin="round" stroke-opacity="0.80"/>
<text x="270" y="894" text-anchor="middle" fill="#e6c79c" font-family="'Avenir Next', system-ui, sans-serif" font-size="24" letter-spacing="5" font-weight="500">FOUR OF WANDS</text>
</svg>
