<svg xmlns="http://www.w3.org/2000/svg" viewBox="0 0 540 960" width="540" height="960">
<defs><radialGradient id="bg" cx="50%" cy="36%" r="85%"><stop offset="0%" stop-color="#141b3f"/><stop offset="100%" stop-color="#090e24"/></radialGradient></defs>
<rect x="0" y="0" width="540" height="960" rx="38" fill="url(#bg)"/>
<circle cx="352.1" cy="800.9" r="1.7" fill="#dfe7ff" stroke="none" fill-opacity="0.17"/>
<circle cx="108.9" cy="423.1" r="2.3" fill="#dfe7ff" stroke="none" fill-opacity="0.32"/>
<circle cx="274.7" cy="484.9" r="1.2" fill="#dfe7ff" stroke="none" fill-opacity="0.40"/>
<circle cx="259.2" cy="723.5" r="1.8" fill="#dfe7ff" stroke="none" fill-opacity="0.21"/>
<circle cx="295.0" cy="286.9" r="1.8" fill="#dfe7ff" stroke="none" fill-opacity="0.31"/>
<line x1="466.6" y1="928.7" x2="474.0" y2="928.7" w="1.2" color="#dfe7ff" op="0.33618565835297076"/>
<line x1="466.6" y1="928.7" x2="466.6" y2="936.1" w="1.2" color="#dfe7ff" op="0.33618565835297076"/>
<line x1="466.6" y1="928.7" x2="459.2" y2="928.7" w="1.2" color="#dfe7ff" op="0.33618565835297076"/>
<line x1="466.6" y1="928.7" x2="466.6" y2="921.3" w="1.2" color="#dfe7ff" op="0.33618565835297076"/>
<circle cx="121.6" cy="420.0" r="2.4" fill="#dfe7ff" stroke="none" fill-opacity="0.31"/>
<circle cx="474.6" cy="55.3" r="1.9" fill="#dfe7ff" stroke="none" fill-opacity="0.26"/>
<circle cx="55.3" cy="812.1" r="2.1" fill="#dfe7ff" stroke="none" fill-opacity="0.17"/>
<circle cx="303.1" cy="244.3" r="1.2" fill="#dfe7ff" stroke="none" fill-opacity="0.26"/>
<line x1="487.6" y1="110.1" x2="490.9" y2="110.1" w="1.2" color="#dfe7ff" op="0.244180177471277"/>
<line x1="487.6" y1="110.1" x2="487.6" y2="113.4" w="1.2" color="#dfe7ff" op="0.244180177471277"/>
<line x1="487.6" y1="110.1" x2="484.4" y2="110.1" w="1.2" color="#dfe7ff" op="0.244180177471277"/>
<line x1="487.6" y1="110.1" x2="487.6" y2="106.9" w="1.2" color="#dfe7ff" op="0.244180177471277"/>
<line x1="116.1" y1="592.2" x2="124.4" y2="592.2" w="1.2" color="#dfe7ff" op="0.3190734438426981"/>
<line x1="116.1" y1="592.2" x2="116.1" y2="600.5" w="1.2" color="#dfe7ff" op="0.3190734438426981"/>
<line x1="116.1" y1="592.2" x2="107.9" y2="592.2" w="1.2" color="#dfe7ff" op="0.3190734438426981"/>
<line x1="116.1" y1="592.2" x2="116.1" y2="584.0" w="1.2" color="#dfe7ff" op="0.3190734438426981"/>
<circle cx="42.0" cy="71.6" r="2.4" fill="#dfe7ff" stroke="none" fill-opacity="0.29"/>
<circle cx="498.3" cy="778.0" r="2.5" fill="#dfe7ff" stroke="none" fill-opacity="0.37"/>
<circle cx="263.0" cy="427.6" r="2.2" fill="#dfe7ff" stroke="none" fill-opacity="0.37"/>
<circle cx="81.4" cy="30.0" r="2.5" fill="#dfe7ff" stroke="none" fill-opacity="0.30"/>
<circle cx="290.0" cy="602.8" r="1.0" fill="#dfe7ff" stroke="none" fill-opacity="0.11"/>
<line x1="145.6" y1="221.6" x2="154.2" y2="221.6" w="1.2" color="#dfe7ff" op="0.28996562376714924"/>
<line x1="145.6" y1="221.6" x2="145.6" y2="230.2" w="1.2" color="#dfe7ff" op="0.28996562376714924"/>
<line x1="145.6" y1="221.6" x2="137.0" y2="221.6" w="1.2" color="#dfe7ff" op="0.28996562376714924"/>
<line x1="145.6" y1="221.6" x2="145.6" y2="213.0" w="1.2" color="#dfe7ff" op="0.28996562376714924"/>
<circle cx="182.5" cy="516.1" r="1.0" fill="#dfe7ff" stroke="none" fill-opacity="0.18"/>
<circle cx="243.8" cy="597.0" r="1.3" fill="#dfe7ff" stroke="none" fill-opacity="0.29"/>
<circle cx="144.7" cy="460.6" r="2.0" fill="#dfe7ff" stroke="none" fill-opacity="0.37"/>
<line x1="147.8" y1="765.7" x2="152.2" y2="765.7" w="1.2" color="#dfe7ff" op="0.16686116775740467"/>
<line x1="147.8" y1="765.7" x2="147.8" y2="770.1" w="1.2" color="#dfe7ff" op="0.16686116775740467"/>
<line x1="147.8" y1="765.7" x2="143.4" y2="765.7" w="1.2" color="#dfe7ff" op="0.16686116775740467"/>
<line x1="147.8" y1="765.7" x2="147.8" y2="761.2" w="1.2" color="#dfe7ff" op="0.16686116775740467"/>
<line x1="367.5" y1="495.7" x2="374.0" y2="495.7" w="1.2" color="#dfe7ff" op="0.22511212748439563"/>
<line x1="367.5" y1="495.7" x2="367.5" y2="502.2" w="1.2" color="#dfe7ff" op="0.22511212748439563"/>
<line x1="367.5" y1="495.7" x2="360.9" y2="495.7" w="1.2" color="#dfe7ff" op="0.22511212748439563"/>
<line x1="367.5" y1="495.7" x2="367.5" y2="489.2" w="1.2" color="#dfe7ff" op="0.22511212748439563"/>
<circle cx="297.2" cy="607.0" r="2.4" fill="#dfe7ff" stroke="none" fill-opacity="0.21"/>
<line x1="379.1" y1="470.4" x2="384.4" y2="470.4" w="1.2" color="#dfe7ff" op="0.10388908760354032"/>
<line x1="379.1" y1="470.4" x2="379.1" y2="475.7" w="1.2" color="#dfe7ff" op="0.10388908760354032"/>
<line x1="379.1" y1="470.4" x2="373.8" y2="470.4" w="1.2" color="#dfe7ff" op="0.10388908760354032"/>
<line x1="379.1" y1="470.4" x2="379.1" y2="465.1" w="1.2" color="#dfe7ff" op="0.10388908760354032"/>
<line x1="374.7" y1="92.7" x2="378.3" y2="92.7" w="1.2" color="#dfe7ff" op="0.26367341619859563"/>
<line x1="374.7" y1="92.7" x2="374.7" y2="96.3" w="1.2" color="#dfe7ff" op="0.26367341619859563"/>
<line x1="374.7" y1="92.7" x2="371.1" y2="92.7" w="1.2" color="#dfe7ff" op="0.26367341619859563"/>
<line x1="374.7" y1="92.7" x2="374.7" y2="89.1" w="1.2" color="#dfe7ff" op="0.26367341619859563"/>
<circle cx="51.5" cy="831.7" r="1.1" fill="#dfe7ff" stroke="none" fill-opacity="0.34"/>
<circle cx="251.5" cy="396.2" r="1.8" fill="#dfe7ff" stroke="none" fill-opacity="0.13"/>
<line x1="167.7" y1="844.2" x2="171.8" y2="844.2" w="1.2" color="#dfe7ff" op="0.22024834452954192"/>
<line x1="167.7" y1="844.2" x2="167.7" y2="848.3" w="1.2" color="#dfe7ff" op="0.22024834452954192"/>
<line x1="167.7" y1="844.2" x2="163.7" y2="844.2" w="1.2" color="#dfe7ff" op="0.22024834452954192"/>
<line x1="167.7" y1="844.2" x2="167.7" y2="840.2" w="1.2" color="#dfe7ff" op="0.22024834452954192"/>
<circle cx="278.5" cy="269.6" r="1.2" fill="#dfe7ff" stroke="none" fill-opacity="0.13"/>
<circle cx="391.5" cy="113.7" r="1.8" fill="#dfe7ff" stroke="none" fill-opacity="0.23"/>
<circle cx="233.8" cy="645.6" r="2.4" fill="#dfe7ff" stroke="none" fill-opacity="0.28"/>
<line x1="65.6" y1="701.8" x2="71.5" y2="701.8" w="1.2" color="#dfe7ff" op="0.2597005568844737"/>
<line x1="65.6" y1="701.8" x2="65.6" y2="707.8" w="1.2" color="#dfe7ff" op="0.2597005568844737"/>
<line x1="65.6" y1="701.8" x2="59.6" y2="701.8" w="1.2" color="#dfe7ff" op="0.2597005568844737"/>
<line x1="65.6" y1="701.8" x2="65.6" y2="695.9" w="1.2" color="#dfe7ff" op="0.2597005568844737"/>
<circle cx="180.4" cy="212.9" r="1.4" fill="#dfe7ff" stroke="none" fill-opacity="0.33"/>
<circle cx="507.5" cy="304.8" r="2.1" fill="#dfe7ff" stroke="none" fill-opacity="0.28"/>
<line x1="269.4" y1="40.5" x2="274.9" y2="40.5" w="1.2" color="#dfe7ff" op="0.1677375469710723"/>
<line x1="269.4" y1="40.5" x2="269.4" y2="46.0" w="1.2" color="#dfe7ff" op="0.1677375469710723"/>
<line x1="269.4" y1="40.5" x2="263.9" y2="40.5" w="1.2" color="#dfe7ff" op="0.1677375469710723"/>
<line x1="269.4" y1="40.5" x2="269.4" y2="35.0" w="1.2" color="#dfe7ff" op="0.1677375469710723"/>
<circle cx="181.9" cy="503.8" r="1.2" fill="#dfe7ff" stroke="none" fill-opacity="0.30"/>
<circle cx="134.3" cy="268.7" r="2.5" fill="#dfe7ff" stroke="none" fill-opacity="0.18"/>
<circle cx="498.5" cy="904.3" r="2.3" fill="#dfe7ff" stroke="none" fill-opacity="0.11"/>
<circle cx="384.8" cy="742.4" r="1.9" fill="#dfe7ff" stroke="none" fill-opacity="0.39"/>
<circle cx="103.5" cy="294.3" r="2.0" fill="#dfe7ff" stroke="none" fill-opacity="0.16"/>
<circle cx="489.6" cy="121.2" r="1.2" fill="#dfe7ff" stroke="none" fill-opacity="0.39"/>
<circle cx="506.0" cy="79.0" r="2.0" fill="#dfe7ff" stroke="none" fill-opacity="0.17"/>
<circle cx="307.5" cy="192.5" r="2.0" fill="#dfe7ff" stroke="none" fill-opacity="0.19"/>
<circle cx="484.9" cy="295.5" r="2.6" fill="#dfe7ff" stroke="none" fill-opacity="0.30"/>
<circle cx="280.9" cy="504.3" r="1.5" fill="#dfe7ff" stroke="none" fill-opacity="0.28"/>
<line x1="362.9" y1="358.9" x2="370.7" y2="358.9" w="1.2" color="#dfe7ff" op="0.30914715747178445"/>
<line x1="362.9" y1="358.9" x2="362.9" y2="366.8" w="1.2" color="#dfe7ff" op="0.30914715747178445"/>
<line x1="362.9" y1="358.9" x2="355.1" y2="358.9" w="1.2" color="#dfe7ff" op="0.30914715747178445"/>
<line x1="362.9" y1="358.9" x2="362.9" y2="351.1" w="1.2" color="#dfe7ff" op="0.30914715747178445"/>
<circle cx="272.1" cy="907.3" r="1.9" fill="#dfe7ff" stroke="none" fill-opacity="0.28"/>
<line x1="447.7" y1="41.7" x2="455.7" y2="41.7" w="1.2" color="#dfe7ff" op="0.3801499540257576"/>
<line x1="447.7" y1="41.7" x2="447.7" y2="49.7" w="1.2" color="#dfe7ff" op="0.3801499540257576"/>
<line x1="447.7" y1="41.7" x2="439.7" y2="41.7" w="1.2" color="#dfe7ff" op="0.3801499540257576"/>
<line x1="447.7" y1="41.7" x2="447.7" y2="33.7" w="1.2" color="#dfe7ff" op="0.3801499540257576"/>
<line x1="167.4" y1="802.9" x2="170.5" y2="802.9" w="1.2" color="#dfe7ff" op="0.35195716190999704"/>
<line x1="167.4" y1="802.9" x2="167.4" y2="806.0" w="1.2" color="#dfe7ff" op="0.35195716190999704"/>
<line x1="167.4" y1="802.9" x2="164.3" y2="802.9" w="1.2" color="#dfe7ff" op="0.35195716190999704"/>
<line x1="167.4" y1="802.9" x2="167.4" y2="799.8" w="1.2" color="#dfe7ff" op="0.35195716190999704"/>
<circle cx="469.5" cy="333.0" r="1.4" fill="#dfe7ff" stroke="none" fill-opacity="0.13"/>
<circle cx="53.3" cy="132.8" r="1.1" fill="#dfe7ff" stroke="none" fill-opacity="0.33"/>
<circle cx="271.3" cy="580.9" r="1.8" fill="#dfe7ff" stroke="none" fill-opacity="0.31"/>
<circle cx="48.7" cy="436.7" r="1.3" fill="#dfe7ff" stroke="none" fill-opacity="0.27"/>
<circle cx="452.3" cy="900.9" r="1.7" fill="#dfe7ff" stroke="none" fill-opacity="0.33"/>
<line x1="42.7" y1="902.0" x2="46.1" y2="902.0" w="1.2" color="#dfe7ff" op="0.1777611034391029"/>
<line x1="42.7" y1="902.0" x2="42.7" y2="905.3" w="1.2" color="#dfe7ff" op="0.1777611034391029"/>
<line x1="42.7" y1="902.0" x2="39.4" y2="902.0" w="1.2" color="#dfe7ff" op="0.1777611034391029"/>
<line x1="42.7" y1="902.0" x2="42.7" y2="898.6" w="1.2" color="#dfe7ff" op="0.1777611034391029"/>
<line x1="173.4" y1="81.9" x2="176.6" y2="81.9" w="1.2" color="#dfe7ff" op="0.20554335249305491"/>
<line x1="173.4" y1="81.9" x2="173.4" y2="85.1" w="1.2" color="#dfe7ff" op="0.20554335249305491"/>
<line x1="173.4" y1="81.9" x2="170.1" y2="81.9" w="1.2" color="#dfe7ff" op="0.20554335249305491"/>
<line x1="173.4" y1="81.9" x2="173.4" y2="78.6" w="1.2" color="#dfe7ff" op="0.20554335249305491"/>
<line x1="64.2" y1="506.4" x2="70.5" y2="506.4" w="1.2" color="#dfe7ff" op="0.2548017843837041"/>
<line x1="64.2" y1="506.4" x2="64.2" y2="512.7" w="1.2" color="#dfe7ff" op="0.2548017843837041"/>
<line x1="64.2" y1="506.4" x2="57.9" y2="506.4" w="1.2" color="#dfe7ff" op="0.2548017843837041"/>
<line x1="64.2" y1="506.4" x2="64.2" y2="500.1" w="1.2" color="#dfe7ff" op="0.2548017843837041"/>
<circle cx="227.4" cy="907.7" r="2.6" fill="#dfe7ff" stroke="none" fill-opacity="0.31"/>
<circle cx="503.0" cy="773.9" r="1.6" fill="#dfe7ff" stroke="none" fill-opacity="0.36"/>
<circle cx="283.9" cy="898.3" r="1.6" fill="#dfe7ff" stroke="none" fill-opacity="0.10"/>
<circle cx="484.6" cy="243.0" r="1.8" fill="#dfe7ff" stroke="none" fill-opacity="0.38"/>
<circle cx="283.2" cy="141.4" r="2.3" fill="#dfe7ff" stroke="none" fill-opacity="0.35"/>
<line x1="489.9" y1="498.2" x2="494.4" y2="498.2" w="1.2" color="#dfe7ff" op="0.19471318203979038"/>
<line x1="489.9" y1="498.2" x2="489.9" y2="502.7" w="1.2" color="#dfe7ff" op="0.19471318203979038"/>
<line x1="489.9" y1="498.2" x2="485.4" y2="498.2" w="1.2" color="#dfe7ff" op="0.19471318203979038"/>
<line x1="489.9" y1="498.2" x2="489.9" y2="493.7" w="1.2" color="#dfe7ff" op="0.19471318203979038"/>
<circle cx="270.0" cy="403.2" r="150.0"/>
<line x1="270.0" y1="403.2" x2="420.0" y2="403.2" fill="none" stroke="#dfe7ff" stroke-width="2.4" stroke-linecap="round" stroke-linejoin="round" stroke-opacity="0.80"/>
<line x1="270.0" y1="403.2" x2="376.1" y2="509.3" fill="none" stroke="#dfe7ff" stroke-width="2.4" stroke-linecap="round" stroke-linejoin="round" stroke-opacity="0.80"/>
<line x1="270.0" y1="403.2" x2="270.0" y2="553.2" fill="none" stroke="#dfe7ff" stroke-width="2.4" stroke-linecap="round" stroke-linejoin="round" stroke-opacity="0.80"/>
<line x1="270.0" y1="403.2" x2="163.9" y2="509.3" fill="none" stroke="#dfe7ff" stroke-width="2.4" stroke-linecap="round" stroke-linejoin="round" stroke-opacity="0.80"/>
<line x1="270.0" y1="403.2" x2="120.0" y2="403.2" fill="none" stroke="#dfe7ff" stroke-width="2.4" stroke-linecap="round" stroke-linejoin="round" stroke-opacity="0.80"/>
<line x1="270.0" y1="403.2" x2="163.9" y2="297.1" fill="none" stroke="#dfe7ff" stroke-width="2.4" stroke-linecap="round" stroke-linejoin="round" stroke-opacity="0.80"/>
<line x1="270.0" y1="403.2" x2="270.0" y2="253.2" fill="none" stroke="#dfe7ff" stroke-width="2.4" stroke-linecap="round" stroke-linejoin="round" stroke-opacity="0.80"/>
<line x1="270.0" y1="403.2" x2="376.1" y2="297.1" fill="none" stroke="#dfe7ff" stroke-width="2.4" stroke-linecap="round" stroke-linejoin="round" stroke-opacity="0.80"/>
<path d="M 270.0 353.2 L 284.1 389.1 L 320.0 403.2 L 284.1 417.3 L 270.0 453.2 L 255.9 417.3 L 220.0 403.2 L 255.9 389.1 Z" fill="none" stroke="#dfe7ff" stroke-width="3.4" stroke-linecap="round" stroke-linejoin="round" stroke-opacity="0.95"/>
<rect x="16" y="16" width="508" height="928" rx="26" fill="none" stroke="#e6c79c" stroke-width="2.4" stroke-linecap="round" stroke-linejoin="round" stroke-opacity="0.90"/>
<rect x="30" y="30" width="480" height="900" rx="18" fill="none" stroke="#dfe7ff" stroke-width="1.5" stroke-linecap="round" stroke-linejoin="round" stroke-opacity="0.26"/>
<path d="M 52.0 41.0 L 54.3 49.7 L 63.0 52.0 L 54.3 54.3 L 52.0 63.0 L 49.7 54.3 L 41.0 52.0 L 49.7 49.7 Z" fill="none" stroke="#e6c79c" stroke-width="1.6" stroke-linecap="round" stroke-linejoin="round" stroke-opacity="0.80"/>
<path d="M 488.0 41.0 L 490.3 49.7 L 499.0 52.0 L 490.3 54.3 L 488.0 63.0 L 485.7 54.3 L 477.0 52.0 L 485.7 49.7 Z" fill="none" stroke="#e6c79c" stroke-width="1.6" stroke-linecap="round" stroke-linejoin="round" stroke-opacity="0.80"/>
<path d="M 52.0 897.0 L 54.3 905.7 L 63.0 908.0 L 54.3 910.3 L 52.0 919.0 L 49.7 910.3 L 41.0 908.0 L 49.7 905.7 Z" fill="none" stroke="#e6c79c" stroke-width="1.6" stroke-linecap="round" stroke-linejoin="round" stroke-opacity="0.80"/>
<path d="M 488.0 897.0 L 490.3 905.7 L 499.0 908.0 L 490.3 910.3 L 488.0 919.0 L 485.7 910.3 L 477.0 908.0 L 485.7 905.7 Z" fill="none" stroke="#e6c79c" stroke-width="1.6" stroke-linecap="round" stroke-linejoin="round" stroke-opacity="0.80"/>
<text x="270" y="894" text-anchor="middle" fill="#e6c79c" font-family="'Avenir Next', system-ui, sans-serif" font-size="24" letter-spacing="5" font-weight="500">WHEEL OF FORTUNE</text>
</svg>
