<svg xmlns="http://www.w3.org/2000/svg" viewBox="0 0 540 960" width="540" height="960">
<line x1="490.1" y1="218.5" x2="493.5" y2="218.5" w="1.2" color="#dfe7ff" op="0.18175018681044122"/>
<line x1="490.1" y1="218.5" x2="490.1" y2="221.9" w="1.2" color="#dfe7ff" op="0.18175018681044122"/>
<line x1="490.1" y1="218.5" x2="486.7" y2="218.5" w="1.2" color="#dfe7ff" op="0.18175018681044122"/>
<line x1="490.1" y1="218.5" x2="490.1" y2="215.1" w="1.2" color="#dfe7ff" op="0.18175018681044122"/>
<circle cx="66.6" cy="664.8" r="1.6" fill="#dfe7ff" stroke="none" fill-opacity="0.17"/>
<line x1="412.3" y1="177.7" x2="415.7" y2="177.7" w="1.2" color="#dfe7ff" op="0.3488691214257065"/>
<line x1="412.3" y1="177.7" x2="412.3" y2="181.0" w="1.2" color="#dfe7ff" op="0.3488691214257065"/>
<line x1="412.3" y1="177.7" x2="409.0" y2="177.7" w="1.2" color="#dfe7ff" op="0.3488691214257065"/>
<line x1="412.3" y1="177.7" x2="412.3" y2="174.3" w="1.2" color="#dfe7ff" op="0.3488691214257065"/>
<circle cx="259.8" cy="113.2" r="1.1" fill="#dfe7ff" stroke="none" fill-opacity="0.25"/>
<circle cx="217.9" cy="885.5" r="2.4" fill="#dfe7ff" stroke="none" fill-opacity="0.19"/>
<circle cx="294.9" cy="445.1" r="2.4" fill="#dfe7ff" stroke="none" fill-opacity="0.19"/>
<line x1="162.3" y1="668.7" x2="167.7" y2="668.7" w="1.2" color="#dfe7ff" op="0.2596650347522203"/>
<line x1="162.3" y1="668.7" x2="162.3" y2="674.1" w="1.2" color="#dfe7ff" op="0.2596650347522203"/>
<line x1="162.3" y1="668.7" x2="156.9" y2="668.7" w="1.2" color="#dfe7ff" op="0.2596650347522203"/>
<line x1="162.3" y1="668.7" x2="162.3" y2="663.3" w="1.2" color="#dfe7ff" op="0.2596650347522203"/>
<circle cx="329.0" cy="84.0" r="2.0" fill="#dfe7ff" stroke="none" fill-opacity="0.29"/>
<circle cx="200.7" cy="559.0" r="1.5" fill="#dfe7ff" stroke="none" fill-opacity="0.38"/>
<circle cx="398.7" cy="196.8" r="2.1" fill="#dfe7ff" stroke="none" fill-opacity="0.20"/>
<circle cx="327.9" cy="261.7" r="1.3" fill="#dfe7ff" stroke="none" fill-opacity="0.15"/>
<circle cx="482.9" cy="544.8" r="1.4" fill="#dfe7ff" stroke="none" fill-opacity="0.35"/>
<line x1="418.0" y1="40.7" x2="423.0" y2="40.7" w="1.2" color="#dfe7ff" op="0.1852891130922827"/>
<line x1="418.0" y1="40.7" x2="418.0" y2="45.6" w="1.2" color="#dfe7ff" op="0.1852891130922827"/>
<line x1="418.0" y1="40.7" x2="413.0" y2="40.7" w="1.2" color="#dfe7ff" op="0.1852891130922827"/>
<line x1="418.0" y1="40.7" x2="418.0" y2="35.7" w="1.2" color="#dfe7ff" op="0.1852891130922827"/>
<circle cx="464.3" cy="533.8" r="2.4" fill="#dfe7ff" stroke="none" fill-opacity="0.32"/>
<circle cx="227.4" cy="67.4" r="1.8" fill="#dfe7ff" stroke="none" fill-opacity="0.17"/>
<circle cx="140.9" cy="197.4" r="1.4" fill="#dfe7ff" stroke="none" fill-opacity="0.17"/>
<circle cx="470.7" cy="161.9" r="1.9" fill="#dfe7ff" stroke="none" fill-opacity="0.13"/>
<circle cx="342.3" cy="564.5" r="2.1" fill="#dfe7ff" stroke="none" fill-opacity="0.13"/>
<line x1="356.7" y1="177.0" x2="362.9" y2="177.0" w="1.2" color="#dfe7ff" op="0.3304137037556708"/>
<line x1="356.7" y1="177.0" x2="356.7" y2="183.2" w="1.2" color="#dfe7ff" op="0.3304137037556708"/>
<line x1="356.7" y1="177.0" x2="350.4" y2="177.0" w="1.2" color="#dfe7ff" op="0.3304137037556708"/>
<line x1="356.7" y1="177.0" x2="356.7" y2="170.8" w="1.2" color="#dfe7ff" op="0.3304137037556708"/>
<circle cx="509.5" cy="470.1" r="2.6" fill="#dfe7ff" stroke="none" fill-opacity="0.23"/>
<line x1="330.8" y1="402.7" x2="334.1" y2="402.7" w="1.2" color="#dfe7ff" op="0.26587339761663775"/>
<line x1="330.8" y1="402.7" x2="330.8" y2="406.0" w="1.2" color="#dfe7ff" op="0.26587339761663775"/>
<line x1="330.8" y1="402.7" x2="327.5" y2="402.7" w="1.2" color="#dfe7ff" op="0.26587339761663775"/>
<line x1="330.8" y1="402.7" x2="330.8" y2="399.4" w="1.2" color="#dfe7ff" op="0.26587339761663775"/>
<circle cx="414.9" cy="384.4" r="1.4" fill="#dfe7ff" stroke="none" fill-opacity="0.17"/>
<circle cx="135.4" cy="734.3" r="1.7" fill="#dfe7ff" stroke="none" fill-opacity="0.28"/>
<circle cx="350.0" cy="213.0" r="2.5" fill="#dfe7ff" stroke="none" fill-opacity="0.26"/>
<circle cx="443.7" cy="532.7" r="2.3" fill="#dfe7ff" stroke="none" fill-opacity="0.22"/>
<line x1="336.0" y1="417.7" x2="344.2" y2="417.7" w="1.2" color="#dfe7ff" op="0.3029975144477497"/>
<line x1="336.0" y1="417.7" x2="336.0" y2="425.9" w="1.2" color="#dfe7ff" op="0.3029975144477497"/>
<line x1="336.0" y1="417.7" x2="327.8" y2="417.7" w="1.2" color="#dfe7ff" op="0.3029975144477497"/>
<line x1="336.0" y1="417.7" x2="336.0" y2="409.5" w="1.2" color="#dfe7ff" op="0.3029975144477497"/>
<circle cx="174.7" cy="489.4" r="1.6" fill="#dfe7ff" stroke="none" fill-opacity="0.12"/>
<line x1="465.9" y1="285.4" x2="473.3" y2="285.4" w="1.2" color="#dfe7ff" op="0.1931876620482959"/>
<line x1="465.9" y1="285.4" x2="465.9" y2="292.8" w="1.2" color="#dfe7ff" op="0.1931876620482959"/>
<line x1="465.9" y1="285.4" x2="458.6" y2="285.4" w="1.2" color="#dfe7ff" op="0.1931876620482959"/>
<line x1="465.9" y1="285.4" x2="465.9" y2="278.0" w="1.2" color="#dfe7ff" op="0.1931876620482959"/>
<circle cx="491.4" cy="418.0" r="1.0" fill="#dfe7ff" stroke="none" fill-opacity="0.15"/>
<circle cx="32.0" cy="500.0" r="2.0" fill="#dfe7ff" stroke="none" fill-opacity="0.17"/>
<line x1="459.5" y1="868.9" x2="464.6" y2="868.9" w="1.2" color="#dfe7ff" op="0.31876958730143723"/>
<line x1="459.5" y1="868.9" x2="459.5" y2="874.0" w="1.2" color="#dfe7ff" op="0.31876958730143723"/>
<line x1="459.5" y1="868.9" x2="454.4" y2="868.9" w="1.2" color="#dfe7ff" op="0.31876958730143723"/>
<line x1="459.5" y1="868.9" x2="459.5" y2="863.8" w="1.2" color="#dfe7ff" op="0.31876958730143723"/>
<circle cx="483.3" cy="95.1" r="2.3" fill="#dfe7ff" stroke="none" fill-opacity="0.13"/>
<circle cx="456.8" cy="143.5" r="2.5" fill="#dfe7ff" stroke="none" fill-opacity="0.13"/>
<circle cx="344.5" cy="877.3" r="2.4" fill="#dfe7ff" stroke="none" fill-opacity="0.25"/>
<line x1="125.6" y1="224.1" x2="134.3" y2="224.1" w="1.2" color="#dfe7ff" op="0.3109822354960867"/>
<line x1="125.6" y1="224.1" x2="125.6" y2="232.8" w="1.2" color="#dfe7ff" op="0.3109822354960867"/>
<line x1="125.6" y1="224.1" x2="116.8" y2="224.1" w="1.2" color="#dfe7ff" op="0.3109822354960867"/>
<line x1="125.6" y1="224.1" x2="125.6" y2="215.3" w="1.2" color="#dfe7ff" op="0.3109822354960867"/>
<line x1="392.5" y1="383.8" x2="400.4" y2="383.8" w="1.2" color="#dfe7ff" op="0.3597105450214595"/>
<line x1="392.5" y1="383.8" x2="392.5" y2="391.7" w="1.2" color="#dfe7ff" op="0.3597105450214595"/>
<line x1="392.5" y1="383.8" x2="384.5" y2="383.8" w="1.2" color="#dfe7ff" op="0.3597105450214595"/>
<line x1="392.5" y1="383.8" x2="392.5" y2="375.9" w="1.2" color="#dfe7ff" op="0.3597105450214595"/>
<line x1="246.2" y1="471.0" x2="251.1" y2="471.0" w="1.2" color="#dfe7ff" op="0.3458856697901879"/>
<line x1="246.2" y1="471.0" x2="246.2" y2="476.0" w="1.2" color="#dfe7ff" op="0.3458856697901879"/>
<line x1="246.2" y1="471.0" x2="241.2" y2="471.0" w="1.2" color="#dfe7ff" op="0.3458856697901879"/>
<line x1="246.2" y1="471.0" x2="246.2" y2="466.1" w="1.2" color="#dfe7ff" op="0.3458856697901879"/>
<circle cx="288.4" cy="634.7" r="2.1" fill="#dfe7ff" stroke="none" fill-opacity="0.32"/>
<line x1="355.3" y1="612.4" x2="363.1" y2="612.4" w="1.2" color="#dfe7ff" op="0.2140620711606717"/>
<line x1="355.3" y1="612.4" x2="355.3" y2="620.3" w="1.2" color="#dfe7ff" op="0.2140620711606717"/>
<line x1="355.3" y1="612.4" x2="347.4" y2="612.4" w="1.2" color="#dfe7ff" op="0.2140620711606717"/>
<line x1="355.3" y1="612.4" x2="355.3" y2="604.6" w="1.2" color="#dfe7ff" op="0.2140620711606717"/>
<circle cx="141.6" cy="612.4" r="2.1" fill="#dfe7ff" stroke="none" fill-opacity="0.22"/>
<circle cx="36.1" cy="143.8" r="2.4" fill="#dfe7ff" stroke="none" fill-opacity="0.31"/>
<line x1="293.8" y1="704.5" x2="301.6" y2="704.5" w="1.2" color="#dfe7ff" op="0.14139796889377257"/>
<line x1="293.8" y1="704.5" x2="293.8" y2="712.3" w="1.2" color="#dfe7ff" op="0.14139796889377257"/>
<line x1="293.8" y1="704.5" x2="286.0" y2="704.5" w="1.2" color="#dfe7ff" op="0.14139796889377257"/>
<line x1="293.8" y1="704.5" x2="293.8" y2="696.7" w="1.2" color="#dfe7ff" op="0.14139796889377257"/>
<circle cx="353.1" cy="304.5" r="2.3" fill="#dfe7ff" stroke="none" fill-opacity="0.29"/>
<line x1="460.1" y1="346.1" x2="467.2" y2="346.1" w="1.2" color="#dfe7ff" op="0.16403000178693272"/>
<line x1="460.1" y1="346.1" x2="460.1" y2="353.1" w="1.2" color="#dfe7ff" op="0.16403000178693272"/>
<line x1="460.1" y1="346.1" x2="453.1" y2="346.1" w="1.2" color="#dfe7ff" op="0.16403000178693272"/>
<line x1="460.1" y1="346.1" x2="460.1" y2="339.0" w="1.2" color="#dfe7ff" op="0.16403000178693272"/>
<circle cx="396.2" cy="240.9" r="1.4" fill="#dfe7ff" stroke="none" fill-opacity="0.38"/>
<line x1="287.6" y1="327.3" x2="295.8" y2="327.3" w="1.2" color="#dfe7ff" op="0.23936914184081476"/>
<line x1="287.6" y1="327.3" x2="287.6" y2="335.5" w="1.2" color="#dfe7ff" op="0.23936914184081476"/>
<line x1="287.6" y1="327.3" x2="279.4" y2="327.3" w="1.2" color="#dfe7ff" op="0.23936914184081476"/>
<line x1="287.6" y1="327.3" x2="287.6" y2="319.1" w="1.2" color="#dfe7ff" op="0.23936914184081476"/>
<line x1="143.8" y1="138.6" x2="147.6" y2="138.6" w="1.2" color="#dfe7ff" op="0.26740228899354346"/>
<line x1="143.8" y1="138.6" x2="143.8" y2="142.4" w="1.2" color="#dfe7ff" op="0.26740228899354346"/>
<line x1="143.8" y1="138.6" x2="140.0" y2="138.6" w="1.2" color="#dfe7ff" op="0.26740228899354346"/>
<line x1="143.8" y1="138.6" x2="143.8" y2="134.8" w="1.2" color="#dfe7ff" op="0.26740228899354346"/>
<line x1="78.7" y1="86.5" x2="83.2" y2="86.5" w="1.2" color="#dfe7ff" op="0.24869303367434084"/>
<line x1="78.7" y1="86.5" x2="78.7" y2="90.9" w="1.2" color="#dfe7ff" op="0.24869303367434084"/>
<line x1="78.7" y1="86.5" x2="74.2" y2="86.5" w="1.2" color="#dfe7ff" op="0.24869303367434084"/>
<line x1="78.7" y1="86.5" x2="78.7" y2="82.0" w="1.2" color="#dfe7ff" op="0.24869303367434084"/>
<line x1="299.3" y1="560.8" x2="305.4" y2="560.8" w="1.2" color="#dfe7ff" op="0.18338060981495619"/>
<line x1="299.3" y1="560.8" x2="299.3" y2="566.9" w="1.2" color="#dfe7ff" op="0.18338060981495619"/>
<line x1="299.3" y1="560.8" x2="293.2" y2="560.8" w="1.2" color="#dfe7ff" op="0.18338060981495619"/>
<line x1="299.3" y1="560.8" x2="299.3" y2="554.7" w="1.2" color="#dfe7ff" op="0.18338060981495619"/>
<circle cx="429.6" cy="806.9" r="2.6" fill="#dfe7ff" stroke="none" fill-opacity="0.37"/>
<line x1="198.6" y1="167.2" x2="201.8" y2="167.2" w="1.2" color="#dfe7ff" op="0.22616545824559361"/>
<line x1="198.6" y1="167.2" x2="198.6" y2="170.4" w="1.2" color="#dfe7ff" op="0.22616545824559361"/>
<line x1="198.6" y1="167.2" x2="195.5" y2="167.2" w="1.2" color="#dfe7ff" op="0.22616545824559361"/>
<line x1="198.6" y1="167.2" x2="198.6" y2="164.1" w="1.2" color="#dfe7ff" op="0.22616545824559361"/>
<line x1="368.8" y1="50.7" x2="377.2" y2="50.7" w="1.2" color="#dfe7ff" op="0.192091058974185"/>
<line x1="368.8" y1="50.7" x2="368.8" y2="59.1" w="1.2" color="#dfe7ff" op="0.192091058974185"/>
<line x1="368.8" y1="50.7" x2="360.4" y2="50.7" w="1.2" color="#dfe7ff" op="0.192091058974185"/>
<line x1="368.8" y1="50.7" x2="368.8" y2="42.4" w="1.2" color="#dfe7ff" op="0.192091058974185"/>
<circle cx="164.5" cy="896.6" r="1.8" fill="#dfe7ff" stroke="none" fill-opacity="0.34"/>
<circle cx="36.4" cy="392.2" r="2.1" fill="#dfe7ff" stroke="none" fill-opacity="0.30"/>
<line x1="396.1" y1="350.9" x2="401.5" y2="350.9" w="1.2" color="#dfe7ff" op="0.29703386243935553"/>
<line x1="396.1" y1="350.9" x2="396.1" y2="356.3" w="1.2" color="#dfe7ff" op="0.29703386243935553"/>
<line x1="396.1" y1="350.9" x2="390.7" y2="350.9" w="1.2" color="#dfe7ff" op="0.29703386243935553"/>
<line x1="396.1" y1="350.9" x2="396.1" y2="345.5" w="1.2" color="#dfe7ff" op="0.29703386243935553"/>
<circle cx="44.8" cy="367.1" r="1.1" fill="#dfe7ff" stroke="none" fill-opacity="0.10"/>
<line x1="353.1" y1="178.6" x2="357.1" y2="178.6" w="1.2" color="#dfe7ff" op="0.22651145271234996"/>
<line x1="353.1" y1="178.6" x2="353.1" y2="182.6" w="1.2" color="#dfe7ff" op="0.22651145271234996"/>
<line x1="353.1" y1="178.6" x2="349.1" y2="178.6" w="1.2" color="#dfe7ff" op="0.22651145271234996"/>
<line x1="353.1" y1="178.6" x2="353.1" y2="174.6" w="1.2" color="#dfe7ff" op="0.22651145271234996"/>
<circle cx="267.8" cy="182.4" r="2.5" fill="#dfe7ff" stroke="none" fill-opacity="0.31"/>
<circle cx="273.7" cy="115.5" r="2.2" fill="#dfe7ff" stroke="none" fill-opacity="0.34"/>
<line x1="243.2" y1="116.8" x2="247.5" y2="116.8" w="1.2" color="#dfe7ff" op="0.3031834953176023"/>
<line x1="243.2" y1="116.8" x2="243.2" y2="121.0" w="1.2" color="#dfe7ff" op="0.3031834953176023"/>
<line x1="243.2" y1="116.8" x2="239.0" y2="116.8" w="1.2" color="#dfe7ff" op="0.3031834953176023"/>
<line x1="243.2" y1="116.8" x2="243.2" y2="112.5" w="1.2" color="#dfe7ff" op="0.3031834953176023"/>
<circle cx="379.0" cy="599.6" r="1.6" fill="#dfe7ff" stroke="none" fill-opacity="0.27"/>
<circle cx="66.7" cy="872.9" r="1.6" fill="#dfe7ff" stroke="none" fill-opacity="0.19"/>
<circle cx="282.9" cy="152.3" r="1.0" fill="#dfe7ff" stroke="none" fill-opacity="0.27"/>
<line x1="80.6" y1="278.2" x2="87.8" y2="278.2" w="1.2" color="#dfe7ff" op="0.2054773848116195"/>
<line x1="80.6" y1="278.2" x2="80.6" y2="285.4" w="1.2" color="#dfe7ff" op="0.2054773848116195"/>
<line x1="80.6" y1="278.2" x2="73.4" y2="278.2" w="1.2" color="#dfe7ff" op="0.2054773848116195"/>
<line x1="80.6" y1="278.2" x2="80.6" y2="271.1" w="1.2" color="#dfe7ff" op="0.2054773848116195"/>
<line x1="270.9" y1="419.7" x2="354.4" y2="445.5" w="2.4" color="#dfe7ff" op="1.0"/>
<line x1="261.8" y1="431.6" x2="282.6" y2="463.7" w="2.4" color="#dfe7ff" op="1.0"/>
<line x1="247.3" y1="434.9" x2="236.3" y2="521.6" w="2.4" color="#dfe7ff" op="1.0"/>
<line x1="234.0" y1="428.0" x2="205.9" y2="454.0" w="2.4" color="#dfe7ff" op="1.0"/>
<line x1="228.2" y1="414.3" x2="140.9" y2="418.6" w="2.4" color="#dfe7ff" op="1.0"/>
<line x1="232.6" y1="400.0" x2="202.1" y2="376.9" w="2.4" color="#dfe7ff" op="1.0"/>
<line x1="245.2" y1="391.9" x2="225.8" y2="306.7" w="2.4" color="#dfe7ff" op="1.0"/>
<line x1="260.0" y1="393.8" x2="277.5" y2="359.8" w="2.4" color="#dfe7ff" op="1.0"/>
<line x1="270.1" y1="404.7" x2="350.7" y2="370.8" w="2.4" color="#dfe7ff" op="1.0"/>
<circle cx="340.0" cy="343.2" r="40.0" fill="none" stroke="#dfe7ff" stroke-width="3.4" stroke-linecap="round" stroke-linejoin="round"/>
<line x1="340.0" y1="343.2" x2="272.3" y2="411.3" w="1.5" color="#dfe7ff" op="1.0"/>
<line x1="340.0" y1="343.2" x2="262.3" y2="399.6" w="1.5" color="#dfe7ff" op="0.75"/>
<line x1="340.0" y1="343.2" x2="254.3" y2="386.5" w="1.5" color="#dfe7ff" op="0.5"/>
<path d="M 180.0 613.2 L 273.0 555.6 L 283.6 540.6 L 328.9 459.9 L 434.8 421.6" fill="none" stroke="#dfe7ff" stroke-width="2.4" stroke-linecap="round" stroke-linejoin="round" stroke-opacity="0.70"/>
<rect x="16" y="16" width="508" height="928" rx="26" fill="none" stroke="#e6c79c" stroke-width="2.4" stroke-linecap="round" stroke-linejoin="round" stroke-opacity="0.90"/>
<rect x="30" y="30" width="480" height="900" rx="18" fill="none" stroke="#dfe7ff" stroke-width="1.5" stroke-linecap="round" stroke-linejoin="round" stroke-opacity="0.26"/>
<path d="M 52.0 41.0 L 54.3 49.7 L 63.0 52.0 L 54.3 54.3 L 52.0 63.0 L 49.7 54.3 L 41.0 52.0 L 49.7 49.7 Z" fill="none" stroke="#e6c79c" stroke-width="1.6" stroke-linecap="round" stroke-linejoin="round" stroke-opacity="0.80"/>
<path d="M 488.0 41.0 L 490.3 49.7 L 499.0 52.0 L 490.3 54.3 L 488.0 63.0 L 485.7 54.3 L 477.0 52.0 L 485.7 49.7 Z" fill="none" stroke="#e6c79c" stroke-width="1.6" stroke-linecap="round" stroke-linejoin="round" stroke-opacity="0.80"/>
<path d="M 52.0 897.0 L 54.3 905.7 L 63.0 908.0 L 54.3 910.3 L 52.0 919.0 L 49.7 910.3 L 41.0 908.0 L 49.7 905.7 Z" fill="none" stroke="#e6c79c" stroke-width="1.6" stroke-linecap="round" stroke-linejoin="round" stroke-opacity="0.80"/>
<path d="M 488.0 897.0 L 490.3 905.7 L 499.0 908.0 L 490.3 910.3 L 488.0 919.0 L 485.7 910.3 L 477.0 908.0 L 485.7 905.7 Z" fill="none" stroke="#e6c79c" stroke-width="1.6" stroke-linecap="round" stroke-linejoin="round" stroke-opacity="0.80"/>
<text x="270" y="894" text-anchor="middle" fill="#e6c79c" font-family="'Avenir Next', system-ui, sans-serif" font-size="24" letter-spacing="5" font-weight="500">KNIGHT OF WANDS</text>
</svg>
