<svg xmlns="http://www.w3.org/2000/svg" viewBox="0 0 540 960" width="540" height="960">
<line x1="93.6" y1="867.1" x2="99.8" y2="867.1" fill="none" stroke="#dfe7ff" stroke-width="1.2" stroke-linecap="round" stroke-linejoin="round" stroke-opacity="0.21"/>
<line x1="93.6" y1="867.1" x2="93.6" y2="873.4" fill="none" stroke="#dfe7ff" stroke-width="1.2" stroke-linecap="round" stroke-linejoin="round" stroke-opacity="0.21"/>
<line x1="93.6" y1="867.1" x2="87.3" y2="867.1" fill="none" stroke="#dfe7ff" stroke-width="1.2" stroke-linecap="round" stroke-linejoin="round" stroke-opacity="0.21"/>
<line x1="93.6" y1="867.1" x2="93.6" y2="860.8" fill="none" stroke="#dfe7ff" stroke-width="1.2" stroke-linecap="round" stroke-linejoin="round" stroke-opacity="0.21"/>
<circle cx="347.2" cy="678.2" r="1.1" fill="#dfe7ff" stroke="none" fill-opacity="0.36"/>
<circle cx="161.6" cy="687.2" r="1.2" fill="#dfe7ff" stroke="none" fill-opacity="0.35"/>
<circle cx="219.7" cy="903.5" r="2.4" fill="#dfe7ff" stroke="none" fill-opacity="0.24"/>
<circle cx="110.4" cy="313.9" r="2.1" fill="#dfe7ff" stroke="none" fill-opacity="0.38"/>
<circle cx="255.5" cy="344.7" r="1.1" fill="#dfe7ff" stroke="none" fill-opacity="0.26"/>
<circle cx="77.3" cy="806.3" r="2.5" fill="#dfe7ff" stroke="none" fill-opacity="0.30"/>
<line x1="128.3" y1="133.1" x2="135.1" y2="133.1" fill="none" stroke="#dfe7ff" stroke-width="1.2" stroke-linecap="round" stroke-linejoin="round" stroke-opacity="0.32"/>
<line x1="128.3" y1="133.1" x2="128.3" y2="139.9" fill="none" stroke="#dfe7ff" stroke-width="1.2" stroke-linecap="round" stroke-linejoin="round" stroke-opacity="0.32"/>
<line x1="128.3" y1="133.1" x2="121.5" y2="133.1" fill="none" stroke="#dfe7ff" stroke-width="1.2" stroke-linecap="round" stroke-linejoin="round" stroke-opacity="0.32"/>
<line x1="128.3" y1="133.1" x2="128.3" y2="126.3" fill="none" stroke="#dfe7ff" stroke-width="1.2" stroke-linecap="round" stroke-linejoin="round" stroke-opacity="0.32"/>
<circle cx="306.1" cy="740.2" r="2.2" fill="#dfe7ff" stroke="none" fill-opacity="0.30"/>
<line x1="131.6" y1="185.5" x2="136.6" y2="185.5" fill="none" stroke="#dfe7ff" stroke-width="1.2" stroke-linecap="round" stroke-linejoin="round" stroke-opacity="0.14"/>
<line x1="131.6" y1="185.5" x2="131.6" y2="190.5" fill="none" stroke="#dfe7ff" stroke-width="1.2" stroke-linecap="round" stroke-linejoin="round" stroke-opacity="0.14"/>
<line x1="131.6" y1="185.5" x2="126.6" y2="185.5" fill="none" stroke="#dfe7ff" stroke-width="1.2" stroke-linecap="round" stroke-linejoin="round" stroke-opacity="0.14"/>
<line x1="131.6" y1="185.5" x2="131.6" y2="180.5" fill="none" stroke="#dfe7ff" stroke-width="1.2" stroke-linecap="round" stroke-linejoin="round" stroke-opacity="0.14"/>
<circle cx="313.7" cy="116.7" r="2.1" fill="#dfe7ff" stroke="none" fill-opacity="0.28"/>
<circle cx="256.5" cy="61.9" r="1.3" fill="#dfe7ff" stroke="none" fill-opacity="0.24"/>
<circle cx="36.1" cy="616.9" r="1.4" fill="#dfe7ff" stroke="none" fill-opacity="0.14"/>
<circle cx="161.0" cy="865.1" r="2.1" fill="#dfe7ff" stroke="none" fill-opacity="0.18"/>
<line x1="488.1" y1="608.3" x2="495.5" y2="608.3" fill="none" stroke="#dfe7ff" stroke-width="1.2" stroke-linecap="round" stroke-linejoin="round" stroke-opacity="0.36"/>
<line x1="488.1" y1="608.3" x2="488.1" y2="615.7" fill="none" stroke="#dfe7ff" stroke-width="1.2" stroke-linecap="round" stroke-linejoin="round" stroke-opacity="0.36"/>
<line x1="488.1" y1="608.3" x2="480.8" y2="608.3" fill="none" stroke="#dfe7ff" stroke-width="1.2" stroke-linecap="round" stroke-linejoin="round" stroke-opacity="0.36"/>
<line x1="488.1" y1="608.3" x2="488.1" y2="600.9" fill="none" stroke="#dfe7ff" stroke-width="1.2" stroke-linecap="round" stroke-linejoin="round" stroke-opacity="0.36"/>
<circle cx="218.4" cy="369.0" r="2.2" fill="#dfe7ff" stroke="none" fill-opacity="0.24"/>
<circle cx="50.6" cy="232.8" r="1.2" fill="#dfe7ff" stroke="none" fill-opacity="0.13"/>
<circle cx="213.3" cy="192.2" r="1.2" fill="#dfe7ff" stroke="none" fill-opacity="0.34"/>
<circle cx="266.8" cy="275.5" r="1.2" fill="#dfe7ff" stroke="none" fill-opacity="0.30"/>
<circle cx="148.4" cy="55.1" r="2.4" fill="#dfe7ff" stroke="none" fill-opacity="0.11"/>
<circle cx="494.3" cy="408.1" r="2.0" fill="#dfe7ff" stroke="none" fill-opacity="0.33"/>
<circle cx="245.0" cy="911.0" r="1.4" fill="#dfe7ff" stroke="none" fill-opacity="0.25"/>
<circle cx="185.4" cy="312.5" r="2.5" fill="#dfe7ff" stroke="none" fill-opacity="0.31"/>
<circle cx="166.1" cy="660.7" r="1.0" fill="#dfe7ff" stroke="none" fill-opacity="0.13"/>
<circle cx="131.3" cy="173.2" r="1.9" fill="#dfe7ff" stroke="none" fill-opacity="0.10"/>
<circle cx="126.0" cy="415.7" r="1.4" fill="#dfe7ff" stroke="none" fill-opacity="0.10"/>
<line x1="294.6" y1="899.9" x2="298.6" y2="899.9" fill="none" stroke="#dfe7ff" stroke-width="1.2" stroke-linecap="round" stroke-linejoin="round" stroke-opacity="0.26"/>
<line x1="294.6" y1="899.9" x2="294.6" y2="903.9" fill="none" stroke="#dfe7ff" stroke-width="1.2" stroke-linecap="round" stroke-linejoin="round" stroke-opacity="0.26"/>
<line x1="294.6" y1="899.9" x2="290.7" y2="899.9" fill="none" stroke="#dfe7ff" stroke-width="1.2" stroke-linecap="round" stroke-linejoin="round" stroke-opacity="0.26"/>
<line x1="294.6" y1="899.9" x2="294.6" y2="896.0" fill="none" stroke="#dfe7ff" stroke-width="1.2" stroke-linecap="round" stroke-linejoin="round" stroke-opacity="0.26"/>
<line x1="192.0" y1="664.7" x2="200.8" y2="664.7" fill="none" stroke="#dfe7ff" stroke-width="1.2" stroke-linecap="round" stroke-linejoin="round" stroke-opacity="0.14"/>
<line x1="192.0" y1="664.7" x2="192.0" y2="673.5" fill="none" stroke="#dfe7ff" stroke-width="1.2" stroke-linecap="round" stroke-linejoin="round" stroke-opacity="0.14"/>
<line x1="192.0" y1="664.7" x2="183.3" y2="664.7" fill="none" stroke="#dfe7ff" stroke-width="1.2" stroke-linecap="round" stroke-linejoin="round" stroke-opacity="0.14"/>
<line x1="192.0" y1="664.7" x2="192.0" y2="656.0" fill="none" stroke="#dfe7ff" stroke-width="1.2" stroke-linecap="round" stroke-linejoin="round" stroke-opacity="0.14"/>
<circle cx="386.1" cy="822.7" r="1.7" fill="#dfe7ff" stroke="none" fill-opacity="0.14"/>
<circle cx="365.9" cy="516.7" r="1.6" fill="#dfe7ff" stroke="none" fill-opacity="0.26"/>
<line x1="154.9" y1="198.9" x2="159.9" y2="198.9" fill="none" stroke="#dfe7ff" stroke-width="1.2" stroke-linecap="round" stroke-linejoin="round" stroke-opacity="0.33"/>
<line x1="154.9" y1="198.9" x2="154.9" y2="203.9" fill="none" stroke="#dfe7ff" stroke-width="1.2" stroke-linecap="round" stroke-linejoin="round" stroke-opacity="0.33"/>
<line x1="154.9" y1="198.9" x2="149.9" y2="198.9" fill="none" stroke="#dfe7ff" stroke-width="1.2" stroke-linecap="round" stroke-linejoin="round" stroke-opacity="0.33"/>
<line x1="154.9" y1="198.9" x2="154.9" y2="193.9" fill="none" stroke="#dfe7ff" stroke-width="1.2" stroke-linecap="round" stroke-linejoin="round" stroke-opacity="0.33"/>
<line x1="82.2" y1="242.0" x2="86.8" y2="242.0" fill="none" stroke="#dfe7ff" stroke-width="1.2" stroke-linecap="round" stroke-linejoin="round" stroke-opacity="0.27"/>
<line x1="82.2" y1="242.0" x2="82.2" y2="246.6" fill="none" stroke="#dfe7ff" stroke-width="1.2" stroke-linecap="round" stroke-linejoin="round" stroke-opacity="0.27"/>
<line x1="82.2" y1="242.0" x2="77.6" y2="242.0" fill="none" stroke="#dfe7ff" stroke-width="1.2" stroke-linecap="round" stroke-linejoin="round" stroke-opacity="0.27"/>
<line x1="82.2" y1="242.0" x2="82.2" y2="237.4" fill="none" stroke="#dfe7ff" stroke-width="1.2" stroke-linecap="round" stroke-linejoin="round" stroke-opacity="0.27"/>
<circle cx="475.3" cy="63.8" r="1.9" fill="#dfe7ff" stroke="none" fill-opacity="0.38"/>
<circle cx="102.6" cy="478.9" r="1.6" fill="#dfe7ff" stroke="none" fill-opacity="0.18"/>
<circle cx="490.6" cy="925.5" r="2.0" fill="#dfe7ff" stroke="none" fill-opacity="0.22"/>
<circle cx="71.6" cy="597.7" r="1.8" fill="#dfe7ff" stroke="none" fill-opacity="0.37"/>
<circle cx="80.3" cy="664.5" r="1.6" fill="#dfe7ff" stroke="none" fill-opacity="0.32"/>
<line x1="196.9" y1="144.9" x2="203.3" y2="144.9" fill="none" stroke="#dfe7ff" stroke-width="1.2" stroke-linecap="round" stroke-linejoin="round" stroke-opacity="0.31"/>
<line x1="196.9" y1="144.9" x2="196.9" y2="151.3" fill="none" stroke="#dfe7ff" stroke-width="1.2" stroke-linecap="round" stroke-linejoin="round" stroke-opacity="0.31"/>
<line x1="196.9" y1="144.9" x2="190.5" y2="144.9" fill="none" stroke="#dfe7ff" stroke-width="1.2" stroke-linecap="round" stroke-linejoin="round" stroke-opacity="0.31"/>
<line x1="196.9" y1="144.9" x2="196.9" y2="138.5" fill="none" stroke="#dfe7ff" stroke-width="1.2" stroke-linecap="round" stroke-linejoin="round" stroke-opacity="0.31"/>
<circle cx="32.1" cy="653.9" r="2.4" fill="#dfe7ff" stroke="none" fill-opacity="0.24"/>
<line x1="90.8" y1="293.3" x2="95.8" y2="293.3" fill="none" stroke="#dfe7ff" stroke-width="1.2" stroke-linecap="round" stroke-linejoin="round" stroke-opacity="0.18"/>
<line x1="90.8" y1="293.3" x2="90.8" y2="298.3" fill="none" stroke="#dfe7ff" stroke-width="1.2" stroke-linecap="round" stroke-linejoin="round" stroke-opacity="0.18"/>
<line x1="90.8" y1="293.3" x2="85.7" y2="293.3" fill="none" stroke="#dfe7ff" stroke-width="1.2" stroke-linecap="round" stroke-linejoin="round" stroke-opacity="0.18"/>
<line x1="90.8" y1="293.3" x2="90.8" y2="288.2" fill="none" stroke="#dfe7ff" stroke-width="1.2" stroke-linecap="round" stroke-linejoin="round" stroke-opacity="0.18"/>
<line x1="233.0" y1="727.2" x2="241.0" y2="727.2" fill="none" stroke="#dfe7ff" stroke-width="1.2" stroke-linecap="round" stroke-linejoin="round" stroke-opacity="0.21"/>
<line x1="233.0" y1="727.2" x2="233.0" y2="735.2" fill="none" stroke="#dfe7ff" stroke-width="1.2" stroke-linecap="round" stroke-linejoin="round" stroke-opacity="0.21"/>
<line x1="233.0" y1="727.2" x2="225.0" y2="727.2" fill="none" stroke="#dfe7ff" stroke-width="1.2" stroke-linecap="round" stroke-linejoin="round" stroke-opacity="0.21"/>
<line x1="233.0" y1="727.2" x2="233.0" y2="719.1" fill="none" stroke="#dfe7ff" stroke-width="1.2" stroke-linecap="round" stroke-linejoin="round" stroke-opacity="0.21"/>
<circle cx="438.0" cy="789.0" r="2.1" fill="#dfe7ff" stroke="none" fill-opacity="0.29"/>
<line x1="407.9" y1="535.5" x2="416.3" y2="535.5" fill="none" stroke="#dfe7ff" stroke-width="1.2" stroke-linecap="round" stroke-linejoin="round" stroke-opacity="0.36"/>
<line x1="407.9" y1="535.5" x2="407.9" y2="543.9" fill="none" stroke="#dfe7ff" stroke-width="1.2" stroke-linecap="round" stroke-linejoin="round" stroke-opacity="0.36"/>
<line x1="407.9" y1="535.5" x2="399.5" y2="535.5" fill="none" stroke="#dfe7ff" stroke-width="1.2" stroke-linecap="round" stroke-linejoin="round" stroke-opacity="0.36"/>
<line x1="407.9" y1="535.5" x2="407.9" y2="527.1" fill="none" stroke="#dfe7ff" stroke-width="1.2" stroke-linecap="round" stroke-linejoin="round" stroke-opacity="0.36"/>
<circle cx="30.4" cy="453.9" r="2.1" fill="#dfe7ff" stroke="none" fill-opacity="0.14"/>
<line x1="292.8" y1="249.9" x2="297.6" y2="249.9" fill="none" stroke="#dfe7ff" stroke-width="1.2" stroke-linecap="round" stroke-linejoin="round" stroke-opacity="0.19"/>
<line x1="292.8" y1="249.9" x2="292.8" y2="254.6" fill="none" stroke="#dfe7ff" stroke-width="1.2" stroke-linecap="round" stroke-linejoin="round" stroke-opacity="0.19"/>
<line x1="292.8" y1="249.9" x2="288.1" y2="249.9" fill="none" stroke="#dfe7ff" stroke-width="1.2" stroke-linecap="round" stroke-linejoin="round" stroke-opacity="0.19"/>
<line x1="292.8" y1="249.9" x2="292.8" y2="245.2" fill="none" stroke="#dfe7ff" stroke-width="1.2" stroke-linecap="round" stroke-linejoin="round" stroke-opacity="0.19"/>
<circle cx="421.6" cy="206.2" r="2.5" fill="#dfe7ff" stroke="none" fill-opacity="0.11"/>
<circle cx="314.5" cy="830.5" r="1.9" fill="#dfe7ff" stroke="none" fill-opacity="0.14"/>
<circle cx="331.3" cy="511.3" r="1.7" fill="#dfe7ff" stroke="none" fill-opacity="0.20"/>
<line x1="218.3" y1="391.2" x2="223.1" y2="391.2" fill="none" stroke="#dfe7ff" stroke-width="1.2" stroke-linecap="round" stroke-linejoin="round" stroke-opacity="0.21"/>
<line x1="218.3" y1="391.2" x2="218.3" y2="396.0" fill="none" stroke="#dfe7ff" stroke-width="1.2" stroke-linecap="round" stroke-linejoin="round" stroke-opacity="0.21"/>
<line x1="218.3" y1="391.2" x2="213.5" y2="391.2" fill="none" stroke="#dfe7ff" stroke-width="1.2" stroke-linecap="round" stroke-linejoin="round" stroke-opacity="0.21"/>
<line x1="218.3" y1="391.2" x2="218.3" y2="386.4" fill="none" stroke="#dfe7ff" stroke-width="1.2" stroke-linecap="round" stroke-linejoin="round" stroke-opacity="0.21"/>
<circle cx="423.5" cy="754.8" r="1.5" fill="#dfe7ff" stroke="none" fill-opacity="0.21"/>
<circle cx="443.2" cy="54.7" r="1.3" fill="#dfe7ff" stroke="none" fill-opacity="0.33"/>
<circle cx="198.7" cy="156.8" r="2.4" fill="#dfe7ff" stroke="none" fill-opacity="0.28"/>
<line x1="157.9" y1="825.1" x2="165.1" y2="825.1" fill="none" stroke="#dfe7ff" stroke-width="1.2" stroke-linecap="round" stroke-linejoin="round" stroke-opacity="0.23"/>
<line x1="157.9" y1="825.1" x2="157.9" y2="832.2" fill="none" stroke="#dfe7ff" stroke-width="1.2" stroke-linecap="round" stroke-linejoin="round" stroke-opacity="0.23"/>
<line x1="157.9" y1="825.1" x2="150.7" y2="825.1" fill="none" stroke="#dfe7ff" stroke-width="1.2" stroke-linecap="round" stroke-linejoin="round" stroke-opacity="0.23"/>
<line x1="157.9" y1="825.1" x2="157.9" y2="817.9" fill="none" stroke="#dfe7ff" stroke-width="1.2" stroke-linecap="round" stroke-linejoin="round" stroke-opacity="0.23"/>
<circle cx="209.8" cy="56.3" r="1.1" fill="#dfe7ff" stroke="none" fill-opacity="0.32"/>
<circle cx="227.0" cy="847.6" r="1.4" fill="#dfe7ff" stroke="none" fill-opacity="0.31"/>
<circle cx="297.0" cy="397.3" r="1.7" fill="#dfe7ff" stroke="none" fill-opacity="0.11"/>
<circle cx="182.6" cy="260.1" r="2.2" fill="#dfe7ff" stroke="none" fill-opacity="0.39"/>
<circle cx="391.1" cy="668.8" r="1.2" fill="#dfe7ff" stroke="none" fill-opacity="0.15"/>
<circle cx="430.0" cy="151.7" r="2.3" fill="#dfe7ff" stroke="none" fill-opacity="0.39"/>
<circle cx="414.3" cy="206.3" r="1.2" fill="#dfe7ff" stroke="none" fill-opacity="0.17"/>
<circle cx="448.4" cy="516.6" r="2.3" fill="#dfe7ff" stroke="none" fill-opacity="0.17"/>
<line x1="297.8" y1="611.3" x2="301.3" y2="611.3" fill="none" stroke="#dfe7ff" stroke-width="1.2" stroke-linecap="round" stroke-linejoin="round" stroke-opacity="0.16"/>
<line x1="297.8" y1="611.3" x2="297.8" y2="614.9" fill="none" stroke="#dfe7ff" stroke-width="1.2" stroke-linecap="round" stroke-linejoin="round" stroke-opacity="0.16"/>
<line x1="297.8" y1="611.3" x2="294.3" y2="611.3" fill="none" stroke="#dfe7ff" stroke-width="1.2" stroke-linecap="round" stroke-linejoin="round" stroke-opacity="0.16"/>
<line x1="297.8" y1="611.3" x2="297.8" y2="607.8" fill="none" stroke="#dfe7ff" stroke-width="1.2" stroke-linecap="round" stroke-linejoin="round" stroke-opacity="0.16"/>
<line x1="479.8" y1="523.7" x2="488.7" y2="523.7" fill="none" stroke="#dfe7ff" stroke-width="1.2" stroke-linecap="round" stroke-linejoin="round" stroke-opacity="0.29"/>
<line x1="479.8" y1="523.7" x2="479.8" y2="532.6" fill="none" stroke="#dfe7ff" stroke-width="1.2" stroke-linecap="round" stroke-linejoin="round" stroke-opacity="0.29"/>
<line x1="479.8" y1="523.7" x2="470.9" y2="523.7" fill="none" stroke="#dfe7ff" stroke-width="1.2" stroke-linecap="round" stroke-linejoin="round" stroke-opacity="0.29"/>
<line x1="479.8" y1="523.7" x2="479.8" y2="514.8" fill="none" stroke="#dfe7ff" stroke-width="1.2" stroke-linecap="round" stroke-linejoin="round" stroke-opacity="0.29"/>
<circle cx="161.6" cy="865.4" r="2.1" fill="#dfe7ff" stroke="none" fill-opacity="0.36"/>
<line x1="270.0" y1="575.7" x2="270.0" y2="230.7" fill="none" stroke="#dfe7ff" stroke-width="3.4" stroke-linecap="round" stroke-linejoin="round"/>
<path d="M 270.0 188.7 L 281.9 218.8 L 312.0 230.7 L 281.9 242.6 L 270.0 272.7 L 258.1 242.6 L 228.0 230.7 L 258.1 218.8 Z" fill="none" stroke="#dfe7ff" stroke-width="1.5" stroke-linecap="round" stroke-linejoin="round"/>
<line x1="270.0" y1="465.3" x2="315.0" y2="465.3" fill="none" stroke="#dfe7ff" stroke-width="1.5" stroke-linecap="round" stroke-linejoin="round" stroke-opacity="0.85"/>
<line x1="270.0" y1="375.6" x2="225.0" y2="375.6" fill="none" stroke="#dfe7ff" stroke-width="1.5" stroke-linecap="round" stroke-linejoin="round" stroke-opacity="0.85"/>
<circle cx="270.0" cy="575.7" r="10.5" fill="none" stroke="#dfe7ff" stroke-width="1.5" stroke-linecap="round" stroke-linejoin="round"/>
<rect x="16" y="16" width="508" height="928" rx="26" fill="none" stroke="#e6c79c" stroke-width="2.4" stroke-linecap="round" stroke-linejoin="round" stroke-opacity="0.90"/>
<rect x="30" y="30" width="480" height="900" rx="18" fill="none" stroke="#dfe7ff" stroke-width="1.5" stroke-linecap="round" stroke-linejoin="round" stroke-opacity="0.26"/>
<path d="M 52.0 41.0 L 54.3 49.7 L 63.0 52.0 L 54.3 54.3 L 52.0 63.0 L 49.7 54.3 L 41.0 52.0 L 49.7 49.7 Z" fill="none" stroke="#e6c79c" stroke-width="1.6" stroke-linecap="round" stroke-linejoin="round" stroke-opacity="0.80"/>
<path d="M 488.0 41.0 L 490.3 49.7 L 499.0 52.0 L 490.3 54.3 L 488.0 63.0 L 485.7 54.3 L 477.0 52.0 L 485.7 49.7 Z" fill="none" stroke="#e6c79c" stroke-width="1.6" stroke-linecap="round" stroke-linejoin="round" stroke-opacity="0.80"/>
<path d="M 52.0 897.0 L 54.3 905.7 L 63.0 908.0 L 54.3 910.3 L 52.0 919.0 L 49.7 910.3 L 41.0 908.0 L 49.7 905.7 Z" fill="none" stroke="#e6c79c" stroke-width="1.6" stroke-linecap="round" stroke-linejoin="round" stroke-opacity="0.80"/>
<path d="M 488.0 897.0 L 490.3 905.7 L 499.0 908.0 L 490.3 910.3 L 488.0 919.0 L 485.7 910.3 L 477.0 908.0 L 485.7 905.7 Z" fill="none" stroke="#e6c79c" stroke-width="1.6" stroke-linecap="round" stroke-linejoin="round" stroke-opacity="0.80"/>
<text x="270" y="894" text-anchor="middle" fill="#e6c79c" font-family="'Avenir Next', system-ui, sans-serif" font-size="24" letter-spacing="5" font-weight="500">ACE OF WANDS</text>
</svg>
