<svg xmlns="http://www.w3.org/2000/svg" viewBox="0 0 540 960" width="540" height="960">
<line x1="196.4" y1="235.8" x2="201.3" y2="235.8" w="1.2" color="#dfe7ff" op="0.10371774108372346"/>
<line x1="196.4" y1="235.8" x2="196.4" y2="240.7" w="1.2" color="#dfe7ff" op="0.10371774108372346"/>
<line x1="196.4" y1="235.8" x2="191.4" y2="235.8" w="1.2" color="#dfe7ff" op="0.10371774108372346"/>
<line x1="196.4" y1="235.8" x2="196.4" y2="230.8" w="1.2" color="#dfe7ff" op="0.10371774108372346"/>
<line x1="30.3" y1="218.7" x2="35.2" y2="218.7" w="1.2" color="#dfe7ff" op="0.2553880681705305"/>
<line x1="30.3" y1="218.7" x2="30.3" y2="223.6" w="1.2" color="#dfe7ff" op="0.2553880681705305"/>
<line x1="30.3" y1="218.7" x2="25.5" y2="218.7" w="1.2" color="#dfe7ff" op="0.2553880681705305"/>
<line x1="30.3" y1="218.7" x2="30.3" y2="213.9" w="1.2" color="#dfe7ff" op="0.2553880681705305"/>
<circle cx="102.5" cy="93.4" r="1.4" fill="#dfe7ff" stroke="none" fill-opacity="0.36"/>
<line x1="502.2" y1="694.7" x2="505.5" y2="694.7" w="1.2" color="#dfe7ff" op="0.330723471406704"/>
<line x1="502.2" y1="694.7" x2="502.2" y2="697.9" w="1.2" color="#dfe7ff" op="0.330723471406704"/>
<line x1="502.2" y1="694.7" x2="499.0" y2="694.7" w="1.2" color="#dfe7ff" op="0.330723471406704"/>
<line x1="502.2" y1="694.7" x2="502.2" y2="691.4" w="1.2" color="#dfe7ff" op="0.330723471406704"/>
<circle cx="406.0" cy="920.0" r="2.0" fill="#dfe7ff" stroke="none" fill-opacity="0.40"/>
<circle cx="463.3" cy="748.7" r="1.6" fill="#dfe7ff" stroke="none" fill-opacity="0.21"/>
<circle cx="282.0" cy="399.6" r="2.1" fill="#dfe7ff" stroke="none" fill-opacity="0.29"/>
<circle cx="251.1" cy="882.5" r="2.6" fill="#dfe7ff" stroke="none" fill-opacity="0.26"/>
<line x1="430.7" y1="562.8" x2="436.0" y2="562.8" w="1.2" color="#dfe7ff" op="0.2584360142843021"/>
<line x1="430.7" y1="562.8" x2="430.7" y2="568.1" w="1.2" color="#dfe7ff" op="0.2584360142843021"/>
<line x1="430.7" y1="562.8" x2="425.4" y2="562.8" w="1.2" color="#dfe7ff" op="0.2584360142843021"/>
<line x1="430.7" y1="562.8" x2="430.7" y2="557.5" w="1.2" color="#dfe7ff" op="0.2584360142843021"/>
<line x1="109.3" y1="354.2" x2="118.1" y2="354.2" w="1.2" color="#dfe7ff" op="0.12425790435887393"/>
<line x1="109.3" y1="354.2" x2="109.3" y2="363.0" w="1.2" color="#dfe7ff" op="0.12425790435887393"/>
<line x1="109.3" y1="354.2" x2="100.5" y2="354.2" w="1.2" color="#dfe7ff" op="0.12425790435887393"/>
<line x1="109.3" y1="354.2" x2="109.3" y2="345.5" w="1.2" color="#dfe7ff" op="0.12425790435887393"/>
<line x1="71.2" y1="86.1" x2="77.6" y2="86.1" w="1.2" color="#dfe7ff" op="0.24492940663233181"/>
<line x1="71.2" y1="86.1" x2="71.2" y2="92.5" w="1.2" color="#dfe7ff" op="0.24492940663233181"/>
<line x1="71.2" y1="86.1" x2="64.8" y2="86.1" w="1.2" color="#dfe7ff" op="0.24492940663233181"/>
<line x1="71.2" y1="86.1" x2="71.2" y2="79.7" w="1.2" color="#dfe7ff" op="0.24492940663233181"/>
<circle cx="98.7" cy="842.5" r="1.7" fill="#dfe7ff" stroke="none" fill-opacity="0.22"/>
<circle cx="243.2" cy="101.3" r="1.5" fill="#dfe7ff" stroke="none" fill-opacity="0.21"/>
<line x1="225.6" y1="185.0" x2="229.9" y2="185.0" w="1.2" color="#dfe7ff" op="0.2164621668927517"/>
<line x1="225.6" y1="185.0" x2="225.6" y2="189.3" w="1.2" color="#dfe7ff" op="0.2164621668927517"/>
<line x1="225.6" y1="185.0" x2="221.3" y2="185.0" w="1.2" color="#dfe7ff" op="0.2164621668927517"/>
<line x1="225.6" y1="185.0" x2="225.6" y2="180.6" w="1.2" color="#dfe7ff" op="0.2164621668927517"/>
<circle cx="300.4" cy="87.5" r="1.6" fill="#dfe7ff" stroke="none" fill-opacity="0.25"/>
<circle cx="35.4" cy="276.0" r="1.2" fill="#dfe7ff" stroke="none" fill-opacity="0.26"/>
<circle cx="154.8" cy="106.5" r="2.5" fill="#dfe7ff" stroke="none" fill-opacity="0.32"/>
<circle cx="446.3" cy="280.5" r="1.8" fill="#dfe7ff" stroke="none" fill-opacity="0.33"/>
<line x1="398.4" y1="510.8" x2="405.2" y2="510.8" w="1.2" color="#dfe7ff" op="0.14306064660626946"/>
<line x1="398.4" y1="510.8" x2="398.4" y2="517.6" w="1.2" color="#dfe7ff" op="0.14306064660626946"/>
<line x1="398.4" y1="510.8" x2="391.6" y2="510.8" w="1.2" color="#dfe7ff" op="0.14306064660626946"/>
<line x1="398.4" y1="510.8" x2="398.4" y2="504.0" w="1.2" color="#dfe7ff" op="0.14306064660626946"/>
<circle cx="152.8" cy="158.0" r="2.2" fill="#dfe7ff" stroke="none" fill-opacity="0.35"/>
<circle cx="117.8" cy="743.2" r="1.6" fill="#dfe7ff" stroke="none" fill-opacity="0.33"/>
<circle cx="122.0" cy="603.7" r="2.5" fill="#dfe7ff" stroke="none" fill-opacity="0.34"/>
<line x1="429.9" y1="784.4" x2="435.5" y2="784.4" w="1.2" color="#dfe7ff" op="0.15192971689740303"/>
<line x1="429.9" y1="784.4" x2="429.9" y2="790.1" w="1.2" color="#dfe7ff" op="0.15192971689740303"/>
<line x1="429.9" y1="784.4" x2="424.2" y2="784.4" w="1.2" color="#dfe7ff" op="0.15192971689740303"/>
<line x1="429.9" y1="784.4" x2="429.9" y2="778.8" w="1.2" color="#dfe7ff" op="0.15192971689740303"/>
<line x1="94.0" y1="723.3" x2="102.3" y2="723.3" w="1.2" color="#dfe7ff" op="0.24320427102114336"/>
<line x1="94.0" y1="723.3" x2="94.0" y2="731.5" w="1.2" color="#dfe7ff" op="0.24320427102114336"/>
<line x1="94.0" y1="723.3" x2="85.8" y2="723.3" w="1.2" color="#dfe7ff" op="0.24320427102114336"/>
<line x1="94.0" y1="723.3" x2="94.0" y2="715.0" w="1.2" color="#dfe7ff" op="0.24320427102114336"/>
<circle cx="269.0" cy="118.8" r="2.5" fill="#dfe7ff" stroke="none" fill-opacity="0.19"/>
<circle cx="111.2" cy="765.3" r="1.6" fill="#dfe7ff" stroke="none" fill-opacity="0.35"/>
<circle cx="48.3" cy="360.0" r="2.0" fill="#dfe7ff" stroke="none" fill-opacity="0.16"/>
<circle cx="122.4" cy="441.8" r="2.5" fill="#dfe7ff" stroke="none" fill-opacity="0.16"/>
<circle cx="283.6" cy="492.8" r="1.7" fill="#dfe7ff" stroke="none" fill-opacity="0.36"/>
<circle cx="351.3" cy="521.6" r="1.1" fill="#dfe7ff" stroke="none" fill-opacity="0.24"/>
<line x1="364.4" y1="675.5" x2="369.7" y2="675.5" w="1.2" color="#dfe7ff" op="0.11061951962606976"/>
<line x1="364.4" y1="675.5" x2="364.4" y2="680.8" w="1.2" color="#dfe7ff" op="0.11061951962606976"/>
<line x1="364.4" y1="675.5" x2="359.0" y2="675.5" w="1.2" color="#dfe7ff" op="0.11061951962606976"/>
<line x1="364.4" y1="675.5" x2="364.4" y2="670.2" w="1.2" color="#dfe7ff" op="0.11061951962606976"/>
<circle cx="280.4" cy="664.6" r="1.7" fill="#dfe7ff" stroke="none" fill-opacity="0.37"/>
<circle cx="277.4" cy="446.6" r="1.2" fill="#dfe7ff" stroke="none" fill-opacity="0.36"/>
<circle cx="172.7" cy="301.4" r="1.1" fill="#dfe7ff" stroke="none" fill-opacity="0.16"/>
<line x1="435.6" y1="783.2" x2="442.5" y2="783.2" w="1.2" color="#dfe7ff" op="0.23542691497374407"/>
<line x1="435.6" y1="783.2" x2="435.6" y2="790.1" w="1.2" color="#dfe7ff" op="0.23542691497374407"/>
<line x1="435.6" y1="783.2" x2="428.7" y2="783.2" w="1.2" color="#dfe7ff" op="0.23542691497374407"/>
<line x1="435.6" y1="783.2" x2="435.6" y2="776.3" w="1.2" color="#dfe7ff" op="0.23542691497374407"/>
<line x1="82.8" y1="157.1" x2="89.9" y2="157.1" w="1.2" color="#dfe7ff" op="0.12818735669637019"/>
<line x1="82.8" y1="157.1" x2="82.8" y2="164.1" w="1.2" color="#dfe7ff" op="0.12818735669637019"/>
<line x1="82.8" y1="157.1" x2="75.8" y2="157.1" w="1.2" color="#dfe7ff" op="0.12818735669637019"/>
<line x1="82.8" y1="157.1" x2="82.8" y2="150.0" w="1.2" color="#dfe7ff" op="0.12818735669637019"/>
<line x1="37.8" y1="219.7" x2="42.0" y2="219.7" w="1.2" color="#dfe7ff" op="0.36616468133482527"/>
<line x1="37.8" y1="219.7" x2="37.8" y2="223.8" w="1.2" color="#dfe7ff" op="0.36616468133482527"/>
<line x1="37.8" y1="219.7" x2="33.6" y2="219.7" w="1.2" color="#dfe7ff" op="0.36616468133482527"/>
<line x1="37.8" y1="219.7" x2="37.8" y2="215.5" w="1.2" color="#dfe7ff" op="0.36616468133482527"/>
<circle cx="423.9" cy="32.7" r="1.3" fill="#dfe7ff" stroke="none" fill-opacity="0.15"/>
<line x1="130.1" y1="742.7" x2="137.5" y2="742.7" w="1.2" color="#dfe7ff" op="0.21556007124657278"/>
<line x1="130.1" y1="742.7" x2="130.1" y2="750.1" w="1.2" color="#dfe7ff" op="0.21556007124657278"/>
<line x1="130.1" y1="742.7" x2="122.6" y2="742.7" w="1.2" color="#dfe7ff" op="0.21556007124657278"/>
<line x1="130.1" y1="742.7" x2="130.1" y2="735.3" w="1.2" color="#dfe7ff" op="0.21556007124657278"/>
<line x1="408.5" y1="919.0" x2="417.1" y2="919.0" w="1.2" color="#dfe7ff" op="0.25111218617981934"/>
<line x1="408.5" y1="919.0" x2="408.5" y2="927.6" w="1.2" color="#dfe7ff" op="0.25111218617981934"/>
<line x1="408.5" y1="919.0" x2="399.8" y2="919.0" w="1.2" color="#dfe7ff" op="0.25111218617981934"/>
<line x1="408.5" y1="919.0" x2="408.5" y2="910.4" w="1.2" color="#dfe7ff" op="0.25111218617981934"/>
<circle cx="272.8" cy="111.4" r="1.9" fill="#dfe7ff" stroke="none" fill-opacity="0.19"/>
<circle cx="297.6" cy="852.0" r="2.1" fill="#dfe7ff" stroke="none" fill-opacity="0.39"/>
<circle cx="75.1" cy="642.2" r="1.7" fill="#dfe7ff" stroke="none" fill-opacity="0.38"/>
<line x1="225.2" y1="909.3" x2="230.8" y2="909.3" w="1.2" color="#dfe7ff" op="0.3092675670757268"/>
<line x1="225.2" y1="909.3" x2="225.2" y2="914.9" w="1.2" color="#dfe7ff" op="0.3092675670757268"/>
<line x1="225.2" y1="909.3" x2="219.6" y2="909.3" w="1.2" color="#dfe7ff" op="0.3092675670757268"/>
<line x1="225.2" y1="909.3" x2="225.2" y2="903.7" w="1.2" color="#dfe7ff" op="0.3092675670757268"/>
<circle cx="229.1" cy="492.5" r="1.0" fill="#dfe7ff" stroke="none" fill-opacity="0.40"/>
<line x1="508.3" y1="780.5" x2="515.0" y2="780.5" w="1.2" color="#dfe7ff" op="0.3544608497740299"/>
<line x1="508.3" y1="780.5" x2="508.3" y2="787.2" w="1.2" color="#dfe7ff" op="0.3544608497740299"/>
<line x1="508.3" y1="780.5" x2="501.6" y2="780.5" w="1.2" color="#dfe7ff" op="0.3544608497740299"/>
<line x1="508.3" y1="780.5" x2="508.3" y2="773.8" w="1.2" color="#dfe7ff" op="0.3544608497740299"/>
<circle cx="289.2" cy="920.6" r="1.2" fill="#dfe7ff" stroke="none" fill-opacity="0.33"/>
<circle cx="343.7" cy="676.9" r="1.6" fill="#dfe7ff" stroke="none" fill-opacity="0.27"/>
<circle cx="111.8" cy="838.5" r="2.1" fill="#dfe7ff" stroke="none" fill-opacity="0.33"/>
<line x1="453.0" y1="400.5" x2="461.3" y2="400.5" w="1.2" color="#dfe7ff" op="0.15371052182536726"/>
<line x1="453.0" y1="400.5" x2="453.0" y2="408.8" w="1.2" color="#dfe7ff" op="0.15371052182536726"/>
<line x1="453.0" y1="400.5" x2="444.7" y2="400.5" w="1.2" color="#dfe7ff" op="0.15371052182536726"/>
<line x1="453.0" y1="400.5" x2="453.0" y2="392.2" w="1.2" color="#dfe7ff" op="0.15371052182536726"/>
<line x1="254.1" y1="564.9" x2="261.1" y2="564.9" w="1.2" color="#dfe7ff" op="0.2533010438589015"/>
<line x1="254.1" y1="564.9" x2="254.1" y2="571.9" w="1.2" color="#dfe7ff" op="0.2533010438589015"/>
<line x1="254.1" y1="564.9" x2="247.0" y2="564.9" w="1.2" color="#dfe7ff" op="0.2533010438589015"/>
<line x1="254.1" y1="564.9" x2="254.1" y2="557.9" w="1.2" color="#dfe7ff" op="0.2533010438589015"/>
<circle cx="314.3" cy="648.0" r="2.0" fill="#dfe7ff" stroke="none" fill-opacity="0.27"/>
<circle cx="364.9" cy="179.5" r="1.4" fill="#dfe7ff" stroke="none" fill-opacity="0.17"/>
<circle cx="97.0" cy="202.2" r="1.0" fill="#dfe7ff" stroke="none" fill-opacity="0.25"/>
<circle cx="447.7" cy="63.4" r="2.0" fill="#dfe7ff" stroke="none" fill-opacity="0.28"/>
<circle cx="385.7" cy="632.8" r="2.2" fill="#dfe7ff" stroke="none" fill-opacity="0.20"/>
<line x1="445.9" y1="339.2" x2="450.4" y2="339.2" w="1.2" color="#dfe7ff" op="0.2226383806677492"/>
<line x1="445.9" y1="339.2" x2="445.9" y2="343.7" w="1.2" color="#dfe7ff" op="0.2226383806677492"/>
<line x1="445.9" y1="339.2" x2="441.5" y2="339.2" w="1.2" color="#dfe7ff" op="0.2226383806677492"/>
<line x1="445.9" y1="339.2" x2="445.9" y2="334.8" w="1.2" color="#dfe7ff" op="0.2226383806677492"/>
<circle cx="57.9" cy="404.1" r="1.9" fill="#dfe7ff" stroke="none" fill-opacity="0.12"/>
<circle cx="64.5" cy="885.5" r="1.6" fill="#dfe7ff" stroke="none" fill-opacity="0.29"/>
<line x1="252.4" y1="315.8" x2="258.3" y2="315.8" w="1.2" color="#dfe7ff" op="0.19092609900493498"/>
<line x1="252.4" y1="315.8" x2="252.4" y2="321.7" w="1.2" color="#dfe7ff" op="0.19092609900493498"/>
<line x1="252.4" y1="315.8" x2="246.5" y2="315.8" w="1.2" color="#dfe7ff" op="0.19092609900493498"/>
<line x1="252.4" y1="315.8" x2="252.4" y2="309.9" w="1.2" color="#dfe7ff" op="0.19092609900493498"/>
<circle cx="351.9" cy="80.8" r="2.1" fill="#dfe7ff" stroke="none" fill-opacity="0.38"/>
<circle cx="386.7" cy="321.8" r="1.2" fill="#dfe7ff" stroke="none" fill-opacity="0.22"/>
<circle cx="432.7" cy="627.6" r="1.2" fill="#dfe7ff" stroke="none" fill-opacity="0.15"/>
<circle cx="387.6" cy="702.4" r="2.1" fill="#dfe7ff" stroke="none" fill-opacity="0.35"/>
<path d="M 200.0 368.2 L 215.6 407.6 L 255.0 423.2 L 215.6 438.8 L 200.0 478.2 L 184.4 438.8 L 145.0 423.2 L 184.4 407.6 Z" fill="none" stroke="#dfe7ff" stroke-width="3.4" stroke-linecap="round" stroke-linejoin="round"/>
<path d="M 340.0 368.2 L 355.6 407.6 L 395.0 423.2 L 355.6 438.8 L 340.0 478.2 L 324.4 438.8 L 285.0 423.2 L 324.4 407.6 Z" fill="none" stroke="#dfe7ff" stroke-width="3.4" stroke-linecap="round" stroke-linejoin="round"/>
<circle cx="270.0" cy="273.2" r="45.0" fill="none" stroke="#dfe7ff" stroke-width="3.4" stroke-linecap="round" stroke-linejoin="round"/>
<line x1="323.1" y1="273.2" x2="361.4" y2="273.2" w="2.4" color="#dfe7ff" op="1.0"/>
<line x1="307.5" y1="310.7" x2="334.6" y2="337.8" w="2.4" color="#dfe7ff" op="1.0"/>
<line x1="270.0" y1="326.3" x2="270.0" y2="364.5" w="2.4" color="#dfe7ff" op="1.0"/>
<line x1="232.5" y1="310.7" x2="205.4" y2="337.8" w="2.4" color="#dfe7ff" op="1.0"/>
<line x1="216.9" y1="273.2" x2="178.7" y2="273.2" w="2.4" color="#dfe7ff" op="1.0"/>
<line x1="232.5" y1="235.7" x2="205.4" y2="208.6" w="2.4" color="#dfe7ff" op="1.0"/>
<line x1="270.0" y1="220.1" x2="270.0" y2="181.8" w="2.4" color="#dfe7ff" op="1.0"/>
<line x1="307.5" y1="235.7" x2="334.6" y2="208.6" w="2.4" color="#dfe7ff" op="1.0"/>
<line x1="200.0" y1="423.2" x2="270.0" y2="273.2" fill="none" stroke="#dfe7ff" stroke-width="1.5" stroke-linecap="round" stroke-linejoin="round" stroke-opacity="0.50"/>
<line x1="340.0" y1="423.2" x2="270.0" y2="273.2" fill="none" stroke="#dfe7ff" stroke-width="1.5" stroke-linecap="round" stroke-linejoin="round" stroke-opacity="0.50"/>
<rect x="16" y="16" width="508" height="928" rx="26" fill="none" stroke="#e6c79c" stroke-width="2.4" stroke-linecap="round" stroke-linejoin="round" stroke-opacity="0.90"/>
<rect x="30" y="30" width="480" height="900" rx="18" fill="none" stroke="#dfe7ff" stroke-width="1.5" stroke-linecap="round" stroke-linejoin="round" stroke-opacity="0.26"/>
<path d="M 52.0 41.0 L 54.3 49.7 L 63.0 52.0 L 54.3 54.3 L 52.0 63.0 L 49.7 54.3 L 41.0 52.0 L 49.7 49.7 Z" fill="none" stroke="#e6c79c" stroke-width="1.6" stroke-linecap="round" stroke-linejoin="round" stroke-opacity="0.80"/>
<path d="M 488.0 41.0 L 490.3 49.7 L 499.0 52.0 L 490.3 54.3 L 488.0 63.0 L 485.7 54.3 L 477.0 52.0 L 485.7 49.7 Z" fill="none" stroke="#e6c79c" stroke-width="1.6" stroke-linecap="round" stroke-linejoin="round" stroke-opacity="0.80"/>
<path d="M 52.0 897.0 L 54.3 905.7 L 63.0 908.0 L 54.3 910.3 L 52.0 919.0 L 49.7 910.3 L 41.0 908.0 L 49.7 905.7 Z" fill="none" stroke="#e6c79c" stroke-width="1.6" stroke-linecap="round" stroke-linejoin="round" stroke-opacity="0.80"/>
<path d="M 488.0 897.0 L 490.3 905.7 L 499.0 908.0 L 490.3 910.3 L 488.0 919.0 L 485.7 910.3 L 477.0 908.0 L 485.7 905.7 Z" fill="none" stroke="#e6c79c" stroke-width="1.6" stroke-linecap="round" stroke-linejoin="round" stroke-opacity="0.80"/>
<text x="270" y="894" text-anchor="middle" fill="#e6c79c" font-family="'Avenir Next', system-ui, sans-serif" font-size="24" letter-spacing="5" font-weight="500">THE LOVERS</text>
</svg>
