<svg xmlns="http://www.w3.org/2000/svg" viewBox="0 0 540 960" width="540" height="960">
<line x1="83.7" y1="809.5" x2="88.8" y2="809.5" fill="none" stroke="#dfe7ff" stroke-width="1.2" stroke-linecap="round" stroke-linejoin="round" stroke-opacity="0.34"/>
<line x1="83.7" y1="809.5" x2="83.7" y2="814.7" fill="none" stroke="#dfe7ff" stroke-width="1.2" stroke-linecap="round" stroke-linejoin="round" stroke-opacity="0.34"/>
<line x1="83.7" y1="809.5" x2="78.5" y2="809.5" fill="none" stroke="#dfe7ff" stroke-width="1.2" stroke-linecap="round" stroke-linejoin="round" stroke-opacity="0.34"/>
<line x1="83.7" y1="809.5" x2="83.7" y2="804.4" fill="none" stroke="#dfe7ff" stroke-width="1.2" stroke-linecap="round" stroke-linejoin="round" stroke-opacity="0.34"/>
<circle cx="468.7" cy="849.9" r="2.5" fill="#dfe7ff" stroke="none" fill-opacity="0.28"/>
<line x1="62.3" y1="621.9" x2="70.8" y2="621.9" fill="none" stroke="#dfe7ff" stroke-width="1.2" stroke-linecap="round" stroke-linejoin="round" stroke-opacity="0.13"/>
<line x1="62.3" y1="621.9" x2="62.3" y2="630.4" fill="none" stroke="#dfe7ff" stroke-width="1.2" stroke-linecap="round" stroke-linejoin="round" stroke-opacity="0.13"/>
<line x1="62.3" y1="621.9" x2="53.9" y2="621.9" fill="none" stroke="#dfe7ff" stroke-width="1.2" stroke-linecap="round" stroke-linejoin="round" stroke-opacity="0.13"/>
<line x1="62.3" y1="621.9" x2="62.3" y2="613.5" fill="none" stroke="#dfe7ff" stroke-width="1.2" stroke-linecap="round" stroke-linejoin="round" stroke-opacity="0.13"/>
<circle cx="228.0" cy="446.2" r="1.1" fill="#dfe7ff" stroke="none" fill-opacity="0.24"/>
<circle cx="464.1" cy="561.6" r="1.6" fill="#dfe7ff" stroke="none" fill-opacity="0.39"/>
<circle cx="118.1" cy="157.9" r="2.6" fill="#dfe7ff" stroke="none" fill-opacity="0.37"/>
<circle cx="291.1" cy="223.7" r="1.5" fill="#dfe7ff" stroke="none" fill-opacity="0.38"/>
<line x1="239.1" y1="719.3" x2="246.6" y2="719.3" fill="none" stroke="#dfe7ff" stroke-width="1.2" stroke-linecap="round" stroke-linejoin="round" stroke-opacity="0.17"/>
<line x1="239.1" y1="719.3" x2="239.1" y2="726.9" fill="none" stroke="#dfe7ff" stroke-width="1.2" stroke-linecap="round" stroke-linejoin="round" stroke-opacity="0.17"/>
<line x1="239.1" y1="719.3" x2="231.5" y2="719.3" fill="none" stroke="#dfe7ff" stroke-width="1.2" stroke-linecap="round" stroke-linejoin="round" stroke-opacity="0.17"/>
<line x1="239.1" y1="719.3" x2="239.1" y2="711.7" fill="none" stroke="#dfe7ff" stroke-width="1.2" stroke-linecap="round" stroke-linejoin="round" stroke-opacity="0.17"/>
<line x1="428.7" y1="58.3" x2="434.0" y2="58.3" fill="none" stroke="#dfe7ff" stroke-width="1.2" stroke-linecap="round" stroke-linejoin="round" stroke-opacity="0.18"/>
<line x1="428.7" y1="58.3" x2="428.7" y2="63.5" fill="none" stroke="#dfe7ff" stroke-width="1.2" stroke-linecap="round" stroke-linejoin="round" stroke-opacity="0.18"/>
<line x1="428.7" y1="58.3" x2="423.5" y2="58.3" fill="none" stroke="#dfe7ff" stroke-width="1.2" stroke-linecap="round" stroke-linejoin="round" stroke-opacity="0.18"/>
<line x1="428.7" y1="58.3" x2="428.7" y2="53.0" fill="none" stroke="#dfe7ff" stroke-width="1.2" stroke-linecap="round" stroke-linejoin="round" stroke-opacity="0.18"/>
<line x1="67.3" y1="248.6" x2="76.3" y2="248.6" fill="none" stroke="#dfe7ff" stroke-width="1.2" stroke-linecap="round" stroke-linejoin="round" stroke-opacity="0.17"/>
<line x1="67.3" y1="248.6" x2="67.3" y2="257.5" fill="none" stroke="#dfe7ff" stroke-width="1.2" stroke-linecap="round" stroke-linejoin="round" stroke-opacity="0.17"/>
<line x1="67.3" y1="248.6" x2="58.3" y2="248.6" fill="none" stroke="#dfe7ff" stroke-width="1.2" stroke-linecap="round" stroke-linejoin="round" stroke-opacity="0.17"/>
<line x1="67.3" y1="248.6" x2="67.3" y2="239.6" fill="none" stroke="#dfe7ff" stroke-width="1.2" stroke-linecap="round" stroke-linejoin="round" stroke-opacity="0.17"/>
<circle cx="254.7" cy="499.3" r="2.0" fill="#dfe7ff" stroke="none" fill-opacity="0.11"/>
<circle cx="468.5" cy="461.7" r="2.4" fill="#dfe7ff" stroke="none" fill-opacity="0.35"/>
<circle cx="364.6" cy="367.3" r="1.9" fill="#dfe7ff" stroke="none" fill-opacity="0.39"/>
<line x1="50.1" y1="463.2" x2="53.2" y2="463.2" fill="none" stroke="#dfe7ff" stroke-width="1.2" stroke-linecap="round" stroke-linejoin="round" stroke-opacity="0.14"/>
<line x1="50.1" y1="463.2" x2="50.1" y2="466.2" fill="none" stroke="#dfe7ff" stroke-width="1.2" stroke-linecap="round" stroke-linejoin="round" stroke-opacity="0.14"/>
<line x1="50.1" y1="463.2" x2="47.1" y2="463.2" fill="none" stroke="#dfe7ff" stroke-width="1.2" stroke-linecap="round" stroke-linejoin="round" stroke-opacity="0.14"/>
<line x1="50.1" y1="463.2" x2="50.1" y2="460.1" fill="none" stroke="#dfe7ff" stroke-width="1.2" stroke-linecap="round" stroke-linejoin="round" stroke-opacity="0.14"/>
<circle cx="187.8" cy="418.2" r="1.3" fill="#dfe7ff" stroke="none" fill-opacity="0.22"/>
<line x1="254.6" y1="630.9" x2="261.1" y2="630.9" fill="none" stroke="#dfe7ff" stroke-width="1.2" stroke-linecap="round" stroke-linejoin="round" stroke-opacity="0.36"/>
<line x1="254.6" y1="630.9" x2="254.6" y2="637.4" fill="none" stroke="#dfe7ff" stroke-width="1.2" stroke-linecap="round" stroke-linejoin="round" stroke-opacity="0.36"/>
<line x1="254.6" y1="630.9" x2="248.1" y2="630.9" fill="none" stroke="#dfe7ff" stroke-width="1.2" stroke-linecap="round" stroke-linejoin="round" stroke-opacity="0.36"/>
<line x1="254.6" y1="630.9" x2="254.6" y2="624.4" fill="none" stroke="#dfe7ff" stroke-width="1.2" stroke-linecap="round" stroke-linejoin="round" stroke-opacity="0.36"/>
<circle cx="497.0" cy="813.9" r="1.7" fill="#dfe7ff" stroke="none" fill-opacity="0.39"/>
<line x1="505.9" y1="756.7" x2="511.4" y2="756.7" fill="none" stroke="#dfe7ff" stroke-width="1.2" stroke-linecap="round" stroke-linejoin="round" stroke-opacity="0.18"/>
<line x1="505.9" y1="756.7" x2="505.9" y2="762.2" fill="none" stroke="#dfe7ff" stroke-width="1.2" stroke-linecap="round" stroke-linejoin="round" stroke-opacity="0.18"/>
<line x1="505.9" y1="756.7" x2="500.4" y2="756.7" fill="none" stroke="#dfe7ff" stroke-width="1.2" stroke-linecap="round" stroke-linejoin="round" stroke-opacity="0.18"/>
<line x1="505.9" y1="756.7" x2="505.9" y2="751.2" fill="none" stroke="#dfe7ff" stroke-width="1.2" stroke-linecap="round" stroke-linejoin="round" stroke-opacity="0.18"/>
<circle cx="292.4" cy="757.7" r="1.5" fill="#dfe7ff" stroke="none" fill-opacity="0.33"/>
<line x1="309.2" y1="319.2" x2="313.1" y2="319.2" fill="none" stroke="#dfe7ff" stroke-width="1.2" stroke-linecap="round" stroke-linejoin="round" stroke-opacity="0.10"/>
<line x1="309.2" y1="319.2" x2="309.2" y2="323.2" fill="none" stroke="#dfe7ff" stroke-width="1.2" stroke-linecap="round" stroke-linejoin="round" stroke-opacity="0.10"/>
<line x1="309.2" y1="319.2" x2="305.2" y2="319.2" fill="none" stroke="#dfe7ff" stroke-width="1.2" stroke-linecap="round" stroke-linejoin="round" stroke-opacity="0.10"/>
<line x1="309.2" y1="319.2" x2="309.2" y2="315.2" fill="none" stroke="#dfe7ff" stroke-width="1.2" stroke-linecap="round" stroke-linejoin="round" stroke-opacity="0.10"/>
<line x1="492.7" y1="461.8" x2="496.3" y2="461.8" fill="none" stroke="#dfe7ff" stroke-width="1.2" stroke-linecap="round" stroke-linejoin="round" stroke-opacity="0.40"/>
<line x1="492.7" y1="461.8" x2="492.7" y2="465.4" fill="none" stroke="#dfe7ff" stroke-width="1.2" stroke-linecap="round" stroke-linejoin="round" stroke-opacity="0.40"/>
<line x1="492.7" y1="461.8" x2="489.1" y2="461.8" fill="none" stroke="#dfe7ff" stroke-width="1.2" stroke-linecap="round" stroke-linejoin="round" stroke-opacity="0.40"/>
<line x1="492.7" y1="461.8" x2="492.7" y2="458.1" fill="none" stroke="#dfe7ff" stroke-width="1.2" stroke-linecap="round" stroke-linejoin="round" stroke-opacity="0.40"/>
<circle cx="159.6" cy="709.3" r="1.5" fill="#dfe7ff" stroke="none" fill-opacity="0.21"/>
<circle cx="194.6" cy="188.5" r="2.5" fill="#dfe7ff" stroke="none" fill-opacity="0.20"/>
<circle cx="261.4" cy="869.9" r="2.3" fill="#dfe7ff" stroke="none" fill-opacity="0.29"/>
<circle cx="450.5" cy="203.6" r="2.3" fill="#dfe7ff" stroke="none" fill-opacity="0.11"/>
<circle cx="342.8" cy="711.9" r="1.8" fill="#dfe7ff" stroke="none" fill-opacity="0.38"/>
<circle cx="199.9" cy="72.3" r="2.6" fill="#dfe7ff" stroke="none" fill-opacity="0.34"/>
<circle cx="342.1" cy="674.8" r="2.0" fill="#dfe7ff" stroke="none" fill-opacity="0.30"/>
<circle cx="404.2" cy="673.9" r="1.7" fill="#dfe7ff" stroke="none" fill-opacity="0.23"/>
<line x1="149.8" y1="73.2" x2="154.2" y2="73.2" fill="none" stroke="#dfe7ff" stroke-width="1.2" stroke-linecap="round" stroke-linejoin="round" stroke-opacity="0.12"/>
<line x1="149.8" y1="73.2" x2="149.8" y2="77.6" fill="none" stroke="#dfe7ff" stroke-width="1.2" stroke-linecap="round" stroke-linejoin="round" stroke-opacity="0.12"/>
<line x1="149.8" y1="73.2" x2="145.4" y2="73.2" fill="none" stroke="#dfe7ff" stroke-width="1.2" stroke-linecap="round" stroke-linejoin="round" stroke-opacity="0.12"/>
<line x1="149.8" y1="73.2" x2="149.8" y2="68.8" fill="none" stroke="#dfe7ff" stroke-width="1.2" stroke-linecap="round" stroke-linejoin="round" stroke-opacity="0.12"/>
<circle cx="162.2" cy="477.8" r="2.1" fill="#dfe7ff" stroke="none" fill-opacity="0.23"/>
<line x1="256.2" y1="325.7" x2="260.9" y2="325.7" fill="none" stroke="#dfe7ff" stroke-width="1.2" stroke-linecap="round" stroke-linejoin="round" stroke-opacity="0.39"/>
<line x1="256.2" y1="325.7" x2="256.2" y2="330.4" fill="none" stroke="#dfe7ff" stroke-width="1.2" stroke-linecap="round" stroke-linejoin="round" stroke-opacity="0.39"/>
<line x1="256.2" y1="325.7" x2="251.4" y2="325.7" fill="none" stroke="#dfe7ff" stroke-width="1.2" stroke-linecap="round" stroke-linejoin="round" stroke-opacity="0.39"/>
<line x1="256.2" y1="325.7" x2="256.2" y2="321.0" fill="none" stroke="#dfe7ff" stroke-width="1.2" stroke-linecap="round" stroke-linejoin="round" stroke-opacity="0.39"/>
<circle cx="371.2" cy="55.0" r="2.5" fill="#dfe7ff" stroke="none" fill-opacity="0.40"/>
<circle cx="431.3" cy="585.9" r="2.3" fill="#dfe7ff" stroke="none" fill-opacity="0.16"/>
<line x1="108.9" y1="901.0" x2="117.3" y2="901.0" fill="none" stroke="#dfe7ff" stroke-width="1.2" stroke-linecap="round" stroke-linejoin="round" stroke-opacity="0.31"/>
<line x1="108.9" y1="901.0" x2="108.9" y2="909.4" fill="none" stroke="#dfe7ff" stroke-width="1.2" stroke-linecap="round" stroke-linejoin="round" stroke-opacity="0.31"/>
<line x1="108.9" y1="901.0" x2="100.4" y2="901.0" fill="none" stroke="#dfe7ff" stroke-width="1.2" stroke-linecap="round" stroke-linejoin="round" stroke-opacity="0.31"/>
<line x1="108.9" y1="901.0" x2="108.9" y2="892.5" fill="none" stroke="#dfe7ff" stroke-width="1.2" stroke-linecap="round" stroke-linejoin="round" stroke-opacity="0.31"/>
<line x1="471.0" y1="371.9" x2="474.5" y2="371.9" fill="none" stroke="#dfe7ff" stroke-width="1.2" stroke-linecap="round" stroke-linejoin="round" stroke-opacity="0.28"/>
<line x1="471.0" y1="371.9" x2="471.0" y2="375.4" fill="none" stroke="#dfe7ff" stroke-width="1.2" stroke-linecap="round" stroke-linejoin="round" stroke-opacity="0.28"/>
<line x1="471.0" y1="371.9" x2="467.6" y2="371.9" fill="none" stroke="#dfe7ff" stroke-width="1.2" stroke-linecap="round" stroke-linejoin="round" stroke-opacity="0.28"/>
<line x1="471.0" y1="371.9" x2="471.0" y2="368.4" fill="none" stroke="#dfe7ff" stroke-width="1.2" stroke-linecap="round" stroke-linejoin="round" stroke-opacity="0.28"/>
<line x1="54.5" y1="169.5" x2="59.7" y2="169.5" fill="none" stroke="#dfe7ff" stroke-width="1.2" stroke-linecap="round" stroke-linejoin="round" stroke-opacity="0.18"/>
<line x1="54.5" y1="169.5" x2="54.5" y2="174.7" fill="none" stroke="#dfe7ff" stroke-width="1.2" stroke-linecap="round" stroke-linejoin="round" stroke-opacity="0.18"/>
<line x1="54.5" y1="169.5" x2="49.3" y2="169.5" fill="none" stroke="#dfe7ff" stroke-width="1.2" stroke-linecap="round" stroke-linejoin="round" stroke-opacity="0.18"/>
<line x1="54.5" y1="169.5" x2="54.5" y2="164.3" fill="none" stroke="#dfe7ff" stroke-width="1.2" stroke-linecap="round" stroke-linejoin="round" stroke-opacity="0.18"/>
<circle cx="399.0" cy="716.1" r="2.1" fill="#dfe7ff" stroke="none" fill-opacity="0.31"/>
<line x1="212.7" y1="264.8" x2="220.0" y2="264.8" fill="none" stroke="#dfe7ff" stroke-width="1.2" stroke-linecap="round" stroke-linejoin="round" stroke-opacity="0.39"/>
<line x1="212.7" y1="264.8" x2="212.7" y2="272.2" fill="none" stroke="#dfe7ff" stroke-width="1.2" stroke-linecap="round" stroke-linejoin="round" stroke-opacity="0.39"/>
<line x1="212.7" y1="264.8" x2="205.3" y2="264.8" fill="none" stroke="#dfe7ff" stroke-width="1.2" stroke-linecap="round" stroke-linejoin="round" stroke-opacity="0.39"/>
<line x1="212.7" y1="264.8" x2="212.7" y2="257.4" fill="none" stroke="#dfe7ff" stroke-width="1.2" stroke-linecap="round" stroke-linejoin="round" stroke-opacity="0.39"/>
<circle cx="219.9" cy="801.6" r="2.4" fill="#dfe7ff" stroke="none" fill-opacity="0.18"/>
<line x1="51.5" y1="580.0" x2="59.4" y2="580.0" fill="none" stroke="#dfe7ff" stroke-width="1.2" stroke-linecap="round" stroke-linejoin="round" stroke-opacity="0.40"/>
<line x1="51.5" y1="580.0" x2="51.5" y2="587.9" fill="none" stroke="#dfe7ff" stroke-width="1.2" stroke-linecap="round" stroke-linejoin="round" stroke-opacity="0.40"/>
<line x1="51.5" y1="580.0" x2="43.5" y2="580.0" fill="none" stroke="#dfe7ff" stroke-width="1.2" stroke-linecap="round" stroke-linejoin="round" stroke-opacity="0.40"/>
<line x1="51.5" y1="580.0" x2="51.5" y2="572.0" fill="none" stroke="#dfe7ff" stroke-width="1.2" stroke-linecap="round" stroke-linejoin="round" stroke-opacity="0.40"/>
<circle cx="275.3" cy="586.4" r="2.1" fill="#dfe7ff" stroke="none" fill-opacity="0.29"/>
<circle cx="179.3" cy="230.4" r="1.5" fill="#dfe7ff" stroke="none" fill-opacity="0.34"/>
<circle cx="151.8" cy="839.8" r="2.3" fill="#dfe7ff" stroke="none" fill-opacity="0.20"/>
<circle cx="216.8" cy="231.8" r="1.5" fill="#dfe7ff" stroke="none" fill-opacity="0.20"/>
<line x1="301.0" y1="32.7" x2="307.7" y2="32.7" fill="none" stroke="#dfe7ff" stroke-width="1.2" stroke-linecap="round" stroke-linejoin="round" stroke-opacity="0.32"/>
<line x1="301.0" y1="32.7" x2="301.0" y2="39.4" fill="none" stroke="#dfe7ff" stroke-width="1.2" stroke-linecap="round" stroke-linejoin="round" stroke-opacity="0.32"/>
<line x1="301.0" y1="32.7" x2="294.3" y2="32.7" fill="none" stroke="#dfe7ff" stroke-width="1.2" stroke-linecap="round" stroke-linejoin="round" stroke-opacity="0.32"/>
<line x1="301.0" y1="32.7" x2="301.0" y2="26.0" fill="none" stroke="#dfe7ff" stroke-width="1.2" stroke-linecap="round" stroke-linejoin="round" stroke-opacity="0.32"/>
<circle cx="246.3" cy="622.7" r="2.1" fill="#dfe7ff" stroke="none" fill-opacity="0.32"/>
<line x1="255.9" y1="96.2" x2="261.1" y2="96.2" fill="none" stroke="#dfe7ff" stroke-width="1.2" stroke-linecap="round" stroke-linejoin="round" stroke-opacity="0.33"/>
<line x1="255.9" y1="96.2" x2="255.9" y2="101.3" fill="none" stroke="#dfe7ff" stroke-width="1.2" stroke-linecap="round" stroke-linejoin="round" stroke-opacity="0.33"/>
<line x1="255.9" y1="96.2" x2="250.8" y2="96.2" fill="none" stroke="#dfe7ff" stroke-width="1.2" stroke-linecap="round" stroke-linejoin="round" stroke-opacity="0.33"/>
<line x1="255.9" y1="96.2" x2="255.9" y2="91.1" fill="none" stroke="#dfe7ff" stroke-width="1.2" stroke-linecap="round" stroke-linejoin="round" stroke-opacity="0.33"/>
<circle cx="359.9" cy="821.7" r="1.3" fill="#dfe7ff" stroke="none" fill-opacity="0.39"/>
<circle cx="293.7" cy="658.7" r="1.8" fill="#dfe7ff" stroke="none" fill-opacity="0.13"/>
<circle cx="396.8" cy="550.7" r="1.6" fill="#dfe7ff" stroke="none" fill-opacity="0.35"/>
<line x1="338.8" y1="315.0" x2="346.7" y2="315.0" fill="none" stroke="#dfe7ff" stroke-width="1.2" stroke-linecap="round" stroke-linejoin="round" stroke-opacity="0.17"/>
<line x1="338.8" y1="315.0" x2="338.8" y2="322.9" fill="none" stroke="#dfe7ff" stroke-width="1.2" stroke-linecap="round" stroke-linejoin="round" stroke-opacity="0.17"/>
<line x1="338.8" y1="315.0" x2="330.9" y2="315.0" fill="none" stroke="#dfe7ff" stroke-width="1.2" stroke-linecap="round" stroke-linejoin="round" stroke-opacity="0.17"/>
<line x1="338.8" y1="315.0" x2="338.8" y2="307.1" fill="none" stroke="#dfe7ff" stroke-width="1.2" stroke-linecap="round" stroke-linejoin="round" stroke-opacity="0.17"/>
<circle cx="150.2" cy="708.0" r="2.2" fill="#dfe7ff" stroke="none" fill-opacity="0.36"/>
<line x1="120.5" y1="149.6" x2="123.8" y2="149.6" fill="none" stroke="#dfe7ff" stroke-width="1.2" stroke-linecap="round" stroke-linejoin="round" stroke-opacity="0.23"/>
<line x1="120.5" y1="149.6" x2="120.5" y2="152.9" fill="none" stroke="#dfe7ff" stroke-width="1.2" stroke-linecap="round" stroke-linejoin="round" stroke-opacity="0.23"/>
<line x1="120.5" y1="149.6" x2="117.2" y2="149.6" fill="none" stroke="#dfe7ff" stroke-width="1.2" stroke-linecap="round" stroke-linejoin="round" stroke-opacity="0.23"/>
<line x1="120.5" y1="149.6" x2="120.5" y2="146.3" fill="none" stroke="#dfe7ff" stroke-width="1.2" stroke-linecap="round" stroke-linejoin="round" stroke-opacity="0.23"/>
<line x1="474.8" y1="526.9" x2="481.2" y2="526.9" fill="none" stroke="#dfe7ff" stroke-width="1.2" stroke-linecap="round" stroke-linejoin="round" stroke-opacity="0.27"/>
<line x1="474.8" y1="526.9" x2="474.8" y2="533.3" fill="none" stroke="#dfe7ff" stroke-width="1.2" stroke-linecap="round" stroke-linejoin="round" stroke-opacity="0.27"/>
<line x1="474.8" y1="526.9" x2="468.4" y2="526.9" fill="none" stroke="#dfe7ff" stroke-width="1.2" stroke-linecap="round" stroke-linejoin="round" stroke-opacity="0.27"/>
<line x1="474.8" y1="526.9" x2="474.8" y2="520.5" fill="none" stroke="#dfe7ff" stroke-width="1.2" stroke-linecap="round" stroke-linejoin="round" stroke-opacity="0.27"/>
<circle cx="434.2" cy="376.3" r="2.5" fill="#dfe7ff" stroke="none" fill-opacity="0.36"/>
<line x1="151.2" y1="283.3" x2="155.8" y2="283.3" fill="none" stroke="#dfe7ff" stroke-width="1.2" stroke-linecap="round" stroke-linejoin="round" stroke-opacity="0.26"/>
<line x1="151.2" y1="283.3" x2="151.2" y2="287.9" fill="none" stroke="#dfe7ff" stroke-width="1.2" stroke-linecap="round" stroke-linejoin="round" stroke-opacity="0.26"/>
<line x1="151.2" y1="283.3" x2="146.6" y2="283.3" fill="none" stroke="#dfe7ff" stroke-width="1.2" stroke-linecap="round" stroke-linejoin="round" stroke-opacity="0.26"/>
<line x1="151.2" y1="283.3" x2="151.2" y2="278.8" fill="none" stroke="#dfe7ff" stroke-width="1.2" stroke-linecap="round" stroke-linejoin="round" stroke-opacity="0.26"/>
<circle cx="116.6" cy="833.5" r="1.7" fill="#dfe7ff" stroke="none" fill-opacity="0.38"/>
<circle cx="344.5" cy="653.9" r="2.4" fill="#dfe7ff" stroke="none" fill-opacity="0.21"/>
<line x1="74.9" y1="264.0" x2="82.7" y2="264.0" fill="none" stroke="#dfe7ff" stroke-width="1.2" stroke-linecap="round" stroke-linejoin="round" stroke-opacity="0.40"/>
<line x1="74.9" y1="264.0" x2="74.9" y2="271.8" fill="none" stroke="#dfe7ff" stroke-width="1.2" stroke-linecap="round" stroke-linejoin="round" stroke-opacity="0.40"/>
<line x1="74.9" y1="264.0" x2="67.2" y2="264.0" fill="none" stroke="#dfe7ff" stroke-width="1.2" stroke-linecap="round" stroke-linejoin="round" stroke-opacity="0.40"/>
<line x1="74.9" y1="264.0" x2="74.9" y2="256.3" fill="none" stroke="#dfe7ff" stroke-width="1.2" stroke-linecap="round" stroke-linejoin="round" stroke-opacity="0.40"/>
<line x1="328.5" y1="152.0" x2="336.8" y2="152.0" fill="none" stroke="#dfe7ff" stroke-width="1.2" stroke-linecap="round" stroke-linejoin="round" stroke-opacity="0.24"/>
<line x1="328.5" y1="152.0" x2="328.5" y2="160.4" fill="none" stroke="#dfe7ff" stroke-width="1.2" stroke-linecap="round" stroke-linejoin="round" stroke-opacity="0.24"/>
<line x1="328.5" y1="152.0" x2="320.1" y2="152.0" fill="none" stroke="#dfe7ff" stroke-width="1.2" stroke-linecap="round" stroke-linejoin="round" stroke-opacity="0.24"/>
<line x1="328.5" y1="152.0" x2="328.5" y2="143.7" fill="none" stroke="#dfe7ff" stroke-width="1.2" stroke-linecap="round" stroke-linejoin="round" stroke-opacity="0.24"/>
<circle cx="385.6" cy="632.7" r="1.8" fill="#dfe7ff" stroke="none" fill-opacity="0.39"/>
<circle cx="185.3" cy="542.3" r="2.1" fill="#dfe7ff" stroke="none" fill-opacity="0.10"/>
<circle cx="75.4" cy="861.3" r="2.1" fill="#dfe7ff" stroke="none" fill-opacity="0.22"/>
<path d="M 270.0 136.5 L 280.2 218.7 L 259.8 218.7 Z" fill="none" stroke="#dfe7ff" stroke-width="3.4" stroke-linecap="round" stroke-linejoin="round"/>
<line x1="270.0" y1="152.4" x2="270.0" y2="218.7" fill="none" stroke="#dfe7ff" stroke-width="1.5" stroke-linecap="round" stroke-linejoin="round" stroke-opacity="0.60"/>
<line x1="238.8" y1="218.7" x2="301.2" y2="218.7" fill="none" stroke="#dfe7ff" stroke-width="2.4" stroke-linecap="round" stroke-linejoin="round"/>
<line x1="270.0" y1="218.7" x2="270.0" y2="237.4" fill="none" stroke="#dfe7ff" stroke-width="3.4" stroke-linecap="round" stroke-linejoin="round"/>
<path d="M 270.0 231.8 L 273.5 240.7 L 282.5 244.2 L 273.5 247.8 L 270.0 256.7 L 266.5 247.8 L 257.5 244.2 L 266.5 240.7 Z" fill="none" stroke="#dfe7ff" stroke-width="1.5" stroke-linecap="round" stroke-linejoin="round"/>
<path d="M 414.6 215.6 L 424.8 297.8 L 404.4 297.8 Z" fill="none" stroke="#dfe7ff" stroke-width="3.4" stroke-linecap="round" stroke-linejoin="round"/>
<line x1="414.6" y1="231.4" x2="414.6" y2="297.8" fill="none" stroke="#dfe7ff" stroke-width="1.5" stroke-linecap="round" stroke-linejoin="round" stroke-opacity="0.60"/>
<line x1="383.5" y1="297.8" x2="445.8" y2="297.8" fill="none" stroke="#dfe7ff" stroke-width="2.4" stroke-linecap="round" stroke-linejoin="round"/>
<line x1="414.6" y1="297.8" x2="414.6" y2="316.5" fill="none" stroke="#dfe7ff" stroke-width="3.4" stroke-linecap="round" stroke-linejoin="round"/>
<path d="M 414.6 310.8 L 418.2 319.8 L 427.1 323.3 L 418.2 326.8 L 414.6 335.8 L 411.1 326.8 L 402.2 323.3 L 411.1 319.8 Z" fill="none" stroke="#dfe7ff" stroke-width="1.5" stroke-linecap="round" stroke-linejoin="round"/>
<path d="M 450.4 393.2 L 460.6 475.4 L 440.2 475.4 Z" fill="none" stroke="#dfe7ff" stroke-width="3.4" stroke-linecap="round" stroke-linejoin="round"/>
<line x1="450.4" y1="409.1" x2="450.4" y2="475.4" fill="none" stroke="#dfe7ff" stroke-width="1.5" stroke-linecap="round" stroke-linejoin="round" stroke-opacity="0.60"/>
<line x1="419.2" y1="475.4" x2="481.5" y2="475.4" fill="none" stroke="#dfe7ff" stroke-width="2.4" stroke-linecap="round" stroke-linejoin="round"/>
<line x1="450.4" y1="475.4" x2="450.4" y2="494.2" fill="none" stroke="#dfe7ff" stroke-width="3.4" stroke-linecap="round" stroke-linejoin="round"/>
<path d="M 450.4 488.5 L 453.9 497.4 L 462.8 501.0 L 453.9 504.5 L 450.4 513.4 L 446.8 504.5 L 437.9 501.0 L 446.8 497.4 Z" fill="none" stroke="#dfe7ff" stroke-width="1.5" stroke-linecap="round" stroke-linejoin="round"/>
<path d="M 350.3 535.7 L 360.5 617.9 L 340.1 617.9 Z" fill="none" stroke="#dfe7ff" stroke-width="3.4" stroke-linecap="round" stroke-linejoin="round"/>
<line x1="350.3" y1="551.6" x2="350.3" y2="617.9" fill="none" stroke="#dfe7ff" stroke-width="1.5" stroke-linecap="round" stroke-linejoin="round" stroke-opacity="0.60"/>
<line x1="319.1" y1="617.9" x2="381.5" y2="617.9" fill="none" stroke="#dfe7ff" stroke-width="2.4" stroke-linecap="round" stroke-linejoin="round"/>
<line x1="350.3" y1="617.9" x2="350.3" y2="636.6" fill="none" stroke="#dfe7ff" stroke-width="3.4" stroke-linecap="round" stroke-linejoin="round"/>
<path d="M 350.3 631.0 L 353.8 639.9 L 362.7 643.4 L 353.8 647.0 L 350.3 655.9 L 346.7 647.0 L 337.8 643.4 L 346.7 639.9 Z" fill="none" stroke="#dfe7ff" stroke-width="1.5" stroke-linecap="round" stroke-linejoin="round"/>
<path d="M 189.7 535.7 L 199.9 617.9 L 179.5 617.9 Z" fill="none" stroke="#dfe7ff" stroke-width="3.4" stroke-linecap="round" stroke-linejoin="round"/>
<line x1="189.7" y1="551.6" x2="189.7" y2="617.9" fill="none" stroke="#dfe7ff" stroke-width="1.5" stroke-linecap="round" stroke-linejoin="round" stroke-opacity="0.60"/>
<line x1="158.5" y1="617.9" x2="220.9" y2="617.9" fill="none" stroke="#dfe7ff" stroke-width="2.4" stroke-linecap="round" stroke-linejoin="round"/>
<line x1="189.7" y1="617.9" x2="189.7" y2="636.6" fill="none" stroke="#dfe7ff" stroke-width="3.4" stroke-linecap="round" stroke-linejoin="round"/>
<path d="M 189.7 631.0 L 193.3 639.9 L 202.2 643.4 L 193.3 647.0 L 189.7 655.9 L 186.2 647.0 L 177.3 643.4 L 186.2 639.9 Z" fill="none" stroke="#dfe7ff" stroke-width="1.5" stroke-linecap="round" stroke-linejoin="round"/>
<path d="M 89.6 393.2 L 99.8 475.4 L 79.4 475.4 Z" fill="none" stroke="#dfe7ff" stroke-width="3.4" stroke-linecap="round" stroke-linejoin="round"/>
<line x1="89.6" y1="409.1" x2="89.6" y2="475.4" fill="none" stroke="#dfe7ff" stroke-width="1.5" stroke-linecap="round" stroke-linejoin="round" stroke-opacity="0.60"/>
<line x1="58.5" y1="475.4" x2="120.8" y2="475.4" fill="none" stroke="#dfe7ff" stroke-width="2.4" stroke-linecap="round" stroke-linejoin="round"/>
<line x1="89.6" y1="475.4" x2="89.6" y2="494.2" fill="none" stroke="#dfe7ff" stroke-width="3.4" stroke-linecap="round" stroke-linejoin="round"/>
<path d="M 89.6 488.5 L 93.2 497.4 L 102.1 501.0 L 93.2 504.5 L 89.6 513.4 L 86.1 504.5 L 77.2 501.0 L 86.1 497.4 Z" fill="none" stroke="#dfe7ff" stroke-width="1.5" stroke-linecap="round" stroke-linejoin="round"/>
<path d="M 125.4 215.6 L 135.6 297.8 L 115.2 297.8 Z" fill="none" stroke="#dfe7ff" stroke-width="3.4" stroke-linecap="round" stroke-linejoin="round"/>
<line x1="125.4" y1="231.4" x2="125.4" y2="297.8" fill="none" stroke="#dfe7ff" stroke-width="1.5" stroke-linecap="round" stroke-linejoin="round" stroke-opacity="0.60"/>
<line x1="94.2" y1="297.8" x2="156.5" y2="297.8" fill="none" stroke="#dfe7ff" stroke-width="2.4" stroke-linecap="round" stroke-linejoin="round"/>
<line x1="125.4" y1="297.8" x2="125.4" y2="316.5" fill="none" stroke="#dfe7ff" stroke-width="3.4" stroke-linecap="round" stroke-linejoin="round"/>
<path d="M 125.4 310.8 L 128.9 319.8 L 137.8 323.3 L 128.9 326.8 L 125.4 335.8 L 121.8 326.8 L 112.9 323.3 L 121.8 319.8 Z" fill="none" stroke="#dfe7ff" stroke-width="1.5" stroke-linecap="round" stroke-linejoin="round"/>
<rect x="16" y="16" width="508" height="928" rx="26" fill="none" stroke="#e6c79c" stroke-width="2.4" stroke-linecap="round" stroke-linejoin="round" stroke-opacity="0.90"/>
<rect x="30" y="30" width="480" height="900" rx="18" fill="none" stroke="#dfe7ff" stroke-width="1.5" stroke-linecap="round" stroke-linejoin="round" stroke-opacity="0.26"/>
<path d="M 52.0 41.0 L 54.3 49.7 L 63.0 52.0 L 54.3 54.3 L 52.0 63.0 L 49.7 54.3 L 41.0 52.0 L 49.7 49.7 Z" fill="none" stroke="#e6c79c" stroke-width="1.6" stroke-linecap="round" stroke-linejoin="round" stroke-opacity="0.80"/>
<path d="M 488.0 41.0 L 490.3 49.7 L 499.0 52.0 L 490.3 54.3 L 488.0 63.0 L 485.7 54.3 L 477.0 52.0 L 485.7 49.7 Z" fill="none" stroke="#e6c79c" stroke-width="1.6" stroke-linecap="round" stroke-linejoin="round" stroke-opacity="0.80"/>
<path d="M 52.0 897.0 L 54.3 905.7 L 63.0 908.0 L 54.3 910.3 L 52.0 919.0 L 49.7 910.3 L 41.0 908.0 L 49.7 905.7 Z" fill="none" stroke="#e6c79c" stroke-width="1.6" stroke-linecap="round" stroke-linejoin="round" stroke-opacity="0.80"/>
<path d="M 488.0 897.0 L 490.3 905.7 L 499.0 908.0 L 490.3 910.3 L 488.0 919.0 L 485.7 910.3 L 477.0 908.0 L 485.7 905.7 Z" fill="none" stroke="#e6c79c" stroke-width="1.6" stroke-linecap="round" stroke-linejoin="round" stroke-opacity="0.80"/>
<text x="270" y="894" text-anchor="middle" fill="#e6c79c" font-family="'Avenir Next', system-ui, sans-serif" font-size="24" letter-spacing="5" font-weight="500">SEVEN OF SWORDS</text>
</svg>
